<?xml version="1.0" encoding="UTF-8" standalone="no"?>
<!-- Created with Inkscape (http://www.inkscape.org/) -->

<svg
   width="50mm"
   height="50mm"
   viewBox="0 0 50 50"
   version="1.1"
   id="svg29814"
   sodipodi:docname="ECHQ-monitored-sticker.svg"
   inkscape:version="1.2.1 (9c6d41e410, 2022-07-14)"
   inkscape:export-filename="ECHQ-monitored-sticker.png"
   inkscape:export-xdpi="300"
   inkscape:export-ydpi="300"
   xmlns:inkscape="http://www.inkscape.org/namespaces/inkscape"
   xmlns:sodipodi="http://sodipodi.sourceforge.net/DTD/sodipodi-0.dtd"
   xmlns:xlink="http://www.w3.org/1999/xlink"
   xmlns="http://www.w3.org/2000/svg"
   xmlns:svg="http://www.w3.org/2000/svg">
  <sodipodi:namedview
     id="namedview29816"
     pagecolor="#ffffff"
     bordercolor="#000000"
     borderopacity="0.25"
     inkscape:showpageshadow="2"
     inkscape:pageopacity="0.0"
     inkscape:pagecheckerboard="0"
     inkscape:deskcolor="#d1d1d1"
     inkscape:document-units="mm"
     showgrid="false"
     inkscape:zoom="4.3540636"
     inkscape:cx="116.55778"
     inkscape:cy="81.418196"
     inkscape:window-width="1920"
     inkscape:window-height="991"
     inkscape:window-x="-9"
     inkscape:window-y="-9"
     inkscape:window-maximized="1"
     inkscape:current-layer="layer2" />
  <defs
     id="defs29811">
    <rect
       x="418.67126"
       y="217.94292"
       width="113.0315"
       height="73.40551"
       id="rect36759" />
    <rect
       x="397.55905"
       y="176.69292"
       width="116.27953"
       height="65.935036"
       id="rect36618" />
    <rect
       x="278.03149"
       y="156.23032"
       width="172.79527"
       height="39.950787"
       id="rect34506" />
  </defs>
  <g
     inkscape:label="Layer 1"
     inkscape:groupmode="layer"
     id="layer1"
     style="display:inline" />
  <g
     inkscape:groupmode="layer"
     id="layer2"
     inkscape:label="Layer 2"
     style="display:inline">
    <path
       id="path31802"
       style="display:inline;fill:#223264;fill-opacity:1;stroke-width:2.12348;stroke-linecap:round"
       d="M 24.651207,5.0029705 A 20,20 0 0 0 5.0029771,25.349307 20,20 0 0 0 25.349306,44.99702 20,20 0 0 0 44.997031,24.651208 20,20 0 0 0 24.651207,5.0029705 Z m 0.01746,1.0003027 A 19,19 0 0 1 43.997243,24.66866 19,19 0 0 1 25.331855,43.997234 19,19 0 0 1 6.0027638,25.331856 19,19 0 0 1 24.668667,6.0032732 Z" />
    <circle
       style="fill:#223264;fill-opacity:1;stroke-width:6.64176;stroke-linecap:round"
       id="path32993"
       cx="24.559881"
       cy="25.432503"
       r="14"
       transform="rotate(-1)" />
    <path
       style="fill:#ffffff;fill-opacity:1;stroke-width:0.111424"
       d="m 22.989648,36.101128 c -0.302928,-0.029 -0.63209,-0.156855 -0.980192,-0.380725 -0.156035,-0.100391 -0.440177,-0.312391 -0.440408,-0.328668 -1.93e-4,-0.01344 0.427254,-0.143026 0.592426,-0.180058 0.202362,-0.04534 0.29712,-0.05734 0.478989,-0.06052 0.231906,-0.004 0.452772,0.0296 0.685302,0.104462 0.04664,0.01505 0.08692,0.02726 0.08947,0.02721 0.0027,-4.7e-5 -0.03297,-0.02484 -0.07908,-0.05522 -0.224957,-0.147816 -0.409996,-0.333972 -0.554994,-0.558348 -0.09105,-0.140891 -0.344452,-0.670261 -0.328685,-0.686602 0.01189,-0.01231 0.362691,0.06694 0.551894,0.124996 0.712667,0.218877 1.0903,0.608076 1.200115,1.23683 l 0.01198,0.07051 0.05157,0.0045 c 0.10018,0.009 0.185839,0.07635 0.215066,0.16884 0.01878,0.05923 0.01895,0.08423 0.0016,0.147924 -0.01007,0.03916 -0.02565,0.0631 -0.06199,0.09976 -0.0543,0.05473 -0.09755,0.07241 -0.180562,0.07346 -0.06841,9.66e-4 -0.118518,-0.01984 -0.17002,-0.07057 l -0.03844,-0.03792 -0.04493,0.02902 c -0.161693,0.104594 -0.408565,0.207851 -0.587822,0.245853 -0.111575,0.02373 -0.303366,0.03528 -0.411609,0.02493 z m 1.365838,-0.536312 c -2.11e-4,-0.0121 -0.0395,-0.05242 -0.0516,-0.05221 -0.0054,9.4e-5 -0.02145,0.01113 -0.03571,0.02604 l -0.02616,0.02587 0.03079,0.03065 0.03078,0.03066 0.02603,-0.02587 c 0.01427,-0.01423 0.02596,-0.03003 0.02587,-0.03514 z m 0.242242,0.506442 c 0.0053,-0.0068 0.0762,-0.101488 0.158344,-0.210985 l 0.149276,-0.199035 -0.149866,-0.180545 c -0.0824,-0.09926 -0.149903,-0.182749 -0.14995,-0.185451 -4.7e-5,-0.0027 0.09492,-0.0071 0.211005,-0.0091 l 0.211087,-0.0037 0.03654,0.04413 c 0.02006,0.02425 0.03942,0.04758 0.04298,0.05155 0.0041,0.0039 0.02392,-0.01642 0.04505,-0.04555 l 0.0386,-0.05297 0.21688,-0.0038 0.21688,-0.0038 -0.147674,0.190727 -0.14766,0.190726 0.156923,0.193597 c 0.08628,0.106449 0.160268,0.198849 0.164333,0.205271 0.0056,0.0093 -0.03634,0.01274 -0.199291,0.01558 l -0.206719,0.0036 -0.06086,-0.07476 c -0.03352,-0.04109 -0.06362,-0.07135 -0.06705,-0.06726 -0.0039,0.0041 -0.03011,0.0387 -0.05943,0.07686 l -0.05324,0.06936 -0.207606,0.0036 c -0.164746,0.0029 -0.205745,8.91e-4 -0.198557,-0.0086 z m 2.345724,-0.08222 c -0.214167,-0.02719 -0.456005,-0.109272 -0.653326,-0.221917 -0.041,-0.02335 -0.07657,-0.04263 -0.07886,-0.04259 -0.0027,4.7e-5 -0.0172,0.01549 -0.03315,0.03419 -0.119609,0.141099 -0.365075,0.08986 -0.420053,-0.08758 -0.04631,-0.149496 0.04235,-0.292756 0.200547,-0.324085 0.05481,-0.01036 0.05839,-0.01312 0.06062,-0.03937 0.001,-0.01534 0.01237,-0.07698 0.0245,-0.136818 0.124405,-0.612622 0.491821,-0.971254 1.240503,-1.210841 0.126205,-0.04039 0.397873,-0.110195 0.431511,-0.110916 0.02136,-4.67e-4 0.02136,-4.67e-4 -0.05369,0.189583 -0.230311,0.582891 -0.418781,0.83862 -0.832376,1.129547 -0.01327,0.0096 0.03423,-0.0033 0.107733,-0.02809 0.379149,-0.128555 0.718389,-0.151187 1.118434,-0.07464 0.139706,0.02674 0.163685,0.03264 0.419479,0.103188 l 0.198002,0.05462 -0.03151,0.02784 c -0.310197,0.274778 -0.726113,0.540485 -1.003122,0.640867 -0.186834,0.06766 -0.298015,0.08922 -0.492592,0.09531 -0.09593,0.003 -0.187218,0.004 -0.202816,0.0022 z m -0.97231,-0.46599 0.02494,-0.02692 -0.03171,-0.02969 -0.0317,-0.02969 -0.02665,0.02883 -0.02665,0.02883 0.02764,0.02788 c 0.01519,0.01533 0.0302,0.02771 0.03356,0.02765 0.0027,-4.8e-5 0.01713,-0.0124 0.03085,-0.02702 z m -5.217101,-0.732471 c -0.408014,-0.05244 -0.815625,-0.290551 -1.225764,-0.715912 -0.15669,-0.162519 -0.271723,-0.298501 -0.258731,-0.305839 0.01371,-0.0083 0.260243,-0.03735 0.458609,-0.05506 0.529327,-0.04716 0.94156,0.04755 1.416614,0.325436 0.03654,0.02141 0.06913,0.04034 0.07253,0.04229 0.004,0.0026 -0.04993,-0.04968 -0.118561,-0.114624 -0.338722,-0.320507 -0.505166,-0.61739 -0.62467,-1.114264 -0.03842,-0.159771 -0.08198,-0.375942 -0.0767,-0.381331 0.0066,-0.0068 0.20997,0.07794 0.374831,0.15785 0.29044,0.140731 0.484217,0.270673 0.666788,0.447151 0.217332,0.210047 0.338976,0.418147 0.402542,0.688633 0.02744,0.116753 0.04703,0.299034 0.04412,0.409782 l -0.0025,0.08743 0.04288,-5e-5 c 0.134916,3.46e-4 0.239343,0.105525 0.24177,0.244561 0.0014,0.07889 -0.02189,0.132536 -0.08051,0.186004 -0.07199,0.06566 -0.170615,0.08337 -0.262374,0.04693 -0.03764,-0.01494 -0.105749,-0.07385 -0.114115,-0.0987 -0.0071,-0.023 -0.01114,-0.02226 -0.154588,0.03254 -0.126873,0.04846 -0.301085,0.0952 -0.412975,0.110861 -0.09268,0.01237 -0.310448,0.01617 -0.389472,0.0061 z m 1.256173,-0.351547 0.02679,-0.02897 -0.03076,-0.02972 -0.03076,-0.02971 -0.02972,0.03076 -0.02971,0.03077 0.02778,0.02802 c 0.01532,0.01546 0.03047,0.02797 0.03369,0.02792 0.0027,-4.7e-5 0.01791,-0.01375 0.0327,-0.02907 z m 7.077608,0.168263 c -0.152731,-0.01508 -0.339057,-0.06009 -0.515518,-0.124501 l -0.06251,-0.02284 -0.0315,0.04398 c -0.10762,0.150112 -0.348863,0.127623 -0.424256,-0.03951 -0.07132,-0.157986 0.02396,-0.329782 0.194135,-0.350163 l 0.05421,-0.0063 0.0011,-0.165124 c 9.07e-4,-0.177248 0.01514,-0.295951 0.05022,-0.427616 0.114817,-0.431055 0.446599,-0.783164 1.023,-1.085619 0.163648,-0.08581 0.344148,-0.168209 0.352038,-0.160589 0.0027,0.0027 -0.0068,0.07715 -0.02106,0.164828 -0.108899,0.646876 -0.256525,0.970455 -0.608795,1.334968 l -0.134735,0.139426 0.09801,-0.06181 c 0.274888,-0.173412 0.523521,-0.275113 0.805687,-0.32958 0.102904,-0.01981 0.151189,-0.02321 0.386379,-0.02705 0.251452,-0.0041 0.327879,-3.23e-4 0.606691,0.02719 0.0299,0.0035 0.05443,0.0072 0.05448,0.0098 3.14e-4,0.01801 -0.273781,0.332288 -0.399149,0.457704 -0.470458,0.470631 -0.932424,0.672195 -1.428247,0.623174 z m -0.836009,-0.322381 0.02493,-0.02692 -0.02883,-0.02665 -0.02883,-0.02665 -0.02788,0.02764 -0.02788,0.02764 0.02587,0.02603 c 0.01423,0.01427 0.02855,0.02599 0.03178,0.02593 0.0027,-4.7e-5 0.01713,-0.0124 0.03085,-0.02702 z m -8.596402,-1.134053 c -0.08518,-0.02016 -0.161511,-0.0937 -0.186125,-0.179132 -0.0071,-0.02327 -0.01567,-0.03535 -0.02629,-0.03517 -0.04154,4.96e-4 -0.285935,-0.02431 -0.352724,-0.03579 -0.366208,-0.06285 -0.652213,-0.197441 -0.892847,-0.420095 -0.124213,-0.114928 -0.197985,-0.200704 -0.294746,-0.342691 -0.138167,-0.202717 -0.262935,-0.458892 -0.366817,-0.753143 -0.06449,-0.182519 -0.150456,-0.478574 -0.139167,-0.478771 0.004,-6.9e-5 0.08717,0.02604 0.184657,0.05795 0.466591,0.152768 0.744079,0.283158 1.003068,0.471302 0.109207,0.07943 0.316722,0.277791 0.403084,0.385515 0.03437,0.04296 0.06995,0.08697 0.07901,0.09771 0.01236,0.01471 0.0094,-0.0015 -0.0119,-0.06566 -0.111849,-0.330881 -0.120777,-0.680591 -0.03044,-1.205179 0.01415,-0.08266 0.02585,-0.152221 0.02581,-0.154626 -2.34e-4,-0.01344 0.154999,0.132635 0.254559,0.238596 0.292421,0.311219 0.467626,0.57399 0.558082,0.836975 0.02194,0.06361 0.02498,0.06786 0.04695,0.06291 0.01339,-0.0029 0.245763,-0.04355 0.51739,-0.09023 0.271626,-0.04682 0.495195,-0.08635 0.496804,-0.08812 0.0013,-0.0013 -0.09102,-0.07692 -0.205775,-0.167268 -0.114776,-0.09036 -0.237702,-0.187038 -0.273116,-0.214922 -0.03544,-0.02789 -0.06342,-0.05146 -0.06223,-0.05255 9.83e-4,-0.001 0.372822,0.0042 0.825876,0.01221 0.453048,0.0077 0.825895,0.0118 0.82855,0.0091 0.0027,-0.0027 -0.0337,-0.05144 -0.0808,-0.108158 -0.460238,-0.554328 -0.752118,-1.228881 -0.853548,-1.972607 -0.02406,-0.176852 -0.03461,-0.611805 -0.01915,-0.787512 0.05696,-0.641908 0.247569,-1.215438 0.581202,-1.74887 0.458274,-0.732684 1.152772,-1.290578 1.966466,-1.579648 0.373564,-0.132706 0.714266,-0.200203 1.135144,-0.22488 l 0.162344,-0.0095 -0.476549,-1.001263 c -0.26209,-0.550696 -0.477814,-1.002899 -0.479368,-1.004898 -0.0013,-0.0022 -0.06722,0.02325 -0.145923,0.05609 -0.29443,0.122895 -0.500565,0.177666 -0.716375,0.190348 -0.299346,0.0176 -0.507533,-0.05212 -0.748933,-0.250783 l -0.04296,-0.03541 -0.03433,0.0356 c -0.09019,0.09336 -0.239901,0.101262 -0.338059,0.01786 -0.05882,-0.04991 -0.08632,-0.108519 -0.08713,-0.185336 -9.09e-4,-0.07212 0.01505,-0.116149 0.06104,-0.168815 0.04982,-0.05716 0.114574,-0.08292 0.198264,-0.07901 l 0.06755,0.0031 0.0161,-0.04832 c 0.228386,-0.683197 0.729688,-0.989609 1.645932,-1.006043 l 0.210574,-0.0038 -0.06224,0.09308 c -0.08058,0.120588 -0.209017,0.296334 -0.273911,0.374884 -0.02818,0.0341 -0.04999,0.06313 -0.04862,0.06453 0.0013,0.0013 0.0467,-0.005 0.100581,-0.01426 0.129215,-0.02206 0.371572,-0.01966 0.496776,0.005 0.09632,0.01897 0.210498,0.05195 0.282863,0.08179 l 0.04699,0.01937 -0.06438,0.06224 c -0.166384,0.160846 -0.440079,0.307069 -0.668426,0.357108 l -0.06054,0.01329 0.150049,0.0701 c 0.08254,0.03855 0.190932,0.09322 0.240912,0.12147 l 0.09084,0.05137 -0.04085,0.02426 c -0.02249,0.0133 -0.07415,0.04187 -0.115051,0.06337 -0.05342,0.02815 -0.07026,0.04117 -0.06036,0.04652 0.02999,0.01607 0.73391,0.288957 0.737052,0.285701 0.0027,-0.0028 -0.305099,-1.655981 -0.325535,-1.748518 l -0.0059,-0.02586 0.397337,-0.0069 0.397351,-0.0069 -0.0049,0.03075 c -0.0072,0.04917 -0.01802,0.55441 -0.01241,0.559894 0.0027,0.0028 0.03834,-0.0062 0.07897,-0.01993 0.171651,-0.05793 0.375122,-0.08432 0.553647,-0.07185 0.0626,0.0044 0.130741,0.01151 0.151482,0.01591 0.02065,0.0043 0.03924,0.0063 0.04108,0.0044 0.0027,-0.0022 -0.02508,-0.03526 -0.06004,-0.07393 -0.119952,-0.132726 -0.341159,-0.429256 -0.329407,-0.441471 0.01189,-0.0119 0.2439,-0.01703 0.400887,-0.0092 0.340132,0.01765 0.586752,0.07021 0.795996,0.169668 0.132582,0.06304 0.215269,0.120411 0.32547,0.225924 0.145858,0.139677 0.24496,0.290186 0.333929,0.50722 l 0.03777,0.09218 0.04975,-0.0072 c 0.0743,-0.0106 0.144874,0.01161 0.202599,0.06376 0.175112,0.158159 0.05336,0.445735 -0.181408,0.428569 -0.06394,-0.0047 -0.116388,-0.02871 -0.161326,-0.07384 l -0.03284,-0.03303 -0.04244,0.04101 c -0.343592,0.33167 -0.809337,0.365317 -1.473041,0.106434 -0.130489,-0.05092 -0.454106,-0.198405 -0.454257,-0.207056 -1.69e-4,-0.0097 0.217095,-0.134693 0.346708,-0.199408 l 0.124616,-0.06219 -0.05651,-0.01045 c -0.205676,-0.03832 -0.459557,-0.152603 -0.619215,-0.278731 l -0.03967,-0.03134 -0.0043,0.06409 c -0.0021,0.03524 -0.01528,0.433676 -0.02851,0.885386 -0.01322,0.451714 -0.02674,0.832833 -0.03012,0.846939 -0.0063,0.02498 -0.01364,0.01949 -0.296292,-0.209484 -0.159619,-0.129314 -0.292087,-0.235093 -0.294372,-0.235053 -0.0027,4.7e-5 0.0015,0.01376 0.0086,0.03051 0.007,0.01675 0.150014,0.351538 0.317412,0.743993 l 0.304338,0.713561 0.0614,0.0051 c 0.121843,0.0101 0.38815,0.05445 0.530965,0.08831 1.022721,0.242412 1.898229,0.88678 2.437261,1.793802 0.203316,0.342143 0.37094,0.775228 0.453342,1.171332 0.08173,0.392631 0.101655,0.856027 0.05389,1.254144 -0.08296,0.692496 -0.367532,1.376331 -0.800266,1.92323 -0.05143,0.06503 -0.09216,0.119244 -0.09053,0.12056 0.0027,0.0027 1.408903,-0.107805 1.518867,-0.119006 0.04522,-0.0048 0.05305,-0.0036 0.04259,0.006 -0.0066,0.0068 -0.127561,0.109106 -0.267841,0.227428 -0.140266,0.118336 -0.251068,0.216354 -0.246229,0.217789 0.0081,0.0026 1.206214,0.166704 1.255677,0.172308 0.01427,0.0011 0.02245,-0.01559 0.04642,-0.09761 0.05442,-0.186907 0.11079,-0.307394 0.233347,-0.498301 0.119888,-0.186732 0.264744,-0.364812 0.459236,-0.564422 l 0.09219,-0.0945 0.02775,0.133821 c 0.112878,0.543936 0.118853,0.855423 0.02385,1.211801 -0.02007,0.07469 -0.02531,0.105708 -0.0155,0.09022 0.03703,-0.05792 0.149352,-0.194695 0.231071,-0.281343 0.304174,-0.32252 0.6252,-0.509859 1.277584,-0.745519 l 0.132797,-0.04789 -0.035,0.143762 c -0.110022,0.451555 -0.263984,0.840421 -0.444637,1.122752 -0.08389,0.131064 -0.146636,0.210135 -0.254439,0.320523 -0.290006,0.296985 -0.671692,0.463523 -1.166044,0.50876 l -0.09383,0.0083 -0.02142,0.05912 c -0.06002,0.166032 -0.260749,0.222465 -0.392641,0.110373 -0.06427,-0.05467 -0.08521,-0.09921 -0.0867,-0.184377 -9.53e-4,-0.05456 0.004,-0.07979 0.01865,-0.110029 0.02171,-0.04286 0.09849,-0.118413 0.120804,-0.118802 0.0081,-1.41e-4 0.012,-0.0056 0.0092,-0.01226 -0.0388,-0.0898 -0.08038,-0.199195 -0.100891,-0.265573 -0.01423,-0.04533 -0.02674,-0.08383 -0.02837,-0.08528 -0.0027,-0.0027 -1.652916,-0.475472 -1.84992,-0.530649 -0.0054,-0.0012 0.09158,-0.07554 0.214136,-0.16481 0.12253,-0.08925 0.228376,-0.167748 0.23509,-0.174345 0.0092,-0.0096 -0.104661,-0.01161 -0.573349,-0.0087 l -0.585545,0.0035 -0.07192,0.06915 c -0.335648,0.322465 -0.804952,0.617336 -1.259296,0.791219 -0.404996,0.155007 -0.783218,0.231907 -1.225707,0.249216 -0.460502,0.01744 -0.792584,-0.02125 -1.238167,-0.146491 C 23.323363,32.029197 22.76,31.716133 22.350027,31.342676 l -0.06448,-0.0587 -0.551346,0.02724 c -0.303241,0.01469 -0.589393,0.02803 -0.635905,0.02898 -0.0727,0.0016 -0.08261,0.0041 -0.07045,0.01481 0.0082,0.0066 0.116791,0.08252 0.242454,0.167421 0.125571,0.08492 0.224518,0.155755 0.21976,0.15733 -0.0054,0.0014 -0.348529,0.112829 -0.76394,0.247342 -0.415398,0.13443 -0.764,0.248497 -0.77467,0.253362 -0.01507,0.007 -0.02176,0.02417 -0.0305,0.07837 -0.0154,0.09572 -0.04628,0.206232 -0.08857,0.317103 -0.01968,0.05143 -0.03493,0.09377 -0.03385,0.09416 0.001,3.19e-4 0.0201,0.01175 0.04253,0.02574 0.158271,0.09753 0.154686,0.3327 -0.0065,0.424109 -0.05019,0.02857 -0.128874,0.04164 -0.178322,0.03 z m 0.192744,-0.27668 c 0.0092,-0.0096 -0.0094,-0.0766 -0.02109,-0.07626 -0.004,7e-5 -0.0217,0.0044 -0.04056,0.01011 l -0.03411,0.01 0.01007,0.03841 c 0.01006,0.03747 0.01142,0.03825 0.04345,0.03245 0.01823,-0.003 0.03693,-0.01005 0.04181,-0.01498 z M 30.3754,32.637457 c 0.0037,-0.01822 0.0061,-0.03613 0.0074,-0.03979 9.3e-4,-0.004 -0.01621,-0.01182 -0.03822,-0.01761 l -0.04,-0.0114 -0.0088,0.03484 c -0.0126,0.04808 -0.01262,0.04741 0.02196,0.05676 0.0485,0.01313 0.05195,0.0112 0.05794,-0.02347 z M 25.264296,31.68354 c 0.403374,-0.0416 0.795355,-0.159764 1.156484,-0.348623 0.309799,-0.162017 0.544196,-0.335234 0.79228,-0.585455 0.282803,-0.285217 0.453012,-0.525084 0.624139,-0.87951 0.163445,-0.338509 0.255327,-0.658588 0.303541,-1.057345 0.01798,-0.148426 0.01313,-0.595167 -0.0076,-0.745258 -0.05234,-0.371809 -0.149452,-0.694396 -0.305958,-1.015869 -0.268519,-0.551567 -0.731298,-1.048935 -1.26607,-1.360677 -1.288393,-0.75108 -2.914678,-0.527281 -3.948614,0.543381 -0.508431,0.526503 -0.811371,1.182294 -0.891981,1.930947 -0.01735,0.161071 -0.01379,0.534703 0.0066,0.688657 0.05419,0.408962 0.162727,0.759488 0.342258,1.105292 0.170586,0.328619 0.35721,0.577114 0.631239,0.840552 0.422155,0.405846 0.916286,0.676075 1.487039,0.813217 0.137314,0.03296 0.369526,0.06964 0.506187,0.07976 0.128293,0.0099 0.438177,0.0045 0.570675,-0.009 z m -2.087852,-2.583306 c -0.18629,-0.118417 -0.344835,-0.21859 -0.352315,-0.222721 -0.0353,-0.01955 0.213454,-0.475 0.367041,-0.67204 0.341452,-0.438069 0.75953,-0.592309 1.230095,-0.453825 0.126891,0.03736 0.223775,0.07859 0.547298,0.233038 0.329082,0.157106 0.44528,0.200319 0.575171,0.213912 0.1453,0.01521 0.286907,-0.02551 0.419458,-0.120614 0.109807,-0.0788 0.275933,-0.265245 0.392944,-0.441109 0.0039,-0.0068 0.689229,0.434854 0.689659,0.444886 6.28e-4,0.01596 -0.160999,0.306872 -0.234493,0.421905 -0.277786,0.434814 -0.582364,0.677901 -0.933744,0.745286 -0.09674,0.01849 -0.288757,0.01956 -0.382085,0.0027 -0.180215,-0.03382 -0.370256,-0.107542 -0.611699,-0.237041 -0.428126,-0.229652 -0.47633,-0.250079 -0.600346,-0.254476 -0.104657,-0.0036 -0.170469,0.01238 -0.270409,0.06414 -0.135703,0.07093 -0.270252,0.19784 -0.432934,0.408362 -0.03458,0.0447 -0.06324,0.08177 -0.0639,0.08245 -6.73e-4,7.11e-4 -0.153467,-0.09573 -0.339756,-0.214081 z m -1.001555,-6.567047 -7.5e-4,-0.04299 -0.04001,0.0035 c -0.03987,0.0035 -0.04,0.0038 -0.04225,0.04374 l -0.002,0.04014 0.043,-7.51e-4 0.043,-7.51e-4 z m 5.515499,-0.135829 0.002,-0.04014 -0.043,7.5e-4 -0.04301,7.51e-4 7.51e-4,0.04299 7.5e-4,0.04299 0.04001,-0.0035 c 0.03986,-0.0035 0.04,-0.0038 0.04225,-0.04373 z m -9.56853,8.212748 c -0.08031,-0.0107 -0.159349,-0.06995 -0.193735,-0.146008 -0.01986,-0.04402 -0.02138,-0.146328 -0.0026,-0.19059 l 0.0142,-0.03386 -0.08408,-0.05715 c -0.699579,-0.475684 -0.904498,-1.075178 -0.685023,-2.003929 0.03055,-0.129286 0.12646,-0.457187 0.136968,-0.468265 0.0039,-0.0045 0.02877,0.02347 0.165883,0.188571 0.31838,0.383536 0.471502,0.650474 0.555872,0.969116 0.03253,0.122983 0.06173,0.28575 0.06493,0.361855 0.0022,0.05172 0.0167,0.117477 0.01809,0.08129 0.0018,-0.05031 0.07467,-0.327669 0.112444,-0.428285 0.113833,-0.302595 0.258067,-0.51245 0.596632,-0.867978 0.174042,-0.182751 0.204776,-0.211213 0.210954,-0.195356 0.01125,0.02863 0.05833,0.291461 0.0785,0.43841 0.02263,0.164042 0.03225,0.545681 0.01709,0.669603 -0.04445,0.357404 -0.144104,0.608517 -0.335327,0.844489 -0.08502,0.104869 -0.206619,0.213441 -0.351582,0.313763 -0.101754,0.07034 -0.120818,0.08721 -0.109499,0.09643 0.0082,0.0066 0.02712,0.03663 0.0434,0.0678 0.09514,0.182361 -0.04824,0.386604 -0.252925,0.360263 z m 0.156518,-0.272446 c 0.02529,-0.0071 0.02714,-0.01621 0.01107,-0.05934 -0.0085,-0.02459 -0.01448,-0.02865 -0.03106,-0.02312 -0.04905,0.01618 -0.06156,0.02393 -0.05747,0.03515 0.02229,0.05984 0.02587,0.06516 0.0399,0.05953 0.0081,-0.0028 0.025,-0.0085 0.03745,-0.01141 z m 13.524313,-0.02345 c -0.151512,-0.06539 -0.202417,-0.247466 -0.105825,-0.378686 l 0.03139,-0.04262 -0.07147,-0.04285 c -0.115753,-0.06937 -0.220471,-0.148002 -0.317282,-0.238229 -0.253236,-0.235999 -0.390528,-0.504095 -0.457957,-0.894259 -0.02572,-0.148619 -0.03201,-0.5248 -0.01209,-0.712151 0.01536,-0.144301 0.05371,-0.40442 0.06383,-0.433275 0.0051,-0.01515 0.03485,0.0092 0.184066,0.151996 0.469714,0.44944 0.647752,0.734361 0.769175,1.231001 l 0.02403,0.09826 0.0055,-0.06611 c 0.02025,-0.257121 0.03952,-0.369808 0.09244,-0.542452 0.065,-0.211876 0.198307,-0.461677 0.376377,-0.705539 0.08771,-0.120134 0.253306,-0.330006 0.263416,-0.333858 0.01068,-0.0041 0.112648,0.291937 0.159358,0.463258 0.182864,0.671551 0.129425,1.176055 -0.168199,1.587353 -0.106331,0.14697 -0.275742,0.310032 -0.467802,0.450271 l -0.06226,0.04545 0.01553,0.03468 c 0.05483,0.122324 -0.01454,0.284003 -0.141348,0.329708 -0.05811,0.02091 -0.129115,0.02014 -0.180525,-0.0023 z m 0.03835,-0.282509 0.01012,-0.0362 -0.0354,-0.01013 c -0.04702,-0.01329 -0.04435,-0.01442 -0.05632,0.02411 -0.01143,0.03825 -0.01001,0.04252 0.03258,0.05657 0.03597,0.01147 0.03637,0.01147 0.04914,-0.03447 z M 17.96021,27.932988 c -0.05623,-0.0099 -0.08869,-0.02818 -0.134013,-0.07567 -0.03971,-0.0416 -0.07053,-0.112975 -0.07145,-0.165488 -0.0014,-0.07892 0.06428,-0.19145 0.127927,-0.219103 l 0.02842,-0.01233 -0.03262,-0.04313 c -0.12743,-0.16835 -0.249366,-0.383966 -0.301495,-0.532994 -0.09269,-0.26479 -0.10419,-0.546855 -0.03423,-0.8368 0.07271,-0.301361 0.270567,-0.695122 0.52697,-1.048699 l 0.03702,-0.05102 0.02795,0.06876 c 0.115749,0.284758 0.209944,0.588577 0.244499,0.788328 0.02496,0.143882 0.02986,0.416963 0.01013,0.56007 -0.03006,0.218492 -0.095,0.457156 -0.198172,0.728127 -0.03213,0.08439 -0.06053,0.159855 -0.06321,0.167688 -0.0026,0.0078 0.01765,-0.02885 0.04509,-0.08149 0.287884,-0.552606 0.564176,-0.811128 1.106796,-1.035632 0.156874,-0.06491 0.444046,-0.169952 0.449693,-0.1645 0.0082,0.0074 -0.04771,0.285516 -0.07875,0.395149 -0.06002,0.212349 -0.132852,0.380552 -0.231095,0.53414 -0.07224,0.1129 -0.235607,0.284121 -0.337298,0.353442 -0.20326,0.138574 -0.468581,0.232375 -0.766885,0.271117 -0.08545,0.01099 -0.100425,0.01545 -0.09497,0.02764 0.04294,0.09546 0.04352,0.16679 0.0016,0.246187 -0.04956,0.09504 -0.154087,0.145286 -0.262455,0.126208 z m 0.191743,-0.252325 c 0.0027,-0.0024 0.0023,-0.0217 -5.1e-5,-0.04296 l -0.0047,-0.03863 -0.03892,0.0035 c -0.04188,0.0038 -0.05052,0.01729 -0.03873,0.06087 0.0057,0.01907 0.0125,0.02263 0.04206,0.02211 0.01976,-3.45e-4 0.03787,-0.0024 0.04011,-0.0049 z m 13.707679,-0.04708 c -0.123268,-0.05316 -0.184584,-0.19094 -0.139925,-0.314253 l 0.0177,-0.04885 -0.09091,-0.0094 c -0.227051,-0.02366 -0.441364,-0.07695 -0.606428,-0.150816 -0.436684,-0.195418 -0.704429,-0.585584 -0.84793,-1.235648 -0.01457,-0.06482 -0.02602,-0.119399 -0.02605,-0.121268 -3e-5,-0.0017 0.06713,0.0179 0.149377,0.04395 0.678129,0.214905 0.979909,0.406845 1.264246,0.804092 0.06821,0.09535 0.144508,0.21864 0.197736,0.319706 0.01822,0.03472 0.03485,0.06308 0.03673,0.06305 0.0013,-2.2e-5 -0.023,-0.06222 -0.05525,-0.138205 -0.116779,-0.274487 -0.195444,-0.525057 -0.234208,-0.745579 -0.02761,-0.157024 -0.03022,-0.444685 -0.005,-0.597143 0.03509,-0.215574 0.08484,-0.400043 0.187887,-0.695861 l 0.04762,-0.136727 0.02744,0.03163 c 0.0151,0.01738 0.06809,0.08825 0.117694,0.157428 0.285087,0.397811 0.448134,0.750483 0.501242,1.084255 0.02174,0.136411 0.02102,0.326294 -0.0015,0.454415 -0.03523,0.199579 -0.129047,0.424473 -0.262902,0.630511 -0.04032,0.06213 -0.0775,0.119592 -0.0826,0.127667 -0.0065,0.01074 -0.0051,0.01595 0.0057,0.01928 0.0081,0.0027 0.03648,0.02592 0.06369,0.05193 0.163113,0.156213 0.05866,0.418339 -0.168582,0.423209 -0.03239,6.78e-4 -0.06799,-0.0058 -0.09468,-0.01736 z m 0.02755,-0.247418 c 0.01258,-0.04954 0.007,-0.06151 -0.03059,-0.06561 -0.04243,-0.0047 -0.04561,-0.002 -0.05155,0.04289 -0.0047,0.03745 5.19e-4,0.04201 0.05197,0.04338 0.01829,3.8e-4 0.02627,-0.0051 0.03016,-0.02065 z M 18.739346,25.915243 c -0.0545,-0.01837 -0.102824,-0.06036 -0.132963,-0.115651 -0.05027,-0.09204 -0.03189,-0.224868 0.04082,-0.295277 0.03041,-0.02944 0.1013,-0.0655 0.130594,-0.06631 0.01075,-3e-4 0.02186,-0.0028 0.02451,-0.0055 0.0027,-0.0028 -0.0034,-0.0377 -0.01346,-0.07761 -0.158974,-0.614621 -0.0466,-1.090814 0.36098,-1.52995 0.118631,-0.127771 0.230926,-0.230375 0.363378,-0.33189 0.09857,-0.07557 0.300627,-0.213855 0.383931,-0.2628 l 0.05377,-0.03153 0.0011,0.06452 c 0.0017,0.09692 -0.01149,0.351058 -0.02516,0.484531 -0.03825,0.373605 -0.132343,0.656205 -0.314743,0.945475 -0.01309,0.0199 -7.47e-4,0.01455 0.06323,-0.0286 0.269922,-0.182093 0.597948,-0.271906 1.020014,-0.279273 l 0.09811,-0.0017 -0.04304,0.08331 c -0.138571,0.268572 -0.274393,0.490577 -0.395281,0.646144 -0.04089,0.05261 -0.121856,0.143332 -0.180005,0.201606 -0.181371,0.181844 -0.348374,0.280372 -0.562365,0.331792 -0.124908,0.03002 -0.372569,0.02261 -0.513453,-0.01538 l -0.0308,-0.0084 0.001,0.0588 c 0.0024,0.137454 -0.09967,0.243412 -0.236326,0.245298 -0.03119,4.33e-4 -0.07308,-0.0047 -0.09337,-0.01154 z m 0.235827,-0.19761 0.01843,-0.03783 -0.03797,-0.01852 -0.03797,-0.01851 -0.01843,0.03789 -0.01856,0.03789 0.03581,0.01811 c 0.01966,0.0099 0.03675,0.01826 0.03797,0.01848 10e-4,2.07e-4 0.01046,-0.01664 0.02072,-0.03746 z m 12.029291,-0.04862 c -0.04731,-0.01462 -0.08279,-0.03698 -0.11731,-0.0738 -0.04685,-0.0501 -0.06483,-0.09425 -0.06602,-0.162233 -7.44e-4,-0.04263 -0.0037,-0.05524 -0.013,-0.0515 -0.108001,0.04361 -0.442945,0.06282 -0.562647,0.03224 -0.202738,-0.05177 -0.368217,-0.144092 -0.539327,-0.300882 -0.194936,-0.178601 -0.406384,-0.466652 -0.589542,-0.803125 l -0.06403,-0.117485 0.03145,-4.54e-4 c 0.0676,-9.56e-4 0.34725,0.01336 0.423367,0.02171 0.257059,0.02828 0.467399,0.09809 0.662284,0.21986 0.04349,0.02716 0.08071,0.04936 0.08273,0.04932 0.0027,-4.7e-5 -0.02041,-0.0368 -0.04982,-0.08169 -0.159509,-0.243188 -0.258384,-0.523171 -0.30549,-0.865079 -0.02878,-0.208355 -0.05188,-0.546343 -0.03737,-0.546596 0.01075,-1.88e-4 0.170795,0.09487 0.299264,0.177989 0.563155,0.364265 0.872932,0.754794 0.960302,1.210609 0.03609,0.187985 0.02664,0.455631 -0.02448,0.700244 l -0.0201,0.09631 0.03344,0.0057 c 0.05272,0.0089 0.100249,0.03634 0.141387,0.08147 0.08279,0.0908 0.0852,0.228986 0.0056,0.322609 -0.02002,0.0236 -0.05367,0.0521 -0.07486,0.06333 -0.04156,0.0221 -0.136258,0.03367 -0.175728,0.02147 z m -0.02151,-0.185041 c 0.01518,-0.0082 0.02753,-0.01711 0.02748,-0.01984 -8.1e-5,-0.0046 -0.0289,-0.06147 -0.03425,-0.06751 -0.0041,-0.0054 -0.07018,0.03127 -0.07004,0.03923 2.76e-4,0.01582 0.03001,0.06331 0.03955,0.06314 0.0054,-9.4e-5 0.02206,-0.0069 0.03724,-0.01505 z m -9.777631,-1.603069 c -0.141275,-0.02422 -0.305581,-0.09012 -0.424142,-0.170077 l -0.06108,-0.04119 -0.02231,0.04665 c -0.08456,0.177336 -0.349102,0.18015 -0.440399,0.0046 -0.04813,-0.09238 -0.02905,-0.22359 0.04247,-0.293032 0.04205,-0.04073 0.112663,-0.06922 0.174526,-0.07035 l 0.05429,-9.47e-4 -0.0022,-0.126913 c -0.0086,-0.493692 0.191348,-0.848009 0.647938,-1.148116 0.170012,-0.111743 0.422108,-0.237587 0.649827,-0.324365 0.08988,-0.03426 0.09149,-0.03451 0.08701,-0.01375 -0.03567,0.167354 -0.09135,0.389397 -0.120044,0.478144 -0.124104,0.384199 -0.318235,0.649187 -0.685758,0.936165 -0.0707,0.05524 -0.286099,0.206552 -0.361193,0.253782 -0.07367,0.04632 -0.02938,0.02679 0.107663,-0.04754 0.293275,-0.159024 0.544441,-0.261158 0.756955,-0.307806 0.08773,-0.01923 0.138226,-0.02418 0.272744,-0.02663 0.170242,-0.0031 0.224587,0.0026 0.392267,0.04074 0.110681,0.02521 0.412539,0.11994 0.412707,0.129538 1.71e-4,0.0098 -0.217987,0.188369 -0.337714,0.276487 -0.277402,0.20417 -0.540624,0.337297 -0.768769,0.388818 -0.105657,0.02386 -0.283727,0.03133 -0.374869,0.01564 z m -0.637391,-0.150889 c 0.03799,-0.01894 0.03836,-0.0202 0.01677,-0.06346 l -0.01602,-0.03225 -0.03374,0.01602 c -0.01853,0.0088 -0.03547,0.01718 -0.03759,0.01862 -0.0039,0.0029 0.02945,0.07771 0.03456,0.07762 0.0013,-2.3e-5 0.01788,-0.0074 0.03601,-0.01652 z m 7.798537,-0.0069 c -0.251362,-0.02077 -0.515763,-0.126985 -0.837627,-0.336507 -0.108652,-0.07075 -0.361346,-0.25564 -0.412269,-0.301704 -0.0096,-0.0089 0.308191,-0.12163 0.43406,-0.15365 0.15854,-0.04033 0.240636,-0.04995 0.411982,-0.04829 0.128277,0.0013 0.17945,0.0062 0.271693,0.02565 0.206012,0.04371 0.408082,0.118807 0.69744,0.259185 0.09126,0.04427 0.163855,0.07847 0.161284,0.076 -0.0027,-0.0024 -0.07085,-0.04638 -0.151618,-0.09757 -0.653965,-0.414129 -0.875059,-0.70421 -1.056532,-1.386181 -0.02533,-0.09521 -0.0446,-0.174678 -0.04274,-0.176604 0.0053,-0.0053 0.205458,0.06589 0.328552,0.11678 0.48845,0.201972 0.806838,0.44885 0.967852,0.750473 0.09326,0.174591 0.1256,0.302297 0.136862,0.53934 l 0.0084,0.174405 0.06251,-3.92e-4 c 0.07649,-6.37e-4 0.124995,0.02112 0.178996,0.08028 0.11952,0.131077 0.06051,0.347283 -0.109043,0.399807 -0.06218,0.01925 -0.128799,0.01502 -0.183526,-0.01172 -0.0362,-0.01768 -0.114601,-0.09579 -0.115202,-0.11479 -9.68e-4,-0.03538 -0.01752,-0.0332 -0.08048,0.01051 -0.212614,0.14802 -0.439914,0.214136 -0.670609,0.195075 z m 0.944554,-0.211497 c 0.0078,-0.01911 0.01281,-0.03603 0.01144,-0.03765 -0.0013,-0.0017 -0.01898,-0.0092 -0.03848,-0.01703 l -0.03547,-0.01413 -0.01327,0.03325 c -0.01764,0.04452 -0.01705,0.04753 0.01313,0.05886 0.04195,0.01575 0.04877,0.01329 0.06332,-0.02333 z m -0.178906,-0.249173 c -3.9e-5,-0.0022 -0.0068,-0.0062 -0.01481,-0.009 -0.0082,-0.003 -0.01213,-0.0015 -0.0093,0.004 0.0056,0.0089 0.02375,0.0129 0.02361,0.0052 z M 22.320673,21.08556 c -0.06113,-0.02883 -0.08448,-0.102958 -0.05992,-0.190547 0.0088,-0.03317 0.0031,-0.05373 -0.08618,-0.308162 -0.07057,-0.199963 -0.100636,-0.273957 -0.1128,-0.277602 -0.0094,-0.0026 -0.02935,-0.01772 -0.04481,-0.03327 -0.02395,-0.02422 -0.02804,-0.03545 -0.0281,-0.07724 -1.2e-4,-0.0269 0.0017,-0.05745 0.0028,-0.06783 0.0035,-0.02616 -0.295374,-0.794612 -0.314084,-0.805956 -0.03397,-0.02061 -0.10014,-0.0839 -0.113478,-0.108408 -0.02209,-0.04098 -0.03326,-0.111086 -0.02521,-0.158082 0.0074,-0.04087 0.0031,-0.05053 -0.08659,-0.239092 -0.05162,-0.108076 -0.106605,-0.223048 -0.122095,-0.255496 l -0.02818,-0.05899 -0.04221,0.03847 c -0.142749,0.130142 -0.384222,0.08281 -0.474394,-0.09297 -0.02366,-0.04605 -0.02733,-0.06398 -0.02849,-0.137834 -0.0012,-0.07346 0.0024,-0.0913 0.02269,-0.132483 0.05159,-0.101986 0.144172,-0.167198 0.250871,-0.176761 0.244835,-0.02196 0.413847,0.226407 0.304713,0.447763 -0.01167,0.02488 -0.02045,0.04518 -0.01816,0.04514 0.0027,-4.7e-5 0.048,-0.02284 0.101693,-0.0507 l 0.09752,-0.05062 -0.05646,-0.108126 c -0.374668,-0.716906 -0.486951,-1.332217 -0.319322,-1.749883 0.185241,-0.46155 0.71112,-0.663133 1.394531,-0.534561 0.305253,0.05743 0.555216,0.134357 1.197909,0.368672 0.203682,0.07426 0.423303,0.152855 0.488027,0.174655 l 0.117654,0.03963 -0.0066,-0.07032 c -0.0034,-0.03869 -0.0174,-0.134159 -0.03006,-0.21219 -0.02699,-0.167449 -0.02942,-0.160765 0.07733,-0.214046 0.05797,-0.02899 0.100613,-0.0433 0.206511,-0.06947 0.02731,-0.0068 0.02648,-0.0078 -0.03847,-0.04007 -0.07608,-0.03797 -0.187552,-0.139124 -0.22933,-0.208124 -0.129021,-0.21328 -0.10534,-0.489547 0.05779,-0.67115 0.05579,-0.06209 0.191951,-0.258148 0.238748,-0.343723 0.03491,-0.06385 0.05972,-0.12954 0.05178,-0.137219 -0.01736,-0.01678 -0.23753,0.07844 -0.340013,0.14705 -0.03482,0.02335 -0.06857,0.04573 -0.07495,0.04978 -0.0093,0.0058 -0.01317,-0.06122 -0.01774,-0.32313 l -0.0058,-0.330481 0.09475,0.05979 c 0.131996,0.08327 0.343336,0.175728 0.342888,0.150057 -6.9e-5,-0.0039 -0.01142,-0.03835 -0.02513,-0.07663 -0.03321,-0.09226 -0.100689,-0.223104 -0.155152,-0.300876 l -0.04412,-0.06291 0.335258,-0.0059 c 0.265733,-0.0046 0.333822,-0.0034 0.328328,0.0061 -0.0039,0.0066 -0.02418,0.03982 -0.04523,0.07391 -0.0659,0.10682 -0.149723,0.304386 -0.148905,0.351254 3.23e-4,0.01848 0.003,0.01815 0.07606,-0.01003 0.08413,-0.03239 0.152131,-0.07013 0.270213,-0.150045 l 0.07933,-0.05364 0.0084,0.326406 c 0.0044,0.179526 0.0064,0.328292 0.0045,0.330591 -0.0027,0.0022 -0.02912,-0.01213 -0.05971,-0.03215 -0.113962,-0.0745 -0.373657,-0.179914 -0.381799,-0.155 -0.01148,0.03582 0.18978,0.33761 0.310389,0.464879 0.09916,0.104638 0.153376,0.23842 0.155931,0.384744 0.0023,0.132866 -0.03171,0.239623 -0.11102,0.34823 -0.04845,0.06642 -0.135082,0.138792 -0.205492,0.171702 l -0.04681,0.02188 0.05679,0.0107 c 0.0839,0.01587 0.182907,0.05173 0.240718,0.08726 0.04852,0.02986 0.05085,0.03293 0.04574,0.06303 -0.01816,0.107371 -0.04998,0.402338 -0.04326,0.402221 0.0094,-1.64e-4 0.353519,-0.135838 0.66305,-0.26156 0.561527,-0.228076 0.912582,-0.344864 1.200755,-0.399454 0.559731,-0.106045 1.016024,0.02429 1.248611,0.356651 0.121474,0.17368 0.177533,0.387664 0.172025,0.65747 -0.0074,0.348412 -0.109272,0.725577 -0.322146,1.189146 -0.04183,0.0912 -0.07287,0.168935 -0.06878,0.172728 0.01094,0.01083 0.194644,0.09027 0.190532,0.08266 -0.0603,-0.111649 -0.07243,-0.198242 -0.04027,-0.289217 0.02754,-0.0782 0.103208,-0.156445 0.180358,-0.186764 0.112161,-0.04406 0.252219,-0.0141 0.331717,0.07083 0.08069,0.08632 0.107929,0.206478 0.07196,0.31804 -0.0236,0.07298 -0.109566,0.161907 -0.181289,0.187385 -0.108225,0.03845 -0.228588,0.01771 -0.313179,-0.05399 l -0.03357,-0.02844 -0.110654,0.25363 -0.110654,0.25363 0.0065,0.06215 c 0.01125,0.105917 -0.02426,0.180978 -0.125318,0.260725 -0.01989,0.01569 -0.04987,0.09245 -0.160211,0.410582 -0.13554,0.390637 -0.135742,0.391361 -0.124394,0.436887 0.01445,0.05788 -0.0036,0.102144 -0.05577,0.139909 -0.03558,0.02555 -0.03752,0.03025 -0.121309,0.297771 l -0.0852,0.271794 0.01553,0.04219 c 0.01778,0.04806 0.01523,0.102164 -0.0083,0.137767 -0.0187,0.0297 -0.0679,0.06161 -0.09558,0.06215 -0.0121,2.29e-4 -0.09244,-0.01983 -0.180041,-0.04462 -0.853698,-0.241337 -1.701124,-0.35057 -2.489837,-0.320941 -0.728414,0.02736 -1.440498,0.157016 -2.220625,0.404295 -0.0857,0.02713 -0.163826,0.04942 -0.173693,0.04947 -0.0094,5.2e-5 -0.03238,-0.0067 -0.05,-0.01506 z m 0.377287,-1.481477 c 0.149463,-0.04425 0.297469,-0.146638 0.419455,-0.290182 l 0.049,-0.0576 -0.02872,-0.02769 c -0.05443,-0.05256 -0.06305,-0.123015 -0.01928,-0.157238 l 0.02215,-0.01726 -0.08066,-0.154284 c -0.04437,-0.08485 -0.100345,-0.179882 -0.124279,-0.211169 -0.07044,-0.09213 -0.156588,-0.118921 -0.193596,-0.06022 -0.02198,0.03476 -0.0077,0.09506 0.04895,0.216058 0.0275,0.05799 0.04844,0.110188 0.04652,0.11599 -0.0051,0.01805 -0.151299,-0.08094 -0.23547,-0.160099 -0.201525,-0.189497 -0.266586,-0.389288 -0.15964,-0.49023 0.05661,-0.05345 0.180742,-0.08928 0.279184,-0.08057 0.08967,0.0079 0.139825,0.02973 0.206223,0.0897 l 0.06119,0.05526 -0.04322,-0.08113 c -0.07284,-0.136832 -0.08229,-0.239241 -0.03553,-0.386961 0.02407,-0.07623 0.114858,-0.274611 0.13605,-0.29746 0.0092,-0.01051 0.02852,8.03e-4 0.107231,0.06628 0.169426,0.140476 0.252176,0.254574 0.275069,0.379265 0.009,0.05104 0.0082,0.08433 -0.0072,0.20142 -0.01845,0.144574 -0.01858,0.183565 -9.82e-4,0.09845 0.01416,-0.06662 0.06018,-0.164571 0.09735,-0.207209 0.09885,-0.113271 0.35621,-0.158009 0.448006,-0.07788 0.04465,0.039 0.0608,0.08636 0.06192,0.181447 10e-4,0.09818 -0.02009,0.181474 -0.07535,0.296578 -0.05526,0.115158 -0.16325,0.261915 -0.176025,0.239369 -0.0028,-0.0043 -3e-4,-0.05722 0.0046,-0.117622 0.01474,-0.171922 -0.0044,-0.234667 -0.07143,-0.233497 -0.04153,7.25e-4 -0.08907,0.05002 -0.112905,0.116983 -0.01832,0.05188 -0.03738,0.154107 -0.05334,0.28692 -0.0047,0.0416 -0.01058,0.08709 -0.01356,0.101107 -0.0036,0.02295 -8.38e-4,0.0265 0.03303,0.03601 0.05769,0.01618 0.07682,0.08019 0.04655,0.156203 -0.0078,0.01907 -0.01011,0.037 -0.006,0.0399 0.0041,0.003 0.02693,0.01817 0.05033,0.03396 0.06843,0.04614 0.173492,0.09301 0.263022,0.117264 0.100359,0.02716 0.238971,0.02874 0.32834,0.0037 0.129904,-0.03647 0.255095,-0.127304 0.346616,-0.251629 0.04938,-0.06708 0.12278,-0.2059 0.156473,-0.295919 l 0.01798,-0.04809 -0.03283,-0.01696 c -0.01805,-0.0094 -0.05009,-0.03507 -0.07131,-0.05721 l -0.03848,-0.04026 -0.05459,0.03848 c -0.07172,0.05057 -0.124247,0.11405 -0.194591,0.235524 -0.03171,0.05479 -0.06252,0.09969 -0.06844,0.09979 -0.0054,9.5e-5 -0.04473,-0.01347 -0.08644,-0.03014 l -0.07581,-0.03032 -0.01037,-0.439579 -0.01037,-0.439578 0.0696,-0.04874 c 0.03825,-0.0268 0.07296,-0.0488 0.07712,-0.04887 0.004,-6.9e-5 0.0185,0.01983 0.03183,0.04424 0.04208,0.0767 0.132827,0.184908 0.223904,0.266948 0.04835,0.0435 0.09239,0.07902 0.09804,0.07892 0.0054,-9.5e-5 0.02548,-0.01913 0.0443,-0.04227 l 0.03395,-0.0421 -0.06705,-0.09777 c -0.03683,-0.05378 -0.104526,-0.134762 -0.150434,-0.179961 l -0.08344,-0.08218 -0.0111,-0.481011 c -0.0059,-0.264558 -0.01573,-0.517012 -0.02054,-0.56103 l -0.0095,-0.08003 -0.104389,-0.03447 c -0.05747,-0.01895 -0.279537,-0.09524 -0.493598,-0.1695 -0.696272,-0.241542 -1.045594,-0.342798 -1.347438,-0.390564 -0.163486,-0.02586 -0.430798,-0.02378 -0.550952,0.0044 -0.301849,0.07057 -0.487392,0.245317 -0.558968,0.526438 -0.01786,0.07035 -0.01988,0.100773 -0.01699,0.258936 0.0037,0.197627 0.01697,0.278772 0.08314,0.503815 0.05861,0.200173 0.179967,0.489394 0.306159,0.730076 l 0.04423,0.08431 0.06634,-0.03483 c 0.0365,-0.01915 0.06717,-0.03352 0.06841,-0.03194 10e-4,0.0017 0.0099,0.02937 0.01909,0.06173 l 0.01703,0.0588 -0.02607,0.05458 c -0.04877,0.10203 -0.09269,0.266332 -0.103863,0.388541 l -0.0057,0.05907 0.03361,-5.87e-4 c 0.01855,-3.24e-4 0.04428,0.0032 0.05728,0.0079 0.02949,0.01065 0.03002,0.0101 0.08695,-0.109514 0.05201,-0.108957 0.08751,-0.215976 0.102061,-0.306902 0.0061,-0.0347 0.01099,-0.06386 0.01097,-0.06487 0.0039,-0.0076 0.171201,0.04038 0.177557,0.05101 0.0069,0.01252 0.292035,0.76351 0.301919,0.796785 0.0029,0.0091 -0.02045,0.03739 -0.06227,0.07586 -0.05558,0.05112 -0.06927,0.05957 -0.0822,0.05072 -0.08625,-0.05849 -0.198929,-0.100827 -0.317342,-0.119262 l -0.05891,-0.0092 -0.05496,0.05522 -0.05496,0.05522 0.06157,0.05401 c 0.125879,0.110342 0.276604,0.194501 0.407044,0.227255 0.09087,0.0228 0.241356,0.01978 0.330684,-0.0068 z m 4.68081,-0.0807 c 0.137731,-0.03786 0.282349,-0.124836 0.402136,-0.241858 l 0.06332,-0.06187 -0.03647,-0.0255 c -0.02014,-0.01405 -0.04528,-0.03705 -0.05588,-0.05113 l -0.0194,-0.02562 -0.0963,0.02117 c -0.09335,0.02053 -0.204746,0.0673 -0.263506,0.110712 -0.03305,0.0244 -0.04213,0.02045 -0.112846,-0.04916 -0.05198,-0.05117 -0.05198,-0.05132 -0.04172,-0.08724 0.0064,-0.0198 0.06832,-0.206664 0.13913,-0.415268 l 0.128747,-0.379286 0.08336,-0.02252 c 0.04589,-0.01236 0.08486,-0.02116 0.08664,-0.01948 0.0013,0.0017 0.01147,0.04101 0.02196,0.08738 0.02158,0.09681 0.07527,0.230339 0.131543,0.326949 0.03839,0.06589 0.03921,0.06659 0.06796,0.05778 0.01605,-0.0049 0.04326,-0.0093 0.06033,-0.0096 0.02983,-5.21e-4 0.03089,-0.0018 0.02567,-0.03111 -0.03544,-0.197489 -0.05921,-0.280284 -0.113768,-0.394577 -0.03405,-0.0714 -0.03449,-0.07379 -0.02341,-0.123828 0.01708,-0.07701 0.01628,-0.07667 0.08826,-0.04276 0.06073,0.02859 0.06464,0.02927 0.07619,0.01289 0.0065,-0.0095 0.04519,-0.09157 0.08555,-0.1824 0.21263,-0.479072 0.301847,-0.822436 0.295581,-1.137576 -0.0029,-0.145329 -0.02048,-0.241091 -0.06313,-0.343287 -0.147601,-0.354277 -0.546692,-0.499419 -1.089737,-0.396316 -0.328249,0.06232 -0.577697,0.144255 -1.374405,0.451419 -0.20361,0.07851 -0.410825,0.156934 -0.460479,0.174299 l -0.09033,0.03158 -0.0045,0.05395 c -0.01493,0.169014 -0.01798,0.486946 -0.0071,0.764692 l 0.01202,0.304775 -0.08684,0.09281 c -0.07866,0.08403 -0.20102,0.256867 -0.20056,0.28325 1.01e-4,0.0058 0.01727,0.02666 0.03804,0.04632 l 0.03786,0.03574 0.03501,-0.02772 c 0.09468,-0.07488 0.218091,-0.227031 0.295142,-0.363936 0.0091,-0.01716 0.01438,-0.01559 0.08075,0.02769 l 0.07044,0.04595 0.01035,0.437997 c 0.0055,0.240902 0.007,0.44123 0.0038,0.445168 -0.0039,0.004 -0.04089,0.02233 -0.08224,0.04088 l -0.07523,0.0337 -0.06275,-0.0983 c -0.07104,-0.111286 -0.145835,-0.194601 -0.21513,-0.239527 l -0.04718,-0.03062 -0.03772,0.04152 c -0.02085,0.02283 -0.05145,0.04878 -0.06809,0.05763 -0.01679,0.0089 -0.03033,0.01873 -0.03027,0.02194 3e-4,0.01722 0.07893,0.177771 0.120725,0.246341 0.06478,0.106328 0.197093,0.234394 0.28947,0.280053 0.213016,0.105272 0.463895,0.07522 0.700782,-0.08394 0.03628,-0.02439 0.06584,-0.04814 0.06576,-0.0528 -8.2e-5,-0.0047 -0.0071,-0.02359 -0.01485,-0.04209 -0.02968,-0.06752 -0.01165,-0.128966 0.04447,-0.148424 0.01817,-0.0063 0.0329,-0.01734 0.03278,-0.02444 -5.36e-4,-0.0307 -0.04424,-0.277657 -0.05817,-0.329007 -0.03218,-0.118404 -0.08331,-0.182537 -0.144679,-0.181466 -0.06344,0.0011 -0.07943,0.07072 -0.05686,0.247113 0.0077,0.05727 0.01,0.107069 0.0073,0.110638 -0.01479,0.01497 -0.124853,-0.128578 -0.18073,-0.235781 -0.0573,-0.109792 -0.07841,-0.178888 -0.08539,-0.278084 -0.0055,-0.08317 -0.0044,-0.09527 0.01724,-0.144549 0.02107,-0.04829 0.02886,-0.05637 0.07619,-0.07905 0.04719,-0.02262 0.06127,-0.02496 0.134429,-0.02222 0.138656,0.0051 0.250972,0.05933 0.309478,0.149332 0.01823,0.02816 0.04561,0.08687 0.06063,0.130478 0.01501,0.0436 0.02825,0.07814 0.02943,0.07675 9.78e-4,-0.0013 -0.0076,-0.05119 -0.01793,-0.110694 -0.01332,-0.07001 -0.01949,-0.138557 -0.01845,-0.194376 0.0014,-0.07687 0.0051,-0.09382 0.03505,-0.156295 0.01868,-0.03932 0.0589,-0.09923 0.09159,-0.136544 0.05774,-0.06596 0.218609,-0.216704 0.23143,-0.216928 0.0121,-2.11e-4 0.125008,0.222143 0.154904,0.306641 0.05104,0.144 0.04129,0.27068 -0.03123,0.405785 -0.01471,0.02743 -0.02679,0.05195 -0.02674,0.05452 4.2e-5,0.0024 0.01722,-0.01466 0.03832,-0.03828 0.02188,-0.02452 0.06462,-0.05653 0.09993,-0.07466 0.05837,-0.02997 0.06721,-0.03177 0.160988,-0.03261 0.106461,-8.58e-4 0.154683,0.01061 0.221229,0.05288 0.131597,0.0836 0.0819,0.301627 -0.115142,0.504827 -0.07052,0.07272 -0.204746,0.174392 -0.230873,0.174848 -0.01492,2.6e-4 -0.019,0.01283 0.04618,-0.142322 0.05266,-0.125249 0.05287,-0.19834 2.4e-4,-0.215447 -0.04273,-0.01403 -0.08705,0.0037 -0.129775,0.05164 -0.0509,0.05725 -0.07687,0.101809 -0.15557,0.267434 l -0.06756,0.142315 0.02494,0.0192 c 0.04211,0.03238 0.03468,0.0999 -0.01741,0.157714 l -0.02308,0.02569 0.02024,0.02749 c 0.03388,0.04594 0.17009,0.164629 0.240638,0.209768 0.07002,0.04479 0.149858,0.07917 0.231525,0.09965 0.07318,0.0184 0.225619,0.01399 0.308921,-0.0089 z m -6.676063,-1.54843 c -0.088,-0.02714 -0.167813,-0.103507 -0.200903,-0.192331 -0.03442,-0.09252 -0.01198,-0.222345 0.05257,-0.300222 0.06123,-0.07406 0.13634,-0.108345 0.241894,-0.11035 0.05416,-0.001 0.07562,0.0037 0.12496,0.02681 0.233369,0.109864 0.238806,0.440565 0.009,0.556368 -0.0561,0.02833 -0.168341,0.03802 -0.227761,0.01973 z m 8.108278,-0.13753 c -0.08296,-0.02375 -0.16635,-0.09518 -0.203928,-0.174669 -0.03169,-0.06714 -0.03188,-0.177709 -3.35e-4,-0.248366 0.02924,-0.06543 0.08151,-0.121195 0.142918,-0.152791 0.03891,-0.02 0.05981,-0.02389 0.13564,-0.02521 0.07459,-0.0013 0.0971,0.0019 0.134242,0.01945 0.06222,0.02934 0.119814,0.08633 0.150048,0.148659 0.0371,0.07646 0.03825,0.181475 0.0032,0.258072 -0.03135,0.06788 -0.100777,0.133968 -0.169287,0.160939 -0.0526,0.02076 -0.14512,0.02745 -0.19237,0.01385 z m -8.234972,-0.544008 c -0.06533,-0.02202 -0.131209,-0.07676 -0.168246,-0.139822 -0.02536,-0.0431 -0.03054,-0.06268 -0.03512,-0.132724 -0.0053,-0.07372 -0.0028,-0.08787 0.01884,-0.137759 0.110906,-0.254539 0.470351,-0.251885 0.572143,0.0042 0.04219,0.106224 0.01636,0.2438 -0.06262,0.32492 -0.08175,0.08465 -0.215585,0.118065 -0.325003,0.08116 z m 8.301234,-0.147099 c -0.183654,-0.06902 -0.259229,-0.291981 -0.153985,-0.454265 0.0597,-0.09205 0.144318,-0.14034 0.250679,-0.143073 0.124033,-0.0032 0.226046,0.05612 0.281308,0.163592 0.0288,0.05595 0.03271,0.07215 0.03375,0.138989 0.0014,0.09114 -0.02037,0.14947 -0.07911,0.212308 -0.06019,0.06432 -0.11806,0.09116 -0.207799,0.09651 -0.05936,0.0034 -0.08589,4.99e-4 -0.124737,-0.01406 z M 20.725988,16.60631 c -0.088,-0.02714 -0.167813,-0.103507 -0.200902,-0.19233 -0.03455,-0.09252 -0.01198,-0.222346 0.05257,-0.300223 0.06096,-0.07375 0.13638,-0.108346 0.240698,-0.110328 0.110607,-0.0021 0.211615,0.05739 0.268819,0.158241 0.03912,0.06903 0.04703,0.176097 0.01871,0.255159 -0.02397,0.06709 -0.09215,0.142845 -0.155069,0.172131 -0.05534,0.02581 -0.169074,0.03458 -0.224925,0.01737 z m 8.013944,-0.135883 c -0.08296,-0.02374 -0.16568,-0.09373 -0.202894,-0.171626 -0.0173,-0.03618 -0.02263,-0.06394 -0.02378,-0.12245 -0.0013,-0.06684 0.0025,-0.08317 0.02888,-0.140078 0.05484,-0.116495 0.153414,-0.174533 0.289365,-0.170389 0.08649,0.0027 0.142739,0.02566 0.202258,0.0828 0.08437,0.08095 0.113323,0.191962 0.08039,0.307584 -0.01659,0.05842 -0.02756,0.07696 -0.07219,0.123291 -0.0647,0.06703 -0.132475,0.09712 -0.219587,0.09743 -0.03226,2.14e-4 -0.06929,-0.0028 -0.08238,-0.0065 z m -3.055148,-0.155645 c -0.104526,-0.01149 -0.215083,-0.09816 -0.249682,-0.195642 -0.02772,-0.07822 -0.02386,-0.165386 0.01049,-0.238542 0.05574,-0.118352 0.160326,-0.182203 0.289923,-0.176968 0.116909,0.0047 0.207559,0.06146 0.264632,0.165643 0.02333,0.0426 0.02698,0.05946 0.02828,0.133637 0.0013,0.06916 -0.0024,0.09297 -0.019,0.128426 -0.06119,0.129916 -0.183506,0.198998 -0.324724,0.183445 z m -1.891401,0.01662 c -0.06411,-0.02257 -0.154791,-0.113078 -0.178225,-0.177853 -0.05834,-0.161149 0.01925,-0.337583 0.175672,-0.399766 0.04272,-0.01696 0.06767,-0.02068 0.12417,-0.01838 0.118123,0.0048 0.213591,0.06658 0.266135,0.172376 0.02132,0.04294 0.02573,0.0647 0.0269,0.131632 0.0013,0.07345 -0.0012,0.08524 -0.02995,0.140484 -0.05658,0.108795 -0.149479,0.165148 -0.27382,0.166055 -0.03898,3.3e-4 -0.08669,-0.006 -0.111032,-0.01454 z m -0.607641,-0.216471 c -0.09137,-0.02789 -0.177829,-0.106559 -0.207469,-0.188789 -0.03871,-0.107253 -0.01767,-0.226794 0.05455,-0.309919 0.0232,-0.02678 0.06374,-0.06047 0.08998,-0.07484 0.04194,-0.02296 0.05856,-0.02632 0.137341,-0.02783 0.07473,-0.0014 0.09697,0.0018 0.134239,0.01931 0.06208,0.02927 0.119678,0.08621 0.150304,0.148654 0.03694,0.07542 0.03878,0.180922 0.0045,0.25754 -0.0506,0.112979 -0.140463,0.174072 -0.264373,0.179674 -0.04152,0.0017 -0.08604,2.02e-4 -0.09915,-0.0038 z m 3.073805,-0.05785 c -0.176215,-0.06185 -0.261541,-0.249635 -0.189708,-0.417465 0.08383,-0.196044 0.344125,-0.248054 0.497855,-0.0995 0.06441,0.06231 0.08659,0.116379 0.08833,0.215963 0.0012,0.07106 -0.0024,0.09265 -0.02081,0.132465 -0.02852,0.06065 -0.08464,0.118789 -0.143922,0.14916 -0.0561,0.02871 -0.176448,0.03879 -0.231692,0.01939 z m -5.069515,0.05072 c -0.08611,-0.02697 -0.155313,-0.08438 -0.196847,-0.163251 -0.03281,-0.06224 -0.0388,-0.166668 -0.01354,-0.237035 0.05269,-0.147156 0.208388,-0.233823 0.357179,-0.198746 0.143096,0.03374 0.237411,0.147273 0.241089,0.290227 0.0043,0.169023 -0.115304,0.302985 -0.281924,0.315561 -0.04176,0.0031 -0.08254,4.41e-4 -0.105922,-0.0068 z m 7.072698,-0.123805 c -0.08448,-0.02613 -0.159226,-0.08985 -0.196492,-0.167591 -0.03432,-0.07155 -0.03434,-0.188104 -5.54e-4,-0.260977 0.0696,-0.148205 0.25353,-0.219357 0.400561,-0.154958 0.0695,0.03047 0.137421,0.09836 0.164414,0.164519 0.06307,0.154469 -0.0024,0.326392 -0.152809,0.400238 -0.05411,0.02658 -0.160366,0.03584 -0.215555,0.01878 z m -5.724218,-0.03816 c -0.08113,-0.01891 -0.163506,-0.08322 -0.20616,-0.160856 -0.02277,-0.0414 -0.02602,-0.05795 -0.02739,-0.136714 -0.0014,-0.07892 0.001,-0.09528 0.02275,-0.137208 0.03158,-0.06189 0.09277,-0.122696 0.151456,-0.1504 0.06907,-0.03264 0.178895,-0.03338 0.250004,-0.0016 0.063,0.02811 0.124644,0.08568 0.155273,0.145262 0.03229,0.0628 0.03514,0.203153 0.0053,0.266315 -0.02787,0.05915 -0.08969,0.122024 -0.147537,0.150051 -0.05453,0.02646 -0.148563,0.03809 -0.203652,0.02525 z m 4.391412,-0.08015 c -0.09448,-0.0291 -0.156095,-0.07916 -0.200412,-0.162678 -0.02363,-0.04467 -0.02744,-0.06191 -0.02824,-0.131594 -7.25e-4,-0.06077 0.0038,-0.09105 0.01839,-0.125054 0.027,-0.06292 0.08402,-0.123337 0.147602,-0.156355 0.0457,-0.02375 0.06591,-0.0284 0.129615,-0.02993 0.06223,-0.0014 0.08474,0.0024 0.128234,0.02182 0.0752,0.03368 0.118664,0.07438 0.155111,0.145304 0.07779,0.151239 0.02019,0.332641 -0.130147,0.409931 -0.06942,0.03573 -0.159077,0.04734 -0.220078,0.02854 z m -5.101614,0.05183 c -0.05488,-0.01708 -0.07838,-0.03063 -0.126172,-0.07319 -0.06186,-0.05504 -0.09171,-0.116652 -0.09818,-0.202821 -0.0072,-0.100518 0.01659,-0.166291 0.08819,-0.239234 0.04517,-0.04603 0.06419,-0.05807 0.121006,-0.07643 0.113767,-0.03674 0.225969,-0.01145 0.309637,0.06978 0.06605,0.0642 0.08517,0.111457 0.087,0.216447 0.0018,0.104213 -0.01703,0.15682 -0.07896,0.220983 -0.07277,0.07539 -0.209198,0.113462 -0.302588,0.08448 z m 5.795812,-0.100886 c -0.08563,-0.02261 -0.163949,-0.08853 -0.204012,-0.171709 -0.02958,-0.06132 -0.0316,-0.185468 -0.0041,-0.248056 0.06801,-0.154811 0.256463,-0.230755 0.407352,-0.164126 0.194067,0.08568 0.249102,0.327262 0.111526,0.489559 -0.06626,0.07811 -0.208577,0.121316 -0.310778,0.09433 z"
       id="path5752" />
    <text
       xml:space="preserve"
       id="text34504"
       style="font-weight:bold;font-size:4.93889px;font-family:Helvetica;-inkscape-font-specification:'Helvetica Bold';text-align:justify;white-space:pre;display:inline;fill:#223264;fill-opacity:1;stroke-width:18.8976;stroke-linecap:round"><textPath
         xlink:href="#path36016"
         id="textPath36383"
         style="font-style:normal;font-variant:normal;font-weight:bold;font-stretch:normal;font-size:4.93889px;font-family:'Acherus Feral';-inkscape-font-specification:'Acherus Feral Bold';fill:#223264;fill-opacity:1">ECHQ</textPath></text>
    <path
       id="path36016"
       style="display:inline;fill:none;stroke:none;stroke-width:0.115928;stroke-linecap:round"
       d="M 18.418584,11.799717 A 14.750001,14.750002 0.5 0 1 38.200281,18.418581 14.750001,14.750002 0.5 0 1 31.581416,38.200283 14.750001,14.750002 0.5 0 1 11.799717,31.581418 14.750001,14.750002 0.5 0 1 18.418584,11.799717 Z" />
    <text
       xml:space="preserve"
       id="text36616"
       style="font-style:normal;font-variant:normal;font-weight:bold;font-stretch:normal;font-size:4.9389px;font-family:'Acherus Feral';-inkscape-font-specification:'Acherus Feral Bold';text-align:justify;white-space:pre;display:inline;fill:none;fill-opacity:1;stroke:#00d90e;stroke-width:0.377953;stroke-linecap:round;stroke-dasharray:none;stroke-opacity:1"><textPath
         xlink:href="#path36016-0"
         id="textPath36624"><tspan
           style="fill:#223264;fill-opacity:1;stroke:none"
           id="tspan36622">Monitored Device</tspan></textPath></text>
    <path
       id="path36016-0"
       style="display:inline;fill:none;stroke:none;stroke-width:0.143437;stroke-linecap:round;stroke-opacity:1"
       d="M 8.393204,32.568147 A 18.249997,18.250004 74.213513 0 0 32.568155,41.606793 18.249997,18.250004 74.213513 0 0 41.606791,17.431843 18.249997,18.250004 74.213513 0 0 17.431845,8.393206 18.249997,18.250004 74.213513 0 0 8.393204,32.568147 Z" />
  </g>
</svg>
