<?xml version="1.0" encoding="UTF-8" standalone="no"?>
<!-- Created with Inkscape (http://www.inkscape.org/) -->

<svg
   width="162.061mm"
   height="218.797mm"
   viewBox="0 0 162.061 218.797"
   version="1.1"
   id="svg27684"
   inkscape:version="1.2.1 (9c6d41e410, 2022-07-14)"
   sodipodi:docname="favicon.svg"
   inkscape:export-filename="ECHQ-compact.png"
   inkscape:export-xdpi="300"
   inkscape:export-ydpi="300"
   xml:space="preserve"
   xmlns:inkscape="http://www.inkscape.org/namespaces/inkscape"
   xmlns:sodipodi="http://sodipodi.sourceforge.net/DTD/sodipodi-0.dtd"
   xmlns="http://www.w3.org/2000/svg"
   xmlns:svg="http://www.w3.org/2000/svg"><sodipodi:namedview
     id="namedview27686"
     pagecolor="#ffffff"
     bordercolor="#000000"
     borderopacity="0.25"
     inkscape:showpageshadow="2"
     inkscape:pageopacity="0.0"
     inkscape:pagecheckerboard="0"
     inkscape:deskcolor="#d1d1d1"
     inkscape:document-units="mm"
     showgrid="false"
     inkscape:zoom="0.76969697"
     inkscape:cx="-80.551181"
     inkscape:cy="431.98819"
     inkscape:window-width="1920"
     inkscape:window-height="991"
     inkscape:window-x="-9"
     inkscape:window-y="-9"
     inkscape:window-maximized="1"
     inkscape:current-layer="layer1" /><defs
     id="defs27681"><clipPath
   clipPathUnits="userSpaceOnUse"
   id="clipPath1541"><g
     id="g1545"
     style="stroke-width:0.352777"
     transform="matrix(2.8346458,0,0,-2.8346458,-78.584543,260.26421)"><path
       d="m 17.25487,116.09522 h 97.40018 V 88.429679 H 17.25487 Z"
       id="path1543"
       inkscape:connector-curvature="0"
       style="stroke-width:0.352777" /></g></clipPath><clipPath
   clipPathUnits="userSpaceOnUse"
   id="clipPath1535"><g
     id="g1539"
     style="stroke-width:0.352777"
     transform="matrix(2.8346458,0,0,-2.8346458,-58.019943,316.25771)"><path
       d="m 17.25487,116.09522 h 97.40018 V 88.429679 H 17.25487 Z"
       id="path1537"
       inkscape:connector-curvature="0"
       style="stroke-width:0.352777" /></g></clipPath><clipPath
   clipPathUnits="userSpaceOnUse"
   id="clipPath1529"><g
     id="g1533"
     style="stroke-width:0.352777"
     transform="matrix(2.8346458,0,0,-2.8346458,-58.019943,316.25771)"><path
       d="m 17.25487,116.09522 h 97.40018 V 88.429679 H 17.25487 Z"
       id="path1531"
       inkscape:connector-curvature="0"
       style="stroke-width:0.352777" /></g></clipPath><clipPath
   clipPathUnits="userSpaceOnUse"
   id="clipPath1523"><g
     id="g1527"
     style="stroke-width:0.352777"
     transform="matrix(2.8346458,0,0,-2.8346458,-58.019943,316.25771)"><path
       d="m 17.25487,116.09522 h 97.40018 V 88.429679 H 17.25487 Z"
       id="path1525"
       inkscape:connector-curvature="0"
       style="stroke-width:0.352777" /></g></clipPath><clipPath
   clipPathUnits="userSpaceOnUse"
   id="clipPath184"><path
     d="m 465.024,387.738 h 276.095 v 77.944 H 465.024 Z"
     id="path182"
     inkscape:connector-curvature="0" /></clipPath><clipPath
   clipPathUnits="userSpaceOnUse"
   id="clipPath200"><path
     d="m 465.024,387.499 h 276.095 v 78.422 H 465.024 Z"
     id="path198"
     inkscape:connector-curvature="0" /></clipPath><clipPath
   clipPathUnits="userSpaceOnUse"
   id="clipPath300"><path
     d="m 465.024,387.738 h 276.095 v 77.944 H 465.024 Z"
     id="path298"
     inkscape:connector-curvature="0" /></clipPath><clipPath
   clipPathUnits="userSpaceOnUse"
   id="clipPath316"><path
     d="m 465.024,387.499 h 276.095 v 78.422 H 465.024 Z"
     id="path314"
     inkscape:connector-curvature="0" /></clipPath><clipPath
   clipPathUnits="userSpaceOnUse"
   id="clipPath348"><path
     d="m 465.024,387.738 h 276.095 v 77.944 H 465.024 Z"
     id="path346"
     inkscape:connector-curvature="0" /></clipPath><clipPath
   clipPathUnits="userSpaceOnUse"
   id="clipPath2443"><g
     id="g2447"
     style="stroke-width:0.352777"
     transform="matrix(2.8346458,0,0,-2.8346458,-52.766443,289.11802)"><path
       d="m 17.25487,116.09522 h 97.40018 V 88.429679 H 17.25487 Z"
       id="path2445"
       inkscape:connector-curvature="0"
       style="stroke-width:0.352777" /></g></clipPath><clipPath
   clipPathUnits="userSpaceOnUse"
   id="clipPath2437"><g
     id="g2441"
     style="stroke-width:0.352777"
     transform="matrix(2.8346458,0,0,-2.8346458,-59.398142,283.04531)"><path
       d="m 17.25487,116.09522 h 97.40018 V 88.429679 H 17.25487 Z"
       id="path2439"
       inkscape:connector-curvature="0"
       style="stroke-width:0.352777" /></g></clipPath><clipPath
   clipPathUnits="userSpaceOnUse"
   id="clipPath2431"><g
     id="g2435"
     style="stroke-width:0.352777"
     transform="matrix(2.8346458,0,0,-2.8346458,-74.020942,276.00281)"><path
       d="m 17.25487,116.09522 h 97.40018 V 88.429679 H 17.25487 Z"
       id="path2433"
       inkscape:connector-curvature="0"
       style="stroke-width:0.352777" /></g></clipPath><clipPath
   clipPathUnits="userSpaceOnUse"
   id="clipPath2425"><g
     id="g2429"
     style="stroke-width:0.352777"
     transform="matrix(2.8346458,0,0,-2.8346458,-66.419641,277.96541)"><path
       d="m 17.25487,116.09522 h 97.40018 V 88.429679 H 17.25487 Z"
       id="path2427"
       inkscape:connector-curvature="0"
       style="stroke-width:0.352777" /></g></clipPath><clipPath
   clipPathUnits="userSpaceOnUse"
   id="clipPath2419"><g
     id="g2423"
     style="stroke-width:0.352777"
     transform="matrix(2.8346458,0,0,-2.8346458,-55.753842,308.73252)"><path
       d="m 17.25487,116.09522 h 97.40018 V 88.429679 H 17.25487 Z"
       id="path2421"
       inkscape:connector-curvature="0"
       style="stroke-width:0.352777" /></g></clipPath><clipPath
   clipPathUnits="userSpaceOnUse"
   id="clipPath2413"><g
     id="g2417"
     style="stroke-width:0.352777"
     transform="matrix(2.8346458,0,0,-2.8346458,-49.852543,310.10242)"><path
       d="m 17.25487,116.09522 h 97.40018 V 88.429679 H 17.25487 Z"
       id="path2415"
       inkscape:connector-curvature="0"
       style="stroke-width:0.352777" /></g></clipPath><clipPath
   clipPathUnits="userSpaceOnUse"
   id="clipPath2407"><g
     id="g2411"
     style="stroke-width:0.352777"
     transform="matrix(2.8346458,0,0,-2.8346458,-64.760844,323.13062)"><path
       d="m 17.25487,116.09522 h 97.40018 V 88.429679 H 17.25487 Z"
       id="path2409"
       inkscape:connector-curvature="0"
       style="stroke-width:0.352777" /></g></clipPath><clipPath
   clipPathUnits="userSpaceOnUse"
   id="clipPath2401"><g
     id="g2405"
     style="stroke-width:0.352777"
     transform="matrix(2.8346458,0,0,-2.8346458,-72.899344,327.3509)"><path
       d="m 17.25487,116.09522 h 97.40018 V 88.429679 H 17.25487 Z"
       id="path2403"
       inkscape:connector-curvature="0"
       style="stroke-width:0.352777" /></g></clipPath><clipPath
   clipPathUnits="userSpaceOnUse"
   id="clipPath2395"><g
     id="g2399"
     style="stroke-width:0.352777"
     transform="matrix(2.8346458,0,0,-2.8346458,-57.157944,316.8999)"><path
       d="m 17.25487,116.09522 h 97.40018 V 88.429679 H 17.25487 Z"
       id="path2397"
       inkscape:connector-curvature="0"
       style="stroke-width:0.352777" /></g></clipPath><clipPath
   clipPathUnits="userSpaceOnUse"
   id="clipPath2389"><g
     id="g2393"
     style="stroke-width:0.352777"
     transform="matrix(2.8346458,0,0,-2.8346458,-51.823342,307.851)"><path
       d="m 17.25487,116.09522 h 97.40018 V 88.429679 H 17.25487 Z"
       id="path2391"
       inkscape:connector-curvature="0"
       style="stroke-width:0.352777" /></g></clipPath><clipPath
   clipPathUnits="userSpaceOnUse"
   id="clipPath2383"><g
     id="g2387"
     style="stroke-width:0.352777"
     transform="matrix(2.8346458,0,0,-2.8346458,-51.542842,298.25221)"><path
       d="m 17.25487,116.09522 h 97.40018 V 88.429679 H 17.25487 Z"
       id="path2385"
       inkscape:connector-curvature="0"
       style="stroke-width:0.352777" /></g></clipPath><clipPath
   clipPathUnits="userSpaceOnUse"
   id="clipPath2377"><g
     id="g2381"
     style="stroke-width:0.352777"
     transform="matrix(2.8346458,0,0,-2.8346458,-54.963242,290.92431)"><path
       d="m 17.25487,116.09522 h 97.40018 V 88.429679 H 17.25487 Z"
       id="path2379"
       inkscape:connector-curvature="0"
       style="stroke-width:0.352777" /></g></clipPath><clipPath
   clipPathUnits="userSpaceOnUse"
   id="clipPath2371"><g
     id="g2375"
     style="stroke-width:0.352777"
     transform="matrix(2.8346458,0,0,-2.8346458,-61.539742,283.70643)"><path
       d="m 17.25487,116.09522 h 97.40018 V 88.429679 H 17.25487 Z"
       id="path2373"
       inkscape:connector-curvature="0"
       style="stroke-width:0.352777" /></g></clipPath><clipPath
   clipPathUnits="userSpaceOnUse"
   id="clipPath2365"><g
     id="g2369"
     style="stroke-width:0.352777"
     transform="matrix(2.8346458,0,0,-2.8346458,-67.666242,279.85221)"><path
       d="m 17.25487,116.09522 h 97.40018 V 88.429679 H 17.25487 Z"
       id="path2367"
       inkscape:connector-curvature="0"
       style="stroke-width:0.352777" /></g></clipPath><clipPath
   clipPathUnits="userSpaceOnUse"
   id="clipPath2359"><g
     id="g2363"
     style="stroke-width:0.352777"
     transform="matrix(2.8346458,0,0,-2.8346458,-69.902143,279.34631)"><path
       d="m 17.25487,116.09522 h 97.40018 V 88.429679 H 17.25487 Z"
       id="path2361"
       inkscape:connector-curvature="0"
       style="stroke-width:0.352777" /></g></clipPath><clipPath
   clipPathUnits="userSpaceOnUse"
   id="clipPath2353"><g
     id="g2357"
     style="stroke-width:0.352777"
     transform="matrix(2.8346458,0,0,-2.8346458,-77.140544,326.04671)"><path
       d="m 17.25487,116.09522 h 97.40018 V 88.429679 H 17.25487 Z"
       id="path2355"
       inkscape:connector-curvature="0"
       style="stroke-width:0.352777" /></g></clipPath><clipPath
   clipPathUnits="userSpaceOnUse"
   id="clipPath2347"><g
     id="g2351"
     style="stroke-width:0.352777"
     transform="matrix(2.8346458,0,0,-2.8346458,-76.576543,326.04671)"><path
       d="m 17.25487,116.09522 h 97.40018 V 88.429679 H 17.25487 Z"
       id="path2349"
       inkscape:connector-curvature="0"
       style="stroke-width:0.352777" /></g></clipPath><clipPath
   clipPathUnits="userSpaceOnUse"
   id="clipPath2341"><g
     id="g2345"
     style="stroke-width:0.352777"
     transform="matrix(2.8346458,0,0,-2.8346458,-92.461543,310.69432)"><path
       d="m 17.25487,116.09522 h 97.40018 V 88.429679 H 17.25487 Z"
       id="path2343"
       inkscape:connector-curvature="0"
       style="stroke-width:0.352777" /></g></clipPath><clipPath
   clipPathUnits="userSpaceOnUse"
   id="clipPath2335"><g
     id="g2339"
     style="stroke-width:0.352777"
     transform="matrix(2.8346458,0,0,-2.8346458,-60.383244,310.69432)"><path
       d="m 17.25487,116.09522 h 97.40018 V 88.429679 H 17.25487 Z"
       id="path2337"
       inkscape:connector-curvature="0"
       style="stroke-width:0.352777" /></g></clipPath><clipPath
   clipPathUnits="userSpaceOnUse"
   id="clipPath2329"><g
     id="g2333"
     style="stroke-width:0.352777"
     transform="matrix(2.8346458,0,0,-2.8346458,-73.451442,280.85821)"><path
       d="m 17.25487,116.09522 h 97.40018 V 88.429679 H 17.25487 Z"
       id="path2331"
       inkscape:connector-curvature="0"
       style="stroke-width:0.352777" /></g></clipPath><clipPath
   clipPathUnits="userSpaceOnUse"
   id="clipPath23857"><g
     id="g23863"
     style="stroke-width:0.999999"><g
       id="g23861"
       style="stroke-width:0.394216"
       transform="matrix(2.5366802,0,0,2.5366802,-18.694571,-212.50254)"><path
         d="m 17.25487,116.09522 h 97.40018 V 88.429679 H 17.25487 Z"
         id="path23859"
         inkscape:connector-curvature="0"
         style="stroke-width:0.394216" /></g></g></clipPath><clipPath
   clipPathUnits="userSpaceOnUse"
   id="clipPath184-3"><path
     d="m 465.024,387.738 h 276.095 v 77.944 H 465.024 Z"
     id="path182-2"
     inkscape:connector-curvature="0" /></clipPath><clipPath
   clipPathUnits="userSpaceOnUse"
   id="clipPath200-1"><path
     d="m 465.024,387.499 h 276.095 v 78.422 H 465.024 Z"
     id="path198-1"
     inkscape:connector-curvature="0" /></clipPath><clipPath
   clipPathUnits="userSpaceOnUse"
   id="clipPath300-8"><path
     d="m 465.024,387.738 h 276.095 v 77.944 H 465.024 Z"
     id="path298-6"
     inkscape:connector-curvature="0" /></clipPath><clipPath
   clipPathUnits="userSpaceOnUse"
   id="clipPath316-9"><path
     d="m 465.024,387.499 h 276.095 v 78.422 H 465.024 Z"
     id="path314-9"
     inkscape:connector-curvature="0" /></clipPath><clipPath
   clipPathUnits="userSpaceOnUse"
   id="clipPath348-5"><path
     d="m 465.024,387.738 h 276.095 v 77.944 H 465.024 Z"
     id="path346-6"
     inkscape:connector-curvature="0" /></clipPath><clipPath
   clipPathUnits="userSpaceOnUse"
   id="clipPath2563"><g
     id="g2567"
     style="stroke-width:1"
     transform="translate(-474.13252,-400.3301)"><path
       d="m 465.024,387.499 h 276.095 v 78.422 H 465.024 Z"
       id="path2565"
       inkscape:connector-curvature="0"
       style="stroke-width:1" /></g></clipPath><clipPath
   clipPathUnits="userSpaceOnUse"
   id="clipPath2569"><g
     id="g2573"
     style="stroke-width:1"
     transform="translate(-474.13252,-400.3301)"><path
       d="m 465.024,387.499 h 276.095 v 78.422 H 465.024 Z"
       id="path2571"
       inkscape:connector-curvature="0"
       style="stroke-width:1" /></g></clipPath><clipPath
   clipPathUnits="userSpaceOnUse"
   id="clipPath2575"><g
     id="g2579"
     style="stroke-width:1"
     transform="translate(-474.13252,-400.3301)"><path
       d="m 465.024,387.499 h 276.095 v 78.422 H 465.024 Z"
       id="path2577"
       inkscape:connector-curvature="0"
       style="stroke-width:1" /></g></clipPath><clipPath
   clipPathUnits="userSpaceOnUse"
   id="clipPath2587"><g
     id="g2591"
     style="stroke-width:1"
     transform="translate(-506.37932,-451.5326)"><path
       d="m 465.024,387.499 h 276.095 v 78.422 H 465.024 Z"
       id="path2589"
       inkscape:connector-curvature="0"
       style="stroke-width:1" /></g></clipPath><clipPath
   clipPathUnits="userSpaceOnUse"
   id="clipPath2593"><g
     id="g2597"
     style="stroke-width:1"
     transform="translate(-496.20202,-459.3655)"><path
       d="m 465.024,387.499 h 276.095 v 78.422 H 465.024 Z"
       id="path2595"
       inkscape:connector-curvature="0"
       style="stroke-width:1" /></g></clipPath><clipPath
   clipPathUnits="userSpaceOnUse"
   id="clipPath2599"><g
     id="g2603"
     style="stroke-width:1"
     transform="translate(-498.43452,-460.2023)"><path
       d="m 465.024,387.499 h 276.095 v 78.422 H 465.024 Z"
       id="path2601"
       inkscape:connector-curvature="0"
       style="stroke-width:1" /></g></clipPath><clipPath
   clipPathUnits="userSpaceOnUse"
   id="clipPath2605"><g
     id="g2609"
     style="stroke-width:1"
     transform="translate(-500.75372,-460.8536)"><path
       d="m 465.024,387.499 h 276.095 v 78.422 H 465.024 Z"
       id="path2607"
       inkscape:connector-curvature="0"
       style="stroke-width:1" /></g></clipPath><clipPath
   clipPathUnits="userSpaceOnUse"
   id="clipPath2611"><g
     id="g2615"
     style="stroke-width:1"
     transform="translate(-507.28542,-453.7777)"><path
       d="m 465.024,387.499 h 276.095 v 78.422 H 465.024 Z"
       id="path2613"
       inkscape:connector-curvature="0"
       style="stroke-width:1" /></g></clipPath><clipPath
   clipPathUnits="userSpaceOnUse"
   id="clipPath2617"><g
     id="g2621"
     style="stroke-width:1"
     transform="translate(-507.65762,-456.1774)"><path
       d="m 465.024,387.499 h 276.095 v 78.422 H 465.024 Z"
       id="path2619"
       inkscape:connector-curvature="0"
       style="stroke-width:1" /></g></clipPath><clipPath
   clipPathUnits="userSpaceOnUse"
   id="clipPath2623"><g
     id="g2627"
     style="stroke-width:1"
     transform="translate(-507.11752,-458.6086)"><path
       d="m 465.024,387.499 h 276.095 v 78.422 H 465.024 Z"
       id="path2625"
       inkscape:connector-curvature="0"
       style="stroke-width:1" /></g></clipPath><clipPath
   clipPathUnits="userSpaceOnUse"
   id="clipPath2629"><g
     id="g2633"
     style="stroke-width:1"
     transform="translate(-505.48042,-460.3478)"><path
       d="m 465.024,387.499 h 276.095 v 78.422 H 465.024 Z"
       id="path2631"
       inkscape:connector-curvature="0"
       style="stroke-width:1" /></g></clipPath><clipPath
   clipPathUnits="userSpaceOnUse"
   id="clipPath2635"><g
     id="g2639"
     style="stroke-width:1"
     transform="translate(-503.21642,-460.9838)"><path
       d="m 465.024,387.499 h 276.095 v 78.422 H 465.024 Z"
       id="path2637"
       inkscape:connector-curvature="0"
       style="stroke-width:1" /></g></clipPath><clipPath
   clipPathUnits="userSpaceOnUse"
   id="clipPath2641"><g
     id="g2645"
     style="stroke-width:1"
     transform="translate(-712.53672,-431.869)"><path
       d="m 465.024,387.499 h 276.095 v 78.422 H 465.024 Z"
       id="path2643"
       inkscape:connector-curvature="0"
       style="stroke-width:1" /></g></clipPath><clipPath
   clipPathUnits="userSpaceOnUse"
   id="clipPath2647"><g
     id="g2651"
     style="stroke-width:1"
     transform="translate(-720.08342,-440.056)"><path
       d="m 465.024,387.499 h 276.095 v 78.422 H 465.024 Z"
       id="path2649"
       inkscape:connector-curvature="0"
       style="stroke-width:1" /></g></clipPath><clipPath
   clipPathUnits="userSpaceOnUse"
   id="clipPath2653"><g
     id="g2657"
     style="stroke-width:1"
     transform="translate(-680.87412,-390.7538)"><path
       d="m 465.024,387.499 h 276.095 v 78.422 H 465.024 Z"
       id="path2655"
       inkscape:connector-curvature="0"
       style="stroke-width:1" /></g></clipPath><clipPath
   clipPathUnits="userSpaceOnUse"
   id="clipPath2659"><g
     id="g2663"
     style="stroke-width:1"
     transform="translate(-672.14112,-438.8192)"><path
       d="m 465.024,387.499 h 276.095 v 78.422 H 465.024 Z"
       id="path2661"
       inkscape:connector-curvature="0"
       style="stroke-width:1" /></g></clipPath><clipPath
   clipPathUnits="userSpaceOnUse"
   id="clipPath2665"><g
     id="g2669"
     style="stroke-width:1"
     transform="translate(-612.62302,-440.4975)"><path
       d="m 465.024,387.499 h 276.095 v 78.422 H 465.024 Z"
       id="path2667"
       inkscape:connector-curvature="0"
       style="stroke-width:1" /></g></clipPath><clipPath
   clipPathUnits="userSpaceOnUse"
   id="clipPath2671"><g
     id="g2675"
     style="stroke-width:1"
     transform="translate(-556.84382,-440.0645)"><path
       d="m 465.024,387.499 h 276.095 v 78.422 H 465.024 Z"
       id="path2673"
       inkscape:connector-curvature="0"
       style="stroke-width:1" /></g></clipPath><clipPath
   clipPathUnits="userSpaceOnUse"
   id="clipPath2966"><g
     id="g2970"
     style="stroke-width:1"
     transform="translate(-486.45562,-409.8995)"><path
       d="m 465.024,387.499 h 276.095 v 78.422 H 465.024 Z"
       id="path2968"
       inkscape:connector-curvature="0"
       style="stroke-width:1" /></g></clipPath><clipPath
   clipPathUnits="userSpaceOnUse"
   id="clipPath2972"><g
     id="g2976"
     style="stroke-width:1"
     transform="translate(-486.89782,-409.9527)"><path
       d="m 465.024,387.499 h 276.095 v 78.422 H 465.024 Z"
       id="path2974"
       inkscape:connector-curvature="0"
       style="stroke-width:1" /></g></clipPath><clipPath
   clipPathUnits="userSpaceOnUse"
   id="clipPath2978"><g
     id="g2982"
     style="stroke-width:1"
     transform="translate(-490.18112,-410.2145)"><path
       d="m 465.024,387.499 h 276.095 v 78.422 H 465.024 Z"
       id="path2980"
       inkscape:connector-curvature="0"
       style="stroke-width:1" /></g></clipPath><clipPath
   clipPathUnits="userSpaceOnUse"
   id="clipPath2984"><g
     id="g2988"
     style="stroke-width:1"
     transform="translate(-489.48572,-414.3953)"><path
       d="m 465.024,387.499 h 276.095 v 78.422 H 465.024 Z"
       id="path2986"
       inkscape:connector-curvature="0"
       style="stroke-width:1" /></g></clipPath><clipPath
   clipPathUnits="userSpaceOnUse"
   id="clipPath2990"><g
     id="g2994"
     style="stroke-width:1"
     transform="translate(-492.51502,-417.7353)"><path
       d="m 465.024,387.499 h 276.095 v 78.422 H 465.024 Z"
       id="path2992"
       inkscape:connector-curvature="0"
       style="stroke-width:1" /></g></clipPath><clipPath
   clipPathUnits="userSpaceOnUse"
   id="clipPath2996"><g
     id="g3000"
     style="stroke-width:1"
     transform="translate(-489.92492,-414.3911)"><path
       d="m 465.024,387.499 h 276.095 v 78.422 H 465.024 Z"
       id="path2998"
       inkscape:connector-curvature="0"
       style="stroke-width:1" /></g></clipPath><clipPath
   clipPathUnits="userSpaceOnUse"
   id="clipPath3002"><g
     id="g3006"
     style="stroke-width:1"
     transform="translate(-485.33552,-422.8971)"><path
       d="m 465.024,387.499 h 276.095 v 78.422 H 465.024 Z"
       id="path3004"
       inkscape:connector-curvature="0"
       style="stroke-width:1" /></g></clipPath><clipPath
   clipPathUnits="userSpaceOnUse"
   id="clipPath3008"><g
     id="g3012"
     style="stroke-width:1"
     transform="translate(-483.64172,-423.6611)"><path
       d="m 465.024,387.499 h 276.095 v 78.422 H 465.024 Z"
       id="path3010"
       inkscape:connector-curvature="0"
       style="stroke-width:1" /></g></clipPath><clipPath
   clipPathUnits="userSpaceOnUse"
   id="clipPath3014"><g
     id="g3018"
     style="stroke-width:1"
     transform="translate(-492.53742,-422.087)"><path
       d="m 465.024,387.499 h 276.095 v 78.422 H 465.024 Z"
       id="path3016"
       inkscape:connector-curvature="0"
       style="stroke-width:1" /></g></clipPath><clipPath
   clipPathUnits="userSpaceOnUse"
   id="clipPath3020"><g
     id="g3024"
     style="stroke-width:1"
     transform="translate(-490.32032,-422.2115)"><path
       d="m 465.024,387.499 h 276.095 v 78.422 H 465.024 Z"
       id="path3022"
       inkscape:connector-curvature="0"
       style="stroke-width:1" /></g></clipPath><clipPath
   clipPathUnits="userSpaceOnUse"
   id="clipPath3026"><g
     id="g3030"
     style="stroke-width:1"
     transform="translate(-487.93242,-422.1457)"><path
       d="m 465.024,387.499 h 276.095 v 78.422 H 465.024 Z"
       id="path3028"
       inkscape:connector-curvature="0"
       style="stroke-width:1" /></g></clipPath><clipPath
   clipPathUnits="userSpaceOnUse"
   id="clipPath3032"><g
     id="g3036"
     style="stroke-width:1"
     transform="translate(-483.12472,-418.7008)"><path
       d="m 465.024,387.499 h 276.095 v 78.422 H 465.024 Z"
       id="path3034"
       inkscape:connector-curvature="0"
       style="stroke-width:1" /></g></clipPath><clipPath
   clipPathUnits="userSpaceOnUse"
   id="clipPath3038"><g
     id="g3042"
     style="stroke-width:1"
     transform="translate(-486.51642,-418.1326)"><path
       d="m 465.024,387.499 h 276.095 v 78.422 H 465.024 Z"
       id="path3040"
       inkscape:connector-curvature="0"
       style="stroke-width:1" /></g></clipPath><clipPath
   clipPathUnits="userSpaceOnUse"
   id="clipPath3044"><g
     id="g3048"
     style="stroke-width:1"
     transform="translate(-492.80042,-406.3286)"><path
       d="m 465.024,387.499 h 276.095 v 78.422 H 465.024 Z"
       id="path3046"
       inkscape:connector-curvature="0"
       style="stroke-width:1" /></g></clipPath><clipPath
   clipPathUnits="userSpaceOnUse"
   id="clipPath3050"><g
     id="g3054"
     style="stroke-width:1"
     transform="translate(-492.51922,-418.1733)"><path
       d="m 465.024,387.499 h 276.095 v 78.422 H 465.024 Z"
       id="path3052"
       inkscape:connector-curvature="0"
       style="stroke-width:1" /></g></clipPath><clipPath
   clipPathUnits="userSpaceOnUse"
   id="clipPath3056"><g
     id="g3060"
     style="stroke-width:1"
     transform="translate(-482.03682,-414.4598)"><path
       d="m 465.024,387.499 h 276.095 v 78.422 H 465.024 Z"
       id="path3058"
       inkscape:connector-curvature="0"
       style="stroke-width:1" /></g></clipPath><clipPath
   clipPathUnits="userSpaceOnUse"
   id="clipPath3062"><g
     id="g3066"
     style="stroke-width:1"
     transform="translate(-504.94522,-409.1202)"><path
       d="m 465.024,387.499 h 276.095 v 78.422 H 465.024 Z"
       id="path3064"
       inkscape:connector-curvature="0"
       style="stroke-width:1" /></g></clipPath><clipPath
   clipPathUnits="userSpaceOnUse"
   id="clipPath3068"><g
     id="g3072"
     style="stroke-width:1"
     transform="translate(-501.83112,-404.6817)"><path
       d="m 465.024,387.499 h 276.095 v 78.422 H 465.024 Z"
       id="path3070"
       inkscape:connector-curvature="0"
       style="stroke-width:1" /></g></clipPath><clipPath
   clipPathUnits="userSpaceOnUse"
   id="clipPath3074"><g
     id="g3078"
     style="stroke-width:1"
     transform="translate(-492.89902,-402.825)"><path
       d="m 465.024,387.499 h 276.095 v 78.422 H 465.024 Z"
       id="path3076"
       inkscape:connector-curvature="0"
       style="stroke-width:1" /></g></clipPath><clipPath
   clipPathUnits="userSpaceOnUse"
   id="clipPath3080"><g
     id="g3084"
     style="stroke-width:1"
     transform="translate(-485.18792,-423.4261)"><path
       d="m 465.024,387.499 h 276.095 v 78.422 H 465.024 Z"
       id="path3082"
       inkscape:connector-curvature="0"
       style="stroke-width:1" /></g></clipPath><clipPath
   clipPathUnits="userSpaceOnUse"
   id="clipPath3086"><g
     id="g3090"
     style="stroke-width:1"
     transform="translate(-480.70262,-419.3109)"><path
       d="m 465.024,387.499 h 276.095 v 78.422 H 465.024 Z"
       id="path3088"
       inkscape:connector-curvature="0"
       style="stroke-width:1" /></g></clipPath><clipPath
   clipPathUnits="userSpaceOnUse"
   id="clipPath3092"><g
     id="g3096"
     style="stroke-width:1"
     transform="translate(-485.72662,-414.4289)"><path
       d="m 465.024,387.499 h 276.095 v 78.422 H 465.024 Z"
       id="path3094"
       inkscape:connector-curvature="0"
       style="stroke-width:1" /></g></clipPath><clipPath
   clipPathUnits="userSpaceOnUse"
   id="clipPath3098"><g
     id="g3102"
     style="stroke-width:1"
     transform="translate(-486.05622,-405.3423)"><path
       d="m 465.024,387.499 h 276.095 v 78.422 H 465.024 Z"
       id="path3100"
       inkscape:connector-curvature="0"
       style="stroke-width:1" /></g></clipPath><clipPath
   clipPathUnits="userSpaceOnUse"
   id="clipPath3104"><g
     id="g3108"
     style="stroke-width:1"
     transform="translate(-485.61332,-405.1884)"><path
       d="m 465.024,387.499 h 276.095 v 78.422 H 465.024 Z"
       id="path3106"
       inkscape:connector-curvature="0"
       style="stroke-width:1" /></g></clipPath><clipPath
   clipPathUnits="userSpaceOnUse"
   id="clipPath3110"><g
     id="g3114"
     style="stroke-width:1"
     transform="translate(-488.59862,-405.9817)"><path
       d="m 465.024,387.499 h 276.095 v 78.422 H 465.024 Z"
       id="path3112"
       inkscape:connector-curvature="0"
       style="stroke-width:1" /></g></clipPath><clipPath
   clipPathUnits="userSpaceOnUse"
   id="clipPath3116"><g
     id="g3120"
     style="stroke-width:1"
     transform="translate(-485.61742,-423.2609)"><path
       d="m 465.024,387.499 h 276.095 v 78.422 H 465.024 Z"
       id="path3118"
       inkscape:connector-curvature="0"
       style="stroke-width:1" /></g></clipPath><clipPath
   clipPathUnits="userSpaceOnUse"
   id="clipPath3122"><g
     id="g3126"
     style="stroke-width:1"
     transform="translate(-483.09182,-409.3357)"><path
       d="m 465.024,387.499 h 276.095 v 78.422 H 465.024 Z"
       id="path3124"
       inkscape:connector-curvature="0"
       style="stroke-width:1" /></g></clipPath><clipPath
   clipPathUnits="userSpaceOnUse"
   id="clipPath3128"><g
     id="g3132"
     style="stroke-width:1"
     transform="translate(-498.06992,-422.718)"><path
       d="m 465.024,387.499 h 276.095 v 78.422 H 465.024 Z"
       id="path3130"
       inkscape:connector-curvature="0"
       style="stroke-width:1" /></g></clipPath><clipPath
   clipPathUnits="userSpaceOnUse"
   id="clipPath3134"><g
     id="g3138"
     style="stroke-width:1"
     transform="translate(-496.01592,-418.2572)"><path
       d="m 465.024,387.499 h 276.095 v 78.422 H 465.024 Z"
       id="path3136"
       inkscape:connector-curvature="0"
       style="stroke-width:1" /></g></clipPath><clipPath
   clipPathUnits="userSpaceOnUse"
   id="clipPath3140"><g
     id="g3144"
     style="stroke-width:1"
     transform="translate(-495.35962,-422.2311)"><path
       d="m 465.024,387.499 h 276.095 v 78.422 H 465.024 Z"
       id="path3142"
       inkscape:connector-curvature="0"
       style="stroke-width:1" /></g></clipPath><clipPath
   clipPathUnits="userSpaceOnUse"
   id="clipPath3146"><g
     id="g3150"
     style="stroke-width:1"
     transform="translate(-500.08422,-418.6672)"><path
       d="m 465.024,387.499 h 276.095 v 78.422 H 465.024 Z"
       id="path3148"
       inkscape:connector-curvature="0"
       style="stroke-width:1" /></g></clipPath><clipPath
   clipPathUnits="userSpaceOnUse"
   id="clipPath3152"><g
     id="g3156"
     style="stroke-width:1"
     transform="translate(-500.29412,-423.447)"><path
       d="m 465.024,387.499 h 276.095 v 78.422 H 465.024 Z"
       id="path3154"
       inkscape:connector-curvature="0"
       style="stroke-width:1" /></g></clipPath><clipPath
   clipPathUnits="userSpaceOnUse"
   id="clipPath3158"><g
     id="g3162"
     style="stroke-width:1"
     transform="translate(-500.54942,-414.7381)"><path
       d="m 465.024,387.499 h 276.095 v 78.422 H 465.024 Z"
       id="path3160"
       inkscape:connector-curvature="0"
       style="stroke-width:1" /></g></clipPath><clipPath
   clipPathUnits="userSpaceOnUse"
   id="clipPath3164"><g
     id="g3168"
     style="stroke-width:1"
     transform="translate(-496.48962,-410.5698)"><path
       d="m 465.024,387.499 h 276.095 v 78.422 H 465.024 Z"
       id="path3166"
       inkscape:connector-curvature="0"
       style="stroke-width:1" /></g></clipPath><clipPath
   clipPathUnits="userSpaceOnUse"
   id="clipPath3170"><g
     id="g3174"
     style="stroke-width:1"
     transform="translate(-500.71312,-423.6289)"><path
       d="m 465.024,387.499 h 276.095 v 78.422 H 465.024 Z"
       id="path3172"
       inkscape:connector-curvature="0"
       style="stroke-width:1" /></g></clipPath><clipPath
   clipPathUnits="userSpaceOnUse"
   id="clipPath3176"><g
     id="g3180"
     style="stroke-width:1"
     transform="translate(-499.64762,-418.6056)"><path
       d="m 465.024,387.499 h 276.095 v 78.422 H 465.024 Z"
       id="path3178"
       inkscape:connector-curvature="0"
       style="stroke-width:1" /></g></clipPath><clipPath
   clipPathUnits="userSpaceOnUse"
   id="clipPath3182"><g
     id="g3186"
     style="stroke-width:1"
     transform="translate(-497.87632,-406.165)"><path
       d="m 465.024,387.499 h 276.095 v 78.422 H 465.024 Z"
       id="path3184"
       inkscape:connector-curvature="0"
       style="stroke-width:1" /></g></clipPath><clipPath
   clipPathUnits="userSpaceOnUse"
   id="clipPath3188"><g
     id="g3192"
     style="stroke-width:1"
     transform="translate(-496.67572,-414.7717)"><path
       d="m 465.024,387.499 h 276.095 v 78.422 H 465.024 Z"
       id="path3190"
       inkscape:connector-curvature="0"
       style="stroke-width:1" /></g></clipPath><clipPath
   clipPathUnits="userSpaceOnUse"
   id="clipPath3194"><g
     id="g3198"
     style="stroke-width:1"
     transform="translate(-496.23702,-414.7759)"><path
       d="m 465.024,387.499 h 276.095 v 78.422 H 465.024 Z"
       id="path3196"
       inkscape:connector-curvature="0"
       style="stroke-width:1" /></g></clipPath><clipPath
   clipPathUnits="userSpaceOnUse"
   id="clipPath3200"><g
     id="g3204"
     style="stroke-width:1"
     transform="translate(-502.80292,-409.6728)"><path
       d="m 465.024,387.499 h 276.095 v 78.422 H 465.024 Z"
       id="path3202"
       inkscape:connector-curvature="0"
       style="stroke-width:1" /></g></clipPath><clipPath
   clipPathUnits="userSpaceOnUse"
   id="clipPath3206"><g
     id="g3210"
     style="stroke-width:1"
     transform="translate(-504.09852,-414.7073)"><path
       d="m 465.024,387.499 h 276.095 v 78.422 H 465.024 Z"
       id="path3208"
       inkscape:connector-curvature="0"
       style="stroke-width:1" /></g></clipPath><clipPath
   clipPathUnits="userSpaceOnUse"
   id="clipPath3212"><g
     id="g3216"
     style="stroke-width:1"
     transform="translate(-496.80922,-426.822)"><path
       d="m 465.024,387.499 h 276.095 v 78.422 H 465.024 Z"
       id="path3214"
       inkscape:connector-curvature="0"
       style="stroke-width:1" /></g></clipPath><clipPath
   clipPathUnits="userSpaceOnUse"
   id="clipPath3218"><g
     id="g3222"
     style="stroke-width:1"
     transform="translate(-503.23322,-419.2675)"><path
       d="m 465.024,387.499 h 276.095 v 78.422 H 465.024 Z"
       id="path3220"
       inkscape:connector-curvature="0"
       style="stroke-width:1" /></g></clipPath><clipPath
   clipPathUnits="userSpaceOnUse"
   id="clipPath3224"><g
     id="g3228"
     style="stroke-width:1"
     transform="translate(-500.34172,-405.387)"><path
       d="m 465.024,387.499 h 276.095 v 78.422 H 465.024 Z"
       id="path3226"
       inkscape:connector-curvature="0"
       style="stroke-width:1" /></g></clipPath><clipPath
   clipPathUnits="userSpaceOnUse"
   id="clipPath3230"><g
     id="g3234"
     style="stroke-width:1"
     transform="translate(-496.05152,-410.5992)"><path
       d="m 465.024,387.499 h 276.095 v 78.422 H 465.024 Z"
       id="path3232"
       inkscape:connector-curvature="0"
       style="stroke-width:1" /></g></clipPath><clipPath
   clipPathUnits="userSpaceOnUse"
   id="clipPath3236"><g
     id="g3240"
     style="stroke-width:1"
     transform="translate(-493.33492,-406.3175)"><path
       d="m 465.024,387.499 h 276.095 v 78.422 H 465.024 Z"
       id="path3238"
       inkscape:connector-curvature="0"
       style="stroke-width:1" /></g></clipPath><clipPath
   clipPathUnits="userSpaceOnUse"
   id="clipPath3242"><g
     id="g3246"
     style="stroke-width:1"
     transform="translate(-497.56832,-402.0891)"><path
       d="m 465.024,387.499 h 276.095 v 78.422 H 465.024 Z"
       id="path3244"
       inkscape:connector-curvature="0"
       style="stroke-width:1" /></g></clipPath><clipPath
   clipPathUnits="userSpaceOnUse"
   id="clipPath3248"><g
     id="g3252"
     style="stroke-width:1"
     transform="translate(-493.33292,-410.2662)"><path
       d="m 465.024,387.499 h 276.095 v 78.422 H 465.024 Z"
       id="path3250"
       inkscape:connector-curvature="0"
       style="stroke-width:1" /></g></clipPath><clipPath
   clipPathUnits="userSpaceOnUse"
   id="clipPath3254"><g
     id="g3258"
     style="stroke-width:1"
     transform="translate(-495.71372,-406.1216)"><path
       d="m 465.024,387.499 h 276.095 v 78.422 H 465.024 Z"
       id="path3256"
       inkscape:connector-curvature="0"
       style="stroke-width:1" /></g></clipPath><clipPath
   clipPathUnits="userSpaceOnUse"
   id="clipPath3260"><g
     id="g3264"
     style="stroke-width:1"
     transform="translate(-497.15842,-402.3283)"><path
       d="m 465.024,387.499 h 276.095 v 78.422 H 465.024 Z"
       id="path3262"
       inkscape:connector-curvature="0"
       style="stroke-width:1" /></g></clipPath><clipPath
   clipPathUnits="userSpaceOnUse"
   id="clipPath3266"><g
     id="g3270"
     style="stroke-width:1"
     transform="translate(-500.26402,-414.4219)"><path
       d="m 465.024,387.499 h 276.095 v 78.422 H 465.024 Z"
       id="path3268"
       inkscape:connector-curvature="0"
       style="stroke-width:1" /></g></clipPath><clipPath
   clipPathUnits="userSpaceOnUse"
   id="clipPath3272"><g
     id="g3276"
     style="stroke-width:1"
     transform="translate(-489.56402,-435.7296)"><path
       d="m 465.024,387.499 h 276.095 v 78.422 H 465.024 Z"
       id="path3274"
       inkscape:connector-curvature="0"
       style="stroke-width:1" /></g></clipPath><clipPath
   clipPathUnits="userSpaceOnUse"
   id="clipPath3278"><g
     id="g3282"
     style="stroke-width:1"
     transform="translate(-476.49582,-405.8935)"><path
       d="m 465.024,387.499 h 276.095 v 78.422 H 465.024 Z"
       id="path3280"
       inkscape:connector-curvature="0"
       style="stroke-width:1" /></g></clipPath><clipPath
   clipPathUnits="userSpaceOnUse"
   id="clipPath3284"><g
     id="g3288"
     style="stroke-width:1"
     transform="translate(-508.57412,-405.8935)"><path
       d="m 465.024,387.499 h 276.095 v 78.422 H 465.024 Z"
       id="path3286"
       inkscape:connector-curvature="0"
       style="stroke-width:1" /></g></clipPath><clipPath
   clipPathUnits="userSpaceOnUse"
   id="clipPath3290"><g
     id="g3294"
     style="stroke-width:1"
     transform="translate(-492.68912,-390.5411)"><path
       d="m 465.024,387.499 h 276.095 v 78.422 H 465.024 Z"
       id="path3292"
       inkscape:connector-curvature="0"
       style="stroke-width:1" /></g></clipPath><clipPath
   clipPathUnits="userSpaceOnUse"
   id="clipPath3296"><g
     id="g3300"
     style="stroke-width:1"
     transform="translate(-493.25312,-390.5411)"><path
       d="m 465.024,387.499 h 276.095 v 78.422 H 465.024 Z"
       id="path3298"
       inkscape:connector-curvature="0"
       style="stroke-width:1" /></g></clipPath><clipPath
   clipPathUnits="userSpaceOnUse"
   id="clipPath3302"><g
     id="g3306"
     style="stroke-width:1"
     transform="translate(-486.01472,-437.2415)"><path
       d="m 465.024,387.499 h 276.095 v 78.422 H 465.024 Z"
       id="path3304"
       inkscape:connector-curvature="0"
       style="stroke-width:1" /></g></clipPath><clipPath
   clipPathUnits="userSpaceOnUse"
   id="clipPath3308"><g
     id="g3312"
     style="stroke-width:1"
     transform="translate(-483.77882,-436.7356)"><path
       d="m 465.024,387.499 h 276.095 v 78.422 H 465.024 Z"
       id="path3310"
       inkscape:connector-curvature="0"
       style="stroke-width:1" /></g></clipPath><clipPath
   clipPathUnits="userSpaceOnUse"
   id="clipPath3314"><g
     id="g3318"
     style="stroke-width:1"
     transform="translate(-477.65232,-432.8814)"><path
       d="m 465.024,387.499 h 276.095 v 78.422 H 465.024 Z"
       id="path3316"
       inkscape:connector-curvature="0"
       style="stroke-width:1" /></g></clipPath><clipPath
   clipPathUnits="userSpaceOnUse"
   id="clipPath3320"><g
     id="g3324"
     style="stroke-width:1"
     transform="translate(-471.07582,-425.6635)"><path
       d="m 465.024,387.499 h 276.095 v 78.422 H 465.024 Z"
       id="path3322"
       inkscape:connector-curvature="0"
       style="stroke-width:1" /></g></clipPath><clipPath
   clipPathUnits="userSpaceOnUse"
   id="clipPath3326"><g
     id="g3330"
     style="stroke-width:1"
     transform="translate(-467.65542,-418.3356)"><path
       d="m 465.024,387.499 h 276.095 v 78.422 H 465.024 Z"
       id="path3328"
       inkscape:connector-curvature="0"
       style="stroke-width:1" /></g></clipPath><clipPath
   clipPathUnits="userSpaceOnUse"
   id="clipPath3332"><g
     id="g3336"
     style="stroke-width:1"
     transform="translate(-467.93592,-408.7368)"><path
       d="m 465.024,387.499 h 276.095 v 78.422 H 465.024 Z"
       id="path3334"
       inkscape:connector-curvature="0"
       style="stroke-width:1" /></g></clipPath><clipPath
   clipPathUnits="userSpaceOnUse"
   id="clipPath3338"><g
     id="g3342"
     style="stroke-width:1"
     transform="translate(-473.27052,-399.6879)"><path
       d="m 465.024,387.499 h 276.095 v 78.422 H 465.024 Z"
       id="path3340"
       inkscape:connector-curvature="0"
       style="stroke-width:1" /></g></clipPath><clipPath
   clipPathUnits="userSpaceOnUse"
   id="clipPath3344"><g
     id="g3348"
     style="stroke-width:1"
     transform="translate(-489.01192,-389.2369)"><path
       d="m 465.024,387.499 h 276.095 v 78.422 H 465.024 Z"
       id="path3346"
       inkscape:connector-curvature="0"
       style="stroke-width:1" /></g></clipPath><clipPath
   clipPathUnits="userSpaceOnUse"
   id="clipPath3350"><g
     id="g3354"
     style="stroke-width:1"
     transform="translate(-480.87342,-393.4572)"><path
       d="m 465.024,387.499 h 276.095 v 78.422 H 465.024 Z"
       id="path3352"
       inkscape:connector-curvature="0"
       style="stroke-width:1" /></g></clipPath><clipPath
   clipPathUnits="userSpaceOnUse"
   id="clipPath3356"><g
     id="g3360"
     style="stroke-width:1"
     transform="translate(-465.96512,-406.4854)"><path
       d="m 465.024,387.499 h 276.095 v 78.422 H 465.024 Z"
       id="path3358"
       inkscape:connector-curvature="0"
       style="stroke-width:1" /></g></clipPath><clipPath
   clipPathUnits="userSpaceOnUse"
   id="clipPath3362"><g
     id="g3366"
     style="stroke-width:1"
     transform="translate(-471.86642,-407.8553)"><path
       d="m 465.024,387.499 h 276.095 v 78.422 H 465.024 Z"
       id="path3364"
       inkscape:connector-curvature="0"
       style="stroke-width:1" /></g></clipPath><clipPath
   clipPathUnits="userSpaceOnUse"
   id="clipPath3368"><g
     id="g3372"
     style="stroke-width:1"
     transform="translate(-482.53222,-438.6224)"><path
       d="m 465.024,387.499 h 276.095 v 78.422 H 465.024 Z"
       id="path3370"
       inkscape:connector-curvature="0"
       style="stroke-width:1" /></g></clipPath><clipPath
   clipPathUnits="userSpaceOnUse"
   id="clipPath3374"><g
     id="g3378"
     style="stroke-width:1"
     transform="translate(-490.13352,-440.585)"><path
       d="m 465.024,387.499 h 276.095 v 78.422 H 465.024 Z"
       id="path3376"
       inkscape:connector-curvature="0"
       style="stroke-width:1" /></g></clipPath><clipPath
   clipPathUnits="userSpaceOnUse"
   id="clipPath3380"><g
     id="g3384"
     style="stroke-width:1"
     transform="translate(-475.51072,-433.5425)"><path
       d="m 465.024,387.499 h 276.095 v 78.422 H 465.024 Z"
       id="path3382"
       inkscape:connector-curvature="0"
       style="stroke-width:1" /></g></clipPath><clipPath
   clipPathUnits="userSpaceOnUse"
   id="clipPath3386"><g
     id="g3390"
     style="stroke-width:1"
     transform="translate(-468.87902,-427.4698)"><path
       d="m 465.024,387.499 h 276.095 v 78.422 H 465.024 Z"
       id="path3388"
       inkscape:connector-curvature="0"
       style="stroke-width:1" /></g></clipPath>
	
	
	
	
	
<clipPath
   clipPathUnits="userSpaceOnUse"
   id="clipPath5907"><g
     id="g5913"
     style="stroke-width:0.999999"><g
       id="g5911"
       style="stroke-width:0.393018"
       transform="matrix(2.5444161,0,0,-2.5444161,-1148.5273,1191.5595)"><path
         d="m 465.024,387.499 h 276.095 v 78.422 H 465.024 Z"
         id="path5909"
         inkscape:connector-curvature="0"
         style="stroke-width:0.393018" /></g></g></clipPath></defs><g
     inkscape:label="Layer 1"
     inkscape:groupmode="layer"
     id="layer1"><path
       style="fill:#223264;fill-opacity:1;stroke-width:0.999998"
       d="m 61.833934,208.7073 c -2.713726,-0.30768 -5.647432,-1.50651 -8.735988,-3.56986 -1.384434,-0.92489 -3.900865,-2.87214 -3.900429,-3.01821 3.39e-4,-0.11765 3.856285,-1.2165 5.344268,-1.52299 1.822898,-0.37547 2.675184,-0.46806 4.307573,-0.46798 2.081615,0 4.058277,0.33677 6.13305,1.0446 0.416196,0.14199 0.775759,0.25816 0.799042,0.25816 0.02327,0 -0.292295,-0.22834 -0.701277,-0.50741 -1.9955,-1.36168 -3.626672,-3.06108 -4.892658,-5.09728 -0.794815,-1.27839 -2.98597,-6.06837 -2.841862,-6.21247 0.110451,-0.11046 3.244054,0.65698 4.932705,1.20803 6.360685,2.07569 9.688398,5.62717 10.575358,11.28646 l 0.09952,0.635 0.462229,0.0505 c 0.898153,0.0981 1.655742,0.71449 1.903473,1.54868 0.15886,0.53497 0.15721,0.75835 -0.01,1.32763 -0.10257,0.34945 -0.239781,0.56193 -0.571505,0.88497 -0.495867,0.48291 -0.886731,0.63415 -1.631679,0.63136 -0.614307,-0.002 -1.060966,-0.19685 -1.514686,-0.65977 l -0.339175,-0.34605 -0.407357,0.25354 c -1.467349,0.9133 -3.698714,1.80116 -5.313257,2.11414 -1.005179,0.19486 -2.727706,0.26891 -3.697461,0.15896 z m 12.340091,-4.59849 c 0,-0.11367 -0.346168,-0.47646 -0.454626,-0.47646 -0.04754,0 -0.193591,0.10266 -0.324561,0.22814 l -0.238117,0.22812 0.27123,0.27984 0.271221,0.27983 0.237422,-0.22747 c 0.13059,-0.12511 0.237431,-0.26551 0.237431,-0.312 z m 2.094473,4.58237 c 0.0458,-0.0582 0.70003,-0.89901 1.45392,-1.86843 l 1.37071,-1.7626 -1.31655,-1.64359 c -0.72411,-0.90396 -1.31655,-1.66337 -1.31655,-1.68755 0,-0.0242 0.85266,-0.044 1.8948,-0.044 h 1.8948 l 0.321,0.40217 c 0.17655,0.22119 0.3467,0.43248 0.37811,0.46952 0.0314,0.037 0.21665,-0.14394 0.41162,-0.40217 l 0.35449,-0.46952 h 1.94674 1.94674 l -1.35496,1.68834 -1.35496,1.68834 1.37785,1.76182 c 0.75782,0.96901 1.40693,1.80945 1.44247,1.86766 0.0509,0.0834 -0.32844,0.10583 -1.79081,0.10583 h -1.85542 l -0.53454,-0.67997 c -0.29399,-0.37398 -0.56023,-0.6502 -0.59162,-0.61383 -0.0314,0.0364 -0.2769,0.34236 -0.54557,0.67997 l -0.48848,0.61383 h -1.8635 c -1.47873,0 -1.84632,-0.0219 -1.78029,-0.10583 z m 21.06186,-0.36982 c -1.91761,-0.2772 -4.07486,-1.0522 -5.82782,-2.09369 -0.36475,-0.21669 -0.68023,-0.39399 -0.7011,-0.39399 -0.0208,0 -0.15697,0.13559 -0.30248,0.30132 -1.09528,1.24745 -3.29003,0.74974 -3.75557,-0.85165 -0.39208,-1.34868 0.42586,-2.62036 1.85029,-2.87671 0.49294,-0.0887 0.52556,-0.10914 0.55021,-0.34446 0.0144,-0.13759 0.12317,-0.68831 0.24169,-1.22383 1.21234,-5.47779 4.56548,-8.63836 11.321092,-10.67098 1.13822,-0.34246 3.58756,-0.9267 3.88957,-0.92778 0.19224,-8.5e-4 0.19217,-8.5e-4 -0.5113,1.69278 -2.15802,5.19429 -3.88917,7.45959 -7.646172,10.00532 -0.11753,0.0796 0.3077,-0.0235 0.97125,-0.23562 3.422372,-1.09393 6.470052,-1.2441 10.047822,-0.4951 1.24948,0.26159 1.46374,0.31828 3.74799,0.99177 l 1.76813,0.52132 -0.28646,0.24495 c -2.82657,2.41703 -6.60027,4.73619 -9.10169,5.59353 -1.68713,0.57826 -2.68815,0.75384 -4.435112,0.77794 -0.86149,0.0119 -1.68064,0.005 -1.82034,-0.0151 z m -8.65187,-4.33377 0.22746,-0.23742 -0.27983,-0.27122 -0.27983,-0.27123 -0.24397,0.25465 -0.24397,0.25465 0.24335,0.254 c 0.13384,0.1397 0.26719,0.254 0.29633,0.254 0.0291,0 0.15535,-0.10684 0.28046,-0.23743 z M 41.97837,196.59761 c -3.653055,-0.53481 -7.27341,-2.73493 -10.88699,-6.61612 -1.38067,-1.48292 -2.39156,-2.72105 -2.27381,-2.78495 0.12474,-0.0677 2.341,-0.29464 4.12379,-0.42228 4.757286,-0.34061 8.441533,0.57372 12.660794,3.14206 0.324245,0.19737 0.614444,0.37336 0.644885,0.39108 0.03044,0.0177 -0.440399,-0.45354 -1.046313,-1.04723 -2.989284,-2.92904 -4.436311,-5.61915 -5.43093,-10.09644 -0.319815,-1.43966 -0.676304,-3.38636 -0.628822,-3.43385 0.06559,-0.0656 1.871882,0.73249 3.338817,1.47518 2.584169,1.30834 4.302541,2.50467 5.913233,4.11678 1.917307,1.91898 2.9762,3.80531 3.504236,6.24249 0.227906,1.0519 0.375703,2.69067 0.332258,3.68403 l -0.03432,0.78468 0.384913,0.006 c 1.210612,0.0203 2.131164,0.98453 2.131164,2.23239 0,0.70832 -0.216596,1.186 -0.751128,1.65651 -0.656733,0.57807 -1.54399,0.72102 -2.361605,0.38048 -0.3359,-0.1399 -0.937459,-0.67893 -1.008902,-0.90403 -0.06583,-0.2074 -0.09559,-0.20168 -1.392282,0.26768 -1.146205,0.41489 -2.716701,0.80708 -3.723113,0.92974 -0.833147,0.10154 -2.788283,0.0989 -3.495875,-0.005 z m 11.327131,-2.95779 0.245156,-0.25589 -0.271649,-0.27165 -0.27165,-0.27165 -0.27165,0.27165 -0.271649,0.27165 0.245156,0.25589 c 0.134836,0.14073 0.269001,0.25588 0.298143,0.25588 0.02914,0 0.163307,-0.11515 0.298143,-0.25588 z m 63.483399,2.61846 c -1.36817,-0.15942 -3.0331,-0.59255 -4.60647,-1.19837 l -0.55726,-0.21457 -0.28941,0.38933 c -0.98875,1.33016 -3.15047,1.0906 -3.80084,-0.42124 -0.61468,-1.42883 0.26689,-2.95547 1.79687,-3.11169 l 0.48676,-0.0497 0.0359,-1.48167 c 0.0386,-1.59036 0.1822,-2.65328 0.51745,-3.8292 1.09764,-3.85012 4.13009,-6.95769 9.34975,-9.58139 1.48189,-0.74487 3.11449,-1.45545 3.18409,-1.38585 0.0278,0.0278 -0.0691,0.69181 -0.21519,1.47565 -1.079,5.7876 -2.45382,8.66813 -5.67193,11.88385 l -1.23096,1.23004 0.889,-0.53936 c 2.49383,-1.51301 4.74081,-2.38669 7.28134,-2.83115 0.92585,-0.16198 1.36038,-0.18481 3.47133,-0.18232 2.25698,0.003 2.94231,0.0454 5.43983,0.33913 0.26776,0.0315 0.48684,0.0745 0.48684,0.0956 0,0.16149 -2.50872,2.93892 -3.65334,4.04467 -4.29529,4.14941 -8.47223,5.88577 -12.9138,5.36824 z m -7.45137,-3.02373 0.22786,-0.23783 -0.25435,-0.24368 -0.25434,-0.24368 -0.25435,0.24368 -0.25435,0.24368 0.22786,0.23783 c 0.12532,0.13081 0.25169,0.23782 0.28084,0.23782 0.0291,0 0.15551,-0.10701 0.28083,-0.23782 z M 32.3768,181.71175 c -0.76059,-0.19415 -1.43461,-0.86589 -1.64213,-1.63655 -0.0566,-0.21029 -0.13516,-0.31911 -0.23074,-0.31971 -0.37255,-0.002 -2.56204,-0.26342 -3.15953,-0.37676 -3.27628,-0.6215 -5.82157,-1.87381 -7.945987,-3.9095 -1.09674,-1.05094 -1.74513,-1.83193 -2.59125,-3.12116 -1.208,-1.84064 -2.28753,-4.15904 -3.17358,-6.81566 -0.54966,-1.64798 -1.2751,-4.31799 -1.17321,-4.31799 0.0361,0 0.77774,0.24698 1.648,0.54884 4.16287,1.44394 6.632497,2.65739 8.926987,4.3863 0.968,0.72939 2.79853,2.54234 3.55666,3.52249 0.30232,0.39085 0.61442,0.7909 0.69356,0.889 0.10785,0.13368 0.0824,-0.0144 -0.10146,-0.59122 -0.9522,-2.9867 -0.97715,-6.12609 -0.086,-10.81931 0.14039,-0.73933 0.25525,-1.36189 0.25525,-1.38344 0,-0.11538 1.37005,1.21444 2.24686,2.18087 2.57526,2.83848 4.10631,5.22379 4.87681,7.59788 0.18649,0.57462 0.2138,0.61261 0.41154,0.5724 0.11648,-0.0237 2.212038,-0.35169 4.656788,-0.72891 2.44475,-0.37721 4.457077,-0.69789 4.471838,-0.7126 0.01476,-0.0147 -0.804389,-0.70463 -1.820333,-1.53315 -1.015945,-0.8285 -2.103662,-1.71563 -2.41715,-1.97139 -0.313487,-0.25576 -0.561137,-0.4722 -0.550333,-0.48098 0.0108,-0.009 3.344852,0.0989 7.408995,0.23922 4.064142,0.14035 7.409195,0.23535 7.433451,0.21109 0.02425,-0.0242 -0.294608,-0.46685 -0.708585,-0.98355 -4.043042,-5.04623 -6.556529,-11.14501 -7.350118,-17.83451 -0.188714,-1.59076 -0.21497,-5.4954 -0.04754,-7.06965 0.611671,-5.75113 2.411838,-10.86775 5.489271,-15.60218 4.226931,-6.50284 10.546363,-11.40021 17.893169,-13.86667 3.372824,-1.13231 6.440655,-1.68462 10.221235,-1.84013 l 1.45823,-0.06 -4.11937,-9.059329 c -2.265643,-4.982621 -4.130519,-9.074195 -4.144176,-9.092385 -0.01366,-0.0182 -0.606848,0.19803 -1.318209,0.48048 -2.661201,1.056628 -4.5196,1.515867 -6.458044,1.595857 -2.688844,0.11095 -4.546049,-0.547199 -6.68112,-2.367646 l -0.380437,-0.32437 -0.313986,0.31398 c -0.823592,0.823589 -2.168594,0.871099 -3.036376,0.10725 -0.519348,-0.457149 -0.757471,-0.987259 -0.753183,-1.676717 0.004,-0.647349 0.153762,-1.039859 0.57425,-1.505288 0.456306,-0.505079 1.04044,-0.726139 1.791402,-0.677939 l 0.605359,0.0388 0.1525,-0.431029 C 59.10252,77.191676 63.648857,74.52066 71.873182,74.51672 l 1.89015,-9.1e-4 -0.572863,0.825499 c -0.742171,1.069488 -1.921925,2.626376 -2.516565,3.321072 -0.258106,0.30153 -0.458868,0.55865 -0.446125,0.57139 0.01273,0.0127 0.420082,-0.0376 0.905205,-0.11181 1.162533,-0.17789 3.337314,-0.1181 4.457014,0.12255 0.86153,0.185159 1.88069,0.499219 2.52546,0.778238 l 0.41891,0.18128 -0.58742,0.548369 c -1.51816,1.417268 -3.996977,2.686496 -6.053861,3.099765 l -0.54527,0.10955 1.33538,0.652519 c 0.734458,0.358889 1.698735,0.866368 2.142829,1.127728 l 0.807442,0.475199 -0.36988,0.21143 c -0.203442,0.116279 -0.672301,0.364039 -1.041922,0.550569 -0.483717,0.244109 -0.63754,0.358449 -0.548944,0.408029 0.266115,0.14893 6.540296,2.707846 6.568986,2.679146 0.0246,-0.0246 -2.47836,-14.907454 -2.64728,-15.741022 l -0.0472,-0.23283 h 3.56657 3.56656 l -0.0434,0.27517 c -0.0695,0.440069 -0.24852,4.972099 -0.19843,5.022189 0.025,0.025 0.34507,-0.0499 0.71131,-0.166379 1.54943,-0.49285 3.37927,-0.697927 4.97934,-0.55804 0.56129,0.0491 1.17187,0.12397 1.35682,0.16645 0.18496,0.0425 0.35059,0.0629 0.36806,0.0455 0.0175,-0.0175 -0.21982,-0.320247 -0.52732,-0.672837 -1.0551,-1.209788 -2.99409,-3.905293 -2.88677,-4.013073 0.10452,-0.10497 2.19131,-0.11507 3.59874,-0.0174 3.04934,0.21158 5.25411,0.721909 7.11619,1.647167 1.180222,0.586449 1.912802,1.114158 2.885122,2.078257 1.28707,1.276206 2.15265,2.642313 2.917,4.60378 l 0.32463,0.833079 0.44799,-0.056 c 0.66797,-0.0834 1.29815,0.12706 1.80799,0.603959 1.54658,1.446647 0.40927,4.008083 -1.69493,3.817284 -0.57269,-0.0519 -1.04039,-0.27597 -1.43609,-0.687929 l -0.28976,-0.30168 -0.38757,0.36126 c -3.13516,2.922365 -7.319672,3.151374 -13.234772,0.724308 -1.16328,-0.477309 -4.0438,-1.851497 -4.0438,-1.929136 0,-0.0874 1.96917,-1.174658 3.1424,-1.735038 l 1.12758,-0.538589 -0.50515,-0.103269 c -1.83956,-0.37606 -4.09989,-1.441348 -5.51277,-2.598166 l -0.35095,-0.28735 -0.0501,0.574429 c -0.0276,0.31593 -0.20517,3.889114 -0.3947,7.940407 -0.18953,4.051293 -0.37102,7.469108 -0.40329,7.595138 -0.0572,0.223189 -0.12575,0.172869 -2.62598,-1.926157 -1.41201,-1.185428 -2.5841,-2.155327 -2.60464,-2.155327 -0.0205,0 0.0133,0.12383 0.0751,0.27517 0.0618,0.15134 1.29109,3.177965 2.73164,6.725839 l 2.61919,6.450683 0.55033,0.0556 c 1.09174,0.11027 3.47449,0.54939 4.7508,0.87554 9.13924,2.33544 16.894542,8.25472 21.589282,16.47814 1.77092,3.102 3.20721,7.01448 3.88461,10.58178 0.67147,3.53601 0.77754,7.69728 0.28709,11.26219 -0.85312,6.20101 -3.51355,12.29272 -7.48229,17.13251 -0.4717,0.57523 -0.84568,1.0559 -0.83107,1.06817 0.0259,0.0218 12.65944,-0.74681 13.64787,-0.83028 0.40654,-0.0343 0.47648,-0.0223 0.381,0.0658 -0.0643,0.0593 -1.1619,0.95878 -2.43906,1.99883 -1.27717,1.04003 -2.28682,1.90211 -2.24367,1.91573 0.0668,0.0211 10.7977,1.68487 11.24075,1.74284 0.1282,0.0168 0.20423,-0.13635 0.43127,-0.86864 0.51739,-1.66873 1.04256,-2.74109 2.17197,-4.43495 1.10465,-1.65675 2.43271,-3.23204 4.20922,-4.99283 l 0.84158,-0.83411 0.22812,1.20467 c 0.92765,4.8986 0.93266,7.69463 0.0195,10.87756 -0.19144,0.66725 -0.24386,0.94423 -0.15271,0.80693 0.34101,-0.51371 1.37061,-1.72363 2.11749,-2.48836 2.78003,-2.84646 5.69008,-4.47714 11.58105,-6.48962 l 1.19844,-0.4094 -0.33675,1.28456 c -1.05769,4.03473 -2.50051,7.50001 -4.16581,10.00521 -0.77287,1.16267 -1.34869,1.86262 -2.33331,2.83633 -2.64881,2.61945 -6.09997,4.05407 -10.54306,4.38267 l -0.84271,0.0623 -0.20117,0.52737 c -0.56474,1.48049 -2.37464,1.95541 -3.54061,0.92909 -0.56846,-0.50037 -0.74953,-0.90336 -0.74953,-1.66812 0,-0.48984 0.0423,-0.7149 0.185,-0.98452 0.20156,-0.38082 0.90295,-1.04748 1.10206,-1.04748 0.0683,0 0.10453,-0.0476 0.0806,-0.10584 -0.33413,-0.81193 -0.68968,-1.8 -0.86323,-2.39888 -0.11869,-0.40954 -0.22714,-0.75596 -0.24101,-0.76983 -0.0174,-0.0174 -14.75769,-4.52557 -16.5168,-5.05149 -0.043,-0.0129 0.83332,-0.66324 1.94733,-1.44531 1.11401,-0.78207 2.0756,-1.46953 2.13686,-1.5277 0.0892,-0.0846 -0.93714,-0.11811 -5.14348,-0.16776 l -5.25485,-0.062 -0.65619,0.60877 c -3.06232,2.84101 -7.319752,5.41344 -11.423992,6.90262 -3.65836,1.32739 -7.06439,1.95824 -11.03771,2.04433 -4.13492,0.0896 -7.108833,-0.31502 -11.087498,-1.50856 -4.734424,-1.42026 -9.74062,-4.3177 -13.360996,-7.73299 l -0.569292,-0.53704 -4.951689,0.15773 c -2.72343,0.0868 -5.293229,0.15913 -5.710666,0.16085 -0.652718,0.003 -0.741619,0.0197 -0.635,0.12148 0.06819,0.0651 1.035439,0.75822 2.149449,1.54029 1.114009,0.78207 1.990309,1.43282 1.947333,1.44612 -0.04298,0.0133 -3.145189,0.95824 -6.893806,2.09988 -3.748616,1.14166 -6.894593,2.11013 -6.991053,2.15217 -0.13695,0.0597 -0.19973,0.21286 -0.28651,0.69898 -0.15295,0.85681 -0.44736,1.84331 -0.84506,2.83159 -0.18447,0.45841 -0.32783,0.83628 -0.31856,0.83973 0.009,0.003 0.17907,0.11017 0.37734,0.2372 1.405024,0.90013 1.33598,3.00971 -0.12453,3.80462 -0.45533,0.24781 -1.1624,0.35403 -1.60485,0.24108 z m 1.77289,-2.45248 c 0.084,-0.084 -0.0722,-0.68862 -0.17773,-0.68774 -0.0313,0 -0.1956,0.039 -0.36508,0.0861 l -0.30814,0.0856 0.0879,0.3463 c 0.0856,0.33723 0.0957,0.34504 0.3855,0.29801 0.16368,-0.0266 0.33358,-0.0843 0.37755,-0.12823 z m 94.50163,-0.47585 c 0.0305,-0.1626 0.0633,-0.32285 0.0729,-0.35611 0.01,-0.0333 -0.14343,-0.10705 -0.34007,-0.16398 l -0.35752,-0.10351 -0.0865,0.31145 c -0.11914,0.42896 -0.12098,0.42394 0.18771,0.51307 0.43263,0.12491 0.46463,0.11264 0.52346,-0.20092 z m -45.714292,-9.36031 c 3.62612,-0.31011 7.16201,-1.30906 10.43218,-2.94726 2.80524,-1.4053 4.93572,-2.92283 7.201112,-5.12931 2.58225,-2.51512 4.14723,-4.64084 5.73832,-7.79444 1.51963,-3.01194 2.3943,-5.86974 2.88935,-9.44031 0.18427,-1.32908 0.21171,-5.33859 0.0458,-6.68866 -0.41109,-3.34457 -1.23238,-6.25446 -2.58637,-9.16368 -2.32307,-4.99144 -6.39786,-9.52694 -11.147692,-12.40811 -11.44361,-6.94148 -26.071851,-5.18799 -35.517341,4.25749 -4.644876,4.64486 -7.465953,10.48204 -8.306529,17.1873 -0.18085,1.44264 -0.20683,4.79595 -0.04788,6.18066 0.422207,3.6782 1.341285,6.84059 2.89807,9.97175 1.479395,2.97551 3.115084,5.2346 5.532746,7.64142 3.724605,3.70789 8.116257,6.21012 13.216264,7.53018 1.227091,0.31762 3.30508,0.68218 4.52967,0.79469 1.14991,0.10565 3.93126,0.11014 5.12233,0.008 z M 64.606691,145.91516 c -1.653116,-1.09127 -3.060065,-2.01544 -3.126553,-2.05371 -0.313817,-0.18062 1.989768,-4.22889 3.398799,-5.97295 3.132591,-3.87746 6.90825,-5.19602 11.109161,-3.87965 1.13338,0.35515 1.99565,0.74021 4.8746,2.17684 2.9284,1.46132 3.9643,1.86729 5.12766,2.00959 1.30141,0.15919 2.5785,-0.184 3.78288,-1.0166 0.99798,-0.6899 2.51751,-2.33689 3.59511,-3.89666 0.0418,-0.0605 6.11651,4.01004 6.11881,4.10014 0.004,0.14331 -1.49278,2.72842 -2.17029,3.74917 -2.56077,3.85815 -5.33183,5.9918 -8.49551,6.54139 -0.871,0.15131 -2.59415,0.13029 -3.429,-0.0418 -1.61176,-0.3323 -3.30561,-1.02294 -5.45177,-2.22284 -3.80586,-2.12783 -4.23514,-2.31871 -5.347353,-2.37765 -0.939131,-0.0498 -1.531612,0.0798 -2.436495,0.53276 -1.228784,0.61513 -2.456104,1.733 -3.948811,3.59662 -0.317034,0.39581 -0.580737,0.72413 -0.585995,0.72959 -0.0052,0.005 -1.362126,-0.88293 -3.015243,-1.97421 z M 56.648025,86.830008 v -0.385869 l -0.359834,0.026 c -0.358084,0.0259 -0.359959,0.0278 -0.385868,0.385869 l -0.02603,0.359839 h 0.385868 0.385869 z m 49.513705,-0.354969 0.026,-0.35983 h -0.38587 -0.38587 v 0.38587 0.385869 l 0.35984,-0.026 c 0.35808,-0.0259 0.35996,-0.0278 0.38587,-0.385869 z M 19.013693,158.67208 c -0.71913,-0.10537 -1.41899,-0.65222 -1.71556,-1.34049 -0.17139,-0.39775 -0.16854,-1.31635 0.005,-1.71059 l 0.13305,-0.30177 -0.74598,-0.52652 c -6.20297,-4.37804 -7.9479598,-9.78962 -5.83299,-18.08925 0.29442,-1.15538 1.20637,-4.08268 1.30234,-4.18045 0.0388,-0.0395 0.25502,0.21515 1.459,1.7181 2.7969,3.49146 4.12908,5.91088 4.83627,8.78336 0.27294,1.10866 0.50966,2.57377 0.52625,3.25717 0.0113,0.46446 0.13203,1.05672 0.1493,0.73231 0.024,-0.45129 0.721147,-2.92865 1.076497,-3.82558 1.0687,-2.69743 2.39605,-4.558 5.48979,-7.69523 1.59027,-1.61262 1.87053,-1.86323 1.92354,-1.71996 0.0957,0.25864 0.47708,2.62451 0.63619,3.94628 0.17762,1.47556 0.20425,4.90171 0.0467,6.01133 -0.45432,3.20009 -1.38843,5.43788 -3.14129,7.52541 -0.77935,0.92812 -1.88749,1.88285 -3.20397,2.76038 -0.92357,0.61563 -1.09814,0.76403 -0.99727,0.84774 0.0672,0.0558 0.23766,0.3324 0.3787,0.61465 0.82511,1.65118 -0.49361,3.46157 -2.325887,3.19311 z m 1.447197,-2.42019 c 0.22822,-0.0573 0.24564,-0.14148 0.10989,-0.53093 -0.0774,-0.22206 -0.12577,-0.25949 -0.27517,-0.21299 -0.44257,0.13773 -0.55654,0.20476 -0.52081,0.30625 0.19023,0.5405 0.22148,0.5889 0.3486,0.54013 0.0735,-0.0282 0.2254,-0.0743 0.33749,-0.10246 z m 121.36181,1.90789 c -1.34939,-0.61011 -1.77766,-2.25239 -0.89048,-3.41465 l 0.28799,-0.37729 -0.63498,-0.39577 c -1.02785,-0.64063 -1.95523,-1.36257 -2.80979,-2.18736 -2.23533,-2.15742 -3.42532,-4.58465 -3.96935,-8.09626 -0.20723,-1.33759 -0.20558,-4.71427 0.003,-6.39232 0.16073,-1.29243 0.54521,-3.62058 0.64041,-3.87793 0.05,-0.13519 0.31143,0.0885 1.62781,1.39276 4.14461,4.10655 5.69755,6.6912 6.70931,11.16673 l 0.20024,0.88575 0.0571,-0.59266 c 0.22201,-2.30404 0.41204,-3.31223 0.91472,-4.85315 0.61689,-1.89103 1.85181,-4.11172 3.48787,-6.27208 0.80596,-1.06425 2.32477,-2.92159 2.41604,-2.95456 0.0981,-0.0354 0.96562,2.6373 1.35741,4.18194 1.53574,6.05471 0.97703,10.5735 -1.7579,14.21758 -0.9773,1.30218 -2.52296,2.73877 -4.26829,3.96711 l -0.56578,0.39818 0.13412,0.31415 c 0.47248,1.1067 -0.17463,2.54616 -1.32007,2.93644 -0.52444,0.17869 -1.16174,0.16036 -1.61949,-0.0466 z m 0.38889,-2.52911 0.0954,-0.32319 -0.31549,-0.0945 c -0.42009,-0.12587 -0.39614,-0.13562 -0.50937,0.20748 -0.11286,0.34198 -0.0915,0.38057 0.28312,0.51222 0.3206,0.11267 0.32469,0.10991 0.44631,-0.30199 z M 17.982993,134.62406 c -0.50357,-0.0977 -0.79118,-0.26683 -1.19052,-0.70006 -0.3498,-0.37948 -0.61511,-1.02483 -0.61511,-1.49619 0,-0.70832 0.60721,-1.70787 1.18217,-1.94603 l 0.25666,-0.10631 -0.28602,-0.392 c -1.1168,-1.53064 -2.17749,-3.48452 -2.622,-4.82996 -0.78981,-2.39057 -0.84913,-4.92345 -0.17598,-7.51424 0.69965,-2.69282 2.53682,-6.19519 4.89291,-9.3278 l 0.339987,-0.45204 0.23994,0.62137 c 0.99371,2.57335 1.79169,5.31439 2.07054,7.11223 0.20086,1.29502 0.20265,3.74622 0.004,5.02726 -0.30381,1.9559 -0.92409,4.08735 -1.89239,6.50272 -0.30159,0.75228 -0.568557,1.42495 -0.593267,1.4948 -0.0247,0.0699 0.163207,-0.25606 0.417597,-0.72423 2.66984,-4.91362 5.18955,-7.19016 10.09384,-9.11972 1.41788,-0.55786 4.01112,-1.45548 4.06094,-1.40565 0.0678,0.0678 -0.47333,2.55454 -0.76885,3.53345 -0.57239,1.89608 -1.25175,3.394 -2.15739,4.75682 -0.66574,1.00182 -2.15876,2.51261 -3.08203,3.11874 -1.84564,1.21164 -4.24112,2.01178 -6.92394,2.31271 -0.76858,0.0862 -0.90374,0.12303 -0.85643,0.23329 0.37043,0.86327 0.36481,1.50349 -0.0194,2.20938 -0.45993,0.84504 -1.405417,1.27956 -2.374947,1.09146 z m 1.760077,-2.23418 c 0.0209,-0.0209 0.023,-0.19431 0.005,-0.38542 l -0.0331,-0.34748 -0.349787,0.0256 c -0.37654,0.0275 -0.45575,0.14736 -0.35713,0.54028 0.0432,0.17203 0.10334,0.20497 0.37439,0.20497 0.17761,0 0.340007,-0.0171 0.360867,-0.0379 z m 123.01096,1.7246 c -1.09785,-0.49638 -1.62649,-1.74231 -1.20575,-2.84184 l 0.16665,-0.4355 -0.81396,-0.0992 c -2.0337,-0.2478 -3.94849,-0.75964 -5.41805,-1.44831 -3.88795,-1.82195 -6.22937,-5.36498 -7.41523,-11.2207 -0.11824,-0.58391 -0.21499,-1.07543 -0.21499,-1.09227 0,-0.0168 0.60007,0.17114 1.3335,0.41774 6.05145,2.03466 8.72935,3.80425 11.21858,7.4134 0.59748,0.86628 1.26245,1.98458 1.72432,2.89982 0.15861,0.31432 0.30247,0.5715 0.31967,0.5715 0.0172,0 -0.19623,-0.56198 -0.4743,-1.24882 -1.00454,-2.48135 -1.67157,-4.74212 -1.98479,-6.72701 -0.22303,-1.41334 -0.2014,-3.99503 0.0449,-5.35914 0.34828,-1.92894 0.82412,-3.57643 1.79501,-6.21476 l 0.44874,-1.21944 0.24162,0.28811 c 0.1329,0.15845 0.59682,0.80245 1.03094,1.43109 2.49591,3.61434 3.90367,6.80454 4.32798,9.8079 0.17341,1.22747 0.13763,2.93126 -0.0856,4.07741 -0.34778,1.78537 -1.22445,3.78869 -2.45789,5.61659 -0.37197,0.55123 -0.71441,1.06096 -0.76097,1.13272 -0.0618,0.0953 -0.0504,0.14217 0.0423,0.17394 0.0699,0.0239 0.32323,0.23808 0.56307,0.47594 1.43916,1.4273 0.46113,3.76309 -1.57907,3.77121 -0.29054,0.001 -0.60895,-0.0629 -0.84667,-0.1704 z m 0.2853,-2.21584 c 0.11859,-0.44251 0.0704,-0.5508 -0.26413,-0.5935 -0.37998,-0.0485 -0.4089,-0.0253 -0.46967,0.3768 -0.0507,0.33518 -0.002,0.37702 0.4598,0.39738 0.16412,0.007 0.23642,-0.0404 0.274,-0.18068 z M 25.28982,116.64019 c -0.48631,-0.17335 -0.9129,-0.5577 -1.17496,-1.05864 -0.43617,-0.83372 -0.25055,-2.02281 0.41262,-2.64322 0.27751,-0.25962 0.91976,-0.57187 1.18193,-0.57463 0.097,-10e-4 0.19634,-0.0218 0.22072,-0.0462 0.0244,-0.0244 -0.0264,-0.33871 -0.11276,-0.6985 -1.33034,-5.54012 -0.24759,-9.79556 3.47874,-13.67223 1.08425,-1.128009 2.10832,-2.031057 3.31269,-2.921236 0.89658,-0.662669 2.73113,-1.871936 3.486391,-2.298086 l 0.486833,-0.274689 v 0.579159 c 0,0.870078 -0.158353,3.148374 -0.301926,4.343933 -0.401873,3.346479 -1.290308,5.867619 -2.972368,8.434759 -0.11555,0.17635 -0.009,0.13039 0.5713,-0.24655 2.450632,-1.59169 5.408259,-2.34622 9.196724,-2.34622 h 0.881138 l -0.398786,0.74083 c -1.285593,2.38827 -2.539061,4.35913 -3.648208,5.73616 -0.375075,0.46566 -1.116151,1.26706 -1.646836,1.78088 -1.655997,1.60334 -3.169982,2.46131 -5.098312,2.88919 -1.12594,0.24984 -3.34666,0.14445 -4.60489,-0.21854 l -0.27517,-0.0794 v 0.5278 c 0,1.23379 -0.9326,2.16861 -2.159,2.16412 -0.2794,-0.001 -0.65554,-0.0544 -0.83587,-0.11872 z m 2.14715,-1.73629 0.17173,-0.33661 -0.33728,-0.17206 -0.33727,-0.17206 -0.17194,0.33703 -0.17194,0.33703 0.31804,0.16789 c 0.17493,0.0923 0.3268,0.16957 0.33749,0.17163 0.0107,0.002 0.0967,-0.14772 0.19117,-0.33285 z m 107.95051,1.44789 c -0.42211,-0.13849 -0.73769,-0.34481 -1.04105,-0.6806 -0.41271,-0.45682 -0.56707,-0.85587 -0.56707,-1.46608 0,-0.38264 -0.0271,-0.49631 -0.11077,-0.46421 -0.97596,0.3745 -3.98455,0.49431 -5.05389,0.20126 -1.81108,-0.49634 -3.28153,-1.35065 -4.79247,-2.78436 -1.72117,-1.6332 -3.57343,-4.25109 -5.16436,-7.29907 l -0.55548,-1.06422 0.28198,8.5e-4 c 0.60672,0.002 3.11394,0.17414 3.79566,0.26117 2.30222,0.29389 4.17872,0.95341 5.90841,2.0766 0.38578,0.25052 0.71658,0.45548 0.7351,0.45548 0.0185,0 -0.17675,-0.33338 -0.43395,-0.74084 -1.39325,-2.20718 -2.2366,-4.73507 -2.60571,-7.810489 -0.22493,-1.874137 -0.37958,-4.910652 -0.25011,-4.910652 0.0982,0 1.5177,0.878179 2.65759,1.644047 4.99624,3.356895 7.71483,6.909734 8.42748,11.013594 0.29391,1.69253 0.16792,4.09272 -0.32966,6.27969 l -0.19589,0.86103 0.2996,0.0562 c 0.47141,0.0884 0.89372,0.34171 1.25593,0.75319 0.72852,0.82765 0.72852,2.06812 0,2.89576 -0.18375,0.20873 -0.49024,0.4592 -0.68111,0.55657 -0.37576,0.19169 -1.22793,0.28077 -1.58023,0.16518 z m -0.16457,-1.6638 c 0.13738,-0.071 0.24979,-0.14914 0.24979,-0.17353 0,-0.0413 -0.24988,-0.55611 -0.29662,-0.61109 -0.0417,-0.0491 -0.63472,0.26952 -0.63472,0.34102 0,0.14204 0.25948,0.57278 0.34505,0.57278 0.0477,0 0.19911,-0.0581 0.3365,-0.12918 z M 47.736005,98.771638 C 46.472127,98.532029 45.008027,97.91506 43.95675,97.179061 l -0.541607,-0.37919 -0.206866,0.41513 c -0.786379,1.578057 -3.160859,1.561867 -3.952599,-0.0269 -0.416878,-0.836569 -0.225629,-2.010927 0.427138,-2.622826 0.38294,-0.358959 1.021509,-0.603499 1.577042,-0.603899 h 0.486833 v -1.139188 c 0,-4.431413 1.849764,-7.579507 5.993906,-10.200953 1.543091,-0.976118 3.824998,-2.065817 5.881949,-2.808865 0.812441,-0.29349 0.826091,-0.29539 0.783073,-0.10923 -0.345717,1.496117 -0.880575,3.479844 -1.151751,4.271723 -1.173945,3.428124 -2.957245,5.77553 -6.300177,8.293106 -0.64345,0.484589 -2.599611,1.808667 -3.280833,2.220726 -0.668073,0.40409 -0.267605,0.23557 0.973666,-0.409729 2.656511,-1.381048 4.926305,-2.258186 6.840583,-2.643476 0.790433,-0.159099 1.244102,-0.195399 2.451584,-0.196189 1.528106,-10e-4 2.014913,0.0582 3.513667,0.427039 0.989672,0.24358 3.683,1.140888 3.683,1.227018 0,0.0877 -1.985515,1.656177 -3.073685,2.428146 -2.521233,1.788637 -4.904027,2.941985 -6.959315,3.368564 -0.952257,0.19764 -2.550885,0.23656 -3.366353,0.082 z m -5.695853,-1.453797 c 0.343586,-0.16384 0.346777,-0.17515 0.159962,-0.566899 l -0.139244,-0.292 -0.305256,0.13845 c -0.167891,0.0761 -0.320743,0.14871 -0.339671,0.16125 -0.03606,0.0239 0.252179,0.701878 0.298401,0.701878 0.01463,0 0.161244,-0.0642 0.325808,-0.142679 z m 69.979878,1.159898 c -2.2523,-0.22572 -4.60812,-1.220248 -7.46356,-3.150785 -0.96423,-0.651909 -3.20236,-2.350556 -3.65219,-2.771876 -0.088,-0.0824 2.78461,-1.043128 3.91908,-1.310757 1.42891,-0.33707 2.1671,-0.41056 3.70435,-0.36876 1.15092,0.0313 1.60933,0.0827 2.43398,0.2727 1.84178,0.424479 3.64325,1.129958 6.21786,2.434996 0.81209,0.411639 1.45797,0.729869 1.43529,0.707179 -0.0227,-0.0227 -0.62804,-0.42734 -1.34522,-0.899239 -5.80336,-3.818584 -7.74188,-6.456189 -9.26352,-12.604179 -0.21243,-0.858299 -0.37234,-1.574427 -0.35535,-1.591407 0.047,-0.047 1.83335,0.623319 2.92994,1.099328 4.35142,1.888857 7.16972,4.154033 8.56726,6.885828 0.80895,1.581278 1.07986,2.732266 1.14416,4.861102 l 0.0473,1.566328 0.56047,0.005 c 0.68658,0.006 1.11884,0.209119 1.5936,0.748479 1.05179,1.194888 0.48873,3.125774 -1.0412,3.570524 -0.56068,0.162999 -1.15814,0.114339 -1.64489,-0.13399 -0.32193,-0.16424 -1.01297,-0.877569 -1.01532,-1.048078 -0.004,-0.31761 -0.15281,-0.30076 -0.7239,0.0822 -1.93106,1.294918 -3.98098,1.852617 -6.04815,1.645448 z m 8.50897,-1.749877 c 0.0711,-0.17014 0.11727,-0.32132 0.10263,-0.33597 -0.0147,-0.0146 -0.16902,-0.0861 -0.34305,-0.15883 l -0.31643,-0.132219 -0.12373,0.296129 c -0.16579,0.396789 -0.16024,0.423769 0.10911,0.530199 0.37458,0.14802 0.43518,0.12689 0.57147,-0.199309 z m -1.5663,-2.263937 c 0,-0.0183 -0.0591,-0.056 -0.1314,-0.0837 -0.0754,-0.0289 -0.10934,-0.0147 -0.0797,0.0333 0.0497,0.0804 0.21107,0.11899 0.21107,0.0504 z M 58.182311,73.863121 c -0.544634,-0.268309 -0.742214,-0.937098 -0.507893,-1.719197 0.08871,-0.296089 0.04025,-0.481709 -0.72542,-2.778765 -0.601786,-1.805397 -0.86011,-2.474076 -0.969154,-2.508686 -0.08177,-0.0259 -0.260155,-0.16353 -0.396412,-0.305729 -0.211658,-0.22088 -0.24672,-0.32248 -0.240729,-0.697519 0.0039,-0.24144 0.02029,-0.515179 0.03651,-0.608319 0.04081,-0.23426 -2.525951,-7.176578 -2.692105,-7.281318 -0.301665,-0.19017 -0.885978,-0.768469 -1.00079,-0.990499 -0.191924,-0.371139 -0.281401,-1.002038 -0.201746,-1.422497 0.06926,-0.36559 0.03932,-0.452939 -0.739934,-2.158997 -0.446663,-0.977898 -0.921698,-2.018196 -1.055633,-2.311776 l -0.24352,-0.533779 -0.384795,0.338709 c -1.301287,1.145439 -3.460753,0.682959 -4.242315,-0.908558 -0.204712,-0.416859 -0.235253,-0.578469 -0.234575,-1.241258 6.78e-4,-0.659469 0.03087,-0.818949 0.2244,-1.185328 0.479136,-0.907048 1.31985,-1.477708 2.278834,-1.546837 2.200435,-0.15861 3.678132,2.096436 2.66417,4.065663 -0.113892,0.221189 -0.190308,0.402169 -0.169814,0.402169 0.02049,0 0.434519,-0.197569 0.920057,-0.439039 l 0.882795,-0.439049 -0.490133,-0.979119 c -3.249651,-6.491719 -4.160813,-12.030721 -2.591245,-15.752306 1.734495,-4.11264 6.484939,-5.839138 12.597337,-4.578367 2.730187,0.563141 4.961069,1.292584 10.691487,3.495851 1.8161,0.698265 3.77442,1.437917 4.35181,1.643668 l 1.0498,0.374097 -0.0534,-0.632047 c -0.0294,-0.347626 -0.13572,-1.206567 -0.23631,-1.908759 -0.21583,-1.506801 -0.23852,-1.447228 0.7271,-1.908607 0.5252,-0.250945 0.90931,-0.37272 1.86398,-0.590944 0.24665,-0.05638 0.23908,-0.06455 -0.33866,-0.365529 -0.67696,-0.352666 -1.66122,-1.277772 -2.0252,-1.903487 -1.12503,-1.934041 -0.86835,-4.409374 0.62356,-6.013395 0.51005,-0.548376 1.76279,-2.286391 2.19621,-3.046958 0.32342,-0.567528 0.55595,-1.153027 0.48581,-1.223176 -0.15328,-0.153277 -2.14376,0.66664 -3.0741,1.266276 -0.31638,0.203919 -0.62287,0.399602 -0.68107,0.43485 -0.0839,0.05079 -0.10584,-0.551459 -0.10584,-2.902321 v -2.966408 l 0.84139,0.551288 c 1.17196,0.767873 3.05328,1.630634 3.05328,1.400213 0,-0.03466 -0.0962,-0.34591 -0.2137,-0.691674 -0.2832,-0.833106 -0.86813,-2.017749 -1.34508,-2.724159 L 78.325398,10 h 3.00932 c 2.38519,0 2.99603,0.02195 2.94524,0.105833 -0.0353,0.05821 -0.22308,0.353482 -0.41739,0.656166 -0.60867,0.948151 -1.39119,2.707902 -1.39119,3.12858 0,0.165957 0.0226,0.163373 0.6844,-0.07814 0.76044,-0.277526 1.37619,-0.605505 2.44827,-1.304064 l 0.71967,-0.46893 0.0223,2.930269 c 0.0123,1.611648 0.006,2.946885 -0.0146,2.96719 -0.0203,0.02031 -0.25893,-0.113755 -0.53028,-0.297914 -1.01138,-0.686406 -3.32474,-1.672962 -3.40169,-1.450687 -0.11069,0.31969 1.65006,3.059227 2.71234,4.220137 0.8734,0.95447 1.33899,2.163455 1.33899,3.476869 0,1.192613 -0.32194,2.145242 -1.05014,3.107398 -0.44525,0.588312 -1.23396,1.224284 -1.87086,1.508561 l -0.42333,0.188953 0.508,0.105152 c 0.75089,0.155429 1.63323,0.492784 2.14641,0.820662 0.43106,0.275404 0.45052,0.303261 0.39995,0.572775 -0.1802,0.960576 -0.5112,3.602483 -0.45134,3.602483 0.0861,0 3.1935,-1.163577 5.99064,-2.243208 5.07457,-1.958664 8.24303,-2.951647 10.837342,-3.396372 5.03936,-0.863865 9.11339,0.377126 11.14838,3.395918 1.06341,1.577507 1.53229,3.506434 1.44061,5.926657 -0.11838,3.125272 -1.09432,6.493702 -3.07697,10.620136 -0.39009,0.811879 -0.68011,1.504508 -0.64447,1.539178 0.10165,0.0989 1.73241,0.840478 1.6967,0.771558 -0.524,-1.011328 -0.61869,-1.790247 -0.31625,-2.601555 0.25999,-0.697459 0.9502,-1.387668 1.64766,-1.647668 1.01324,-0.377699 2.26538,-0.0874 2.96549,0.687529 0.71118,0.787199 0.93619,1.869687 0.59555,2.865135 -0.22282,0.651149 -1.00878,1.435708 -1.65604,1.653078 -0.97724,0.328179 -2.05397,0.12315 -2.80191,-0.533549 l -0.29652,-0.26035 -1.03218,2.258566 -1.03216,2.258577 0.0524,0.558719 c 0.0894,0.952238 -0.24628,1.620167 -1.16584,2.319946 -0.18092,0.13767 -0.46173,0.821828 -1.50195,3.659204 -1.27731,3.484084 -1.27927,3.490564 -1.18457,3.900843 0.1204,0.521589 -0.0447,0.915929 -0.52203,1.246698 -0.32309,0.2239 -0.34096,0.26567 -1.13546,2.653026 l -0.8072,2.425536 0.13332,0.380999 c 0.15188,0.434059 0.11631,0.919199 -0.0906,1.234938 -0.17269,0.26356 -0.61825,0.542319 -0.8675,0.542749 -0.10293,1.6e-4 -0.82683,-0.192639 -1.60867,-0.428479 -7.622672,-2.299326 -15.209772,-3.412254 -22.291852,-3.269905 -6.540503,0.13147 -12.950616,1.183288 -19.989718,3.280065 -0.772966,0.23025 -1.477816,0.417759 -1.566337,0.416699 -0.08852,-0.001 -0.289669,-0.0653 -0.446995,-0.14284 z m 3.61757,-13.234678 c 1.348088,-0.373579 2.692282,-1.269238 3.809264,-2.538195 l 0.448284,-0.50928 -0.253111,-0.253109 C 65.324174,56.84772 65.257583,56.214171 65.655703,55.913871 l 0.200804,-0.15147 -0.700075,-1.397067 c -0.385039,-0.768389 -0.871787,-1.629858 -1.081667,-1.914367 -0.617999,-0.837799 -1.386485,-1.091648 -1.727802,-0.570739 -0.202107,0.308459 -0.08878,0.851788 0.405977,1.946427 0.237151,0.524689 0.41706,0.996348 0.399796,1.048148 -0.05374,0.16121 -1.345006,-0.750059 -2.087922,-1.473498 -1.77864,-1.731997 -2.331138,-3.534974 -1.355667,-4.423982 0.516603,-0.47081 1.635837,-0.772799 2.517801,-0.679349 0.803809,0.0852 1.250036,0.288589 1.83648,0.837178 l 0.540376,0.5055 -0.374971,-0.734869 c -0.632342,-1.239238 -0.700651,-2.159667 -0.258141,-3.477894 0.228355,-0.680257 1.073608,-2.446156 1.267418,-2.64788 0.08959,-0.09326 0.255439,0.01329 0.95178,0.611485 1.498245,1.287075 2.222932,2.323844 2.408936,3.446342 0.07612,0.459419 0.0611,0.757989 -0.09087,1.806287 -0.187664,1.294408 -0.195538,1.644247 -0.0199,0.883299 0.137482,-0.595609 0.565904,-1.467318 0.906331,-1.844127 0.904249,-1.000899 3.221178,-1.362068 4.03225,-0.628569 0.394691,0.356929 0.53235,0.784529 0.527296,1.637877 -0.0052,0.881099 -0.208102,1.625277 -0.722351,2.649496 -0.514511,1.024738 -1.505873,2.324696 -1.617006,2.120356 -0.02119,-0.039 0.0073,-0.513609 0.06336,-1.054748 0.159529,-1.540397 -0.003,-2.106437 -0.604553,-2.106437 -0.373109,0 -0.807483,0.43485 -1.030927,1.032049 -0.173076,0.462579 -0.359605,1.376977 -0.523494,2.566276 -0.05133,0.372529 -0.113318,0.779818 -0.137753,0.905088 -0.04002,0.20523 -0.01123,0.23769 0.291203,0.328299 0.515205,0.15436 0.676359,0.731609 0.393336,1.408968 -0.07091,0.16972 -0.09766,0.33042 -0.05943,0.35711 0.03823,0.0267 0.239124,0.167329 0.446431,0.312539 0.606441,0.424749 1.54222,0.861649 2.341888,1.093388 0.89612,0.25968 2.139747,0.29526 2.945711,0.0843 1.17169,-0.306739 2.30894,-1.102398 3.14973,-2.203656 0.45369,-0.594239 1.13406,-1.828387 1.45038,-2.630896 l 0.169,-0.428769 -0.29204,-0.15728 c -0.16062,-0.0865 -0.44439,-0.322549 -0.63058,-0.524539 l -0.33854,-0.367269 -0.49577,0.336669 c -0.6517,0.442559 -1.13224,1.003928 -1.78307,2.082977 -0.2935,0.486629 -0.5767,0.884768 -0.62933,0.884768 -0.0526,0 -0.3996,-0.12783 -0.77106,-0.284059 l -0.675383,-0.28407 -0.02201,-3.946113 -0.022,-3.946124 0.632013,-0.426469 c 0.34761,-0.23457 0.66237,-0.42648 0.69948,-0.42648 0.0371,0 0.16266,0.18087 0.27899,0.40193 0.36568,0.694869 1.16313,1.680047 1.96735,2.430486 0.4265,0.397969 0.81696,0.723579 0.86771,0.723579 0.0507,0 0.23236,-0.16759 0.40357,-0.37242 l 0.31131,-0.372419 -0.58643,-0.887939 c -0.32255,-0.488369 -0.91735,-1.225648 -1.32178,-1.638407 l -0.73534,-0.750479 -0.0225,-4.31799 c -0.0124,-2.374896 -0.0544,-4.641796 -0.0934,-5.037555 l -0.0709,-0.719562 -0.93134,-0.325737 c -0.51223,-0.179156 -2.493431,-0.898383 -4.402664,-1.598283 -6.210055,-2.276525 -9.328769,-3.23982 -12.029817,-3.71572 -1.463024,-0.257771 -3.862032,-0.280912 -4.94452,-0.04769 -2.719634,0.585935 -4.412044,2.124986 -5.098366,4.636371 -0.171762,0.628509 -0.194372,0.90121 -0.19243,2.320855 0.0024,1.773964 0.109787,2.50417 0.666605,4.533926 0.495271,1.8054 1.538307,4.419675 2.632925,6.599181 l 0.383479,0.763559 0.600238,-0.302279 c 0.330132,-0.16625 0.608493,-0.2903 0.618579,-0.27567 0.01009,0.0146 0.08268,0.26522 0.161319,0.556869 l 0.142978,0.530269 -0.242846,0.485729 c -0.453908,0.907879 -0.873743,2.375357 -0.992805,3.470225 l -0.05754,0.529159 H 53.7953 c 0.165967,0 0.396537,0.036 0.512378,0.0801 0.263344,0.10013 0.267252,0.0954 0.797926,-0.969069 0.483399,-0.969628 0.819432,-1.924326 0.963711,-2.737975 0.05501,-0.31021 0.103945,-0.571359 0.108751,-0.580329 0.03655,-0.0682 1.529959,0.389229 1.585228,0.485559 0.06491,0.11315 2.50096,6.896959 2.584459,7.197108 0.02287,0.0822 -0.189967,0.33228 -0.571038,0.670949 -0.506359,0.450029 -0.630591,0.523659 -0.74623,0.442279 -0.765076,-0.538439 -1.769182,-0.935908 -2.828954,-1.119848 l -0.527116,-0.0915 -0.502142,0.486939 -0.502143,0.48693 0.544476,0.494409 c 1.112066,1.009798 2.451636,1.788657 3.61696,2.102996 0.81153,0.21891 2.16265,0.21526 2.968372,-0.008 z m 42.015099,0.0107 c 1.24183,-0.318149 2.55315,-1.075968 3.64638,-2.107256 l 0.57807,-0.545329 -0.3239,-0.23463 c -0.17814,-0.12905 -0.40026,-0.339459 -0.49358,-0.467569 l -0.16968,-0.23293 -0.86742,0.1748 c -0.84152,0.16958 -1.84786,0.571849 -2.38197,0.952168 -0.30031,0.21384 -0.38174,0.17666 -1.00489,-0.458829 -0.45827,-0.467349 -0.45887,-0.468649 -0.36026,-0.789409 0.0543,-0.176699 0.64538,-1.843756 1.31346,-3.704553 l 1.2147,-3.383265 0.75204,-0.189029 c 0.41363,-0.10397 0.76466,-0.17642 0.78008,-0.161 0.0154,0.0154 0.0981,0.369789 0.18363,0.787488 0.17868,0.872159 0.63965,2.078707 1.12874,2.954416 0.33363,0.597359 0.34089,0.603749 0.60095,0.529169 0.14479,-0.0415 0.38905,-0.0755 0.54281,-0.0755 0.26805,0 0.27774,-0.0113 0.23521,-0.27517 -0.28652,-1.777687 -0.48775,-2.524346 -0.95901,-3.558494 -0.29438,-0.645979 -0.29805,-0.667439 -0.19073,-1.114828 0.16515,-0.688399 0.1587,-0.685419 0.79931,-0.369839 0.54034,0.266189 0.57553,0.272769 0.68186,0.127579 0.0617,-0.0842 0.4197,-0.814698 0.79564,-1.623337 1.9831,-4.26557 2.83748,-7.332719 2.8306,-10.161551 -0.003,-1.304543 -0.14603,-2.1666 -0.51211,-3.090329 -1.26901,-3.202159 -4.82751,-4.567091 -9.71655,-3.726969 -2.955232,0.507821 -5.206482,1.203952 -12.403662,3.835453 -1.83939,0.672532 -3.71107,1.343911 -4.1593,1.491951 l -0.81495,0.269167 -0.0513,0.483364 c -0.16083,1.514281 -0.23735,4.366721 -0.18406,6.860741 l 0.0585,2.736715 -0.79405,0.819279 c -0.7188,0.741639 -1.84412,2.273476 -1.84412,2.510296 0,0.0522 0.15055,0.241959 0.33457,0.421639 l 0.33456,0.32669 0.31874,-0.24311 c 0.8616,-0.657179 1.99259,-2.003047 2.70544,-3.219485 0.0895,-0.152669 0.13126,-0.137499 0.71967,0.26125 l 0.62468,0.423329 0.022,3.931904 c 0.0121,2.162546 -0.007,3.960413 -0.0423,3.995243 -0.0354,0.0348 -0.37049,0.19411 -0.74465,0.353929 l -0.6803,0.29058 -0.54737,-0.891839 c -0.61977,-1.009798 -1.27811,-1.769087 -1.89284,-2.183066 l -0.41909,-0.282229 -0.34539,0.366619 c -0.18996,0.20164 -0.4692,0.429529 -0.62055,0.506409 -0.15134,0.0769 -0.27516,0.16328 -0.27516,0.192 0,0.154599 0.68079,1.607587 1.04458,2.229436 0.56408,0.964188 1.73195,2.134157 2.55375,2.558336 1.89488,0.978048 4.15091,0.747669 6.30143,-0.643489 0.32939,-0.21309 0.5989,-0.421649 0.5989,-0.463469 0,-0.0418 -0.0572,-0.21281 -0.127,-0.37999 -0.2551,-0.610559 -0.0804,-1.159128 0.42186,-1.324898 0.1638,-0.0541 0.29781,-0.150389 0.29781,-0.214079 0,-0.27558 -0.35308,-2.498446 -0.47038,-2.961405 -0.27049,-1.067489 -0.71928,-1.650998 -1.26983,-1.650998 -0.56938,0 -0.72394,0.622069 -0.54876,2.208507 0.0569,0.515119 0.077,0.962368 0.0448,0.993868 -0.13521,0.13198 -1.10001,-1.173318 -1.58474,-2.144046 -0.49643,-0.994159 -0.6759,-1.617508 -0.72227,-2.508716 -0.0389,-0.747149 -0.0241,-0.855489 0.17686,-1.294378 0.19686,-0.430019 0.26805,-0.501319 0.69637,-0.697409 0.42737,-0.19565 0.55342,-0.214249 1.20971,-0.17846 1.24341,0.0678 2.24286,0.57177 2.75372,1.388488 0.15987,0.25559 0.39544,0.786749 0.52347,1.180348 0.12804,0.39361 0.24157,0.705569 0.25229,0.693229 0.0107,-0.0123 -0.0542,-0.460579 -0.1442,-0.996098 -0.10597,-0.630339 -0.15346,-1.246388 -0.13468,-1.747107 0.0259,-0.689499 0.0627,-0.841129 0.33912,-1.396998 0.17407,-0.35 0.54393,-0.881226 0.84306,-1.210901 0.52887,-0.582872 1.99557,-1.910312 2.11071,-1.910312 0.11321,0 1.08631,2.012928 1.34192,2.775863 0.43559,1.300148 0.32843,2.435356 -0.34324,3.636344 -0.13633,0.24377 -0.24787,0.46199 -0.24787,0.48494 0,0.0229 0.15725,-0.12888 0.34945,-0.33739 0.19963,-0.216569 0.58909,-0.497089 0.90839,-0.654269 0.52807,-0.259969 0.608112,-0.274739 1.449712,-0.267399 0.95547,0.008 1.38639,0.11931 1.97693,0.509129 1.16766,0.770789 0.68746,2.719425 -1.11188,4.511962 -0.64392,0.641479 -1.864582,1.532798 -2.099172,1.532798 -0.13408,0 -0.17257,0.11203 0.436372,-1.269878 0.49166,-1.115718 0.50587,-1.771497 0.0419,-1.933237 -0.380662,-0.1327 -0.781982,0.0189 -1.173022,0.443139 -0.46618,0.50574 -0.70574,0.901499 -1.4379,2.375427 l -0.62909,1.266437 0.22081,0.17607 c 0.37264,0.29713 0.29533,0.901879 -0.18059,1.412508 l -0.21139,0.226799 0.17789,0.24982 c 0.29728,0.417489 1.50047,1.503908 2.12641,1.920027 0.62111,0.412909 1.332362,0.733879 2.061982,0.930498 0.65452,0.17638 2.02231,0.16076 2.77346,-0.0317 z M 44.150911,45.698878 c -0.785629,-0.257219 -1.489615,-0.955118 -1.772647,-1.757315 -0.294835,-0.835648 -0.07032,-1.997033 0.519213,-2.685762 0.560643,-0.654985 1.240455,-0.950875 2.187892,-0.952284 0.485767,-7.62e-4 0.678484,0.04416 1.117376,0.260224 2.076871,1.022438 2.073888,3.990743 -0.005,4.993917 -0.508348,0.24531 -1.516463,0.31486 -2.046815,0.14122 z m 72.779789,0.0359 c -0.74057,-0.22609 -1.47774,-0.880123 -1.80257,-1.599283 -0.27436,-0.607445 -0.25785,-1.59964 0.0371,-2.228731 0.27315,-0.582603 0.7499,-1.074802 1.30633,-1.348663 0.35238,-0.17343 0.54114,-0.20514 1.22114,-0.20514 0.66943,0 0.87098,0.03283 1.20166,0.195709 0.55421,0.272983 1.06154,0.793479 1.32315,1.357466 0.32093,0.691917 0.31519,1.634439 -0.0141,2.316286 -0.29176,0.604088 -0.92599,1.186307 -1.54431,1.417646 -0.47562,0.17795 -1.30657,0.22349 -1.72839,0.0947 z M 43.120861,39.563376 C 42.538497,39.355582 41.955923,38.85401 41.63296,38.282359 41.412228,37.891658 41.368805,37.715081 41.338721,37.08586 c -0.03167,-0.662354 -0.01208,-0.788992 0.190764,-1.233196 1.035066,-2.266693 4.259997,-2.186589 5.133335,0.127506 0.362215,0.959769 0.102701,2.190288 -0.612832,2.905819 -0.746711,0.74671 -1.953013,1.025679 -2.929127,0.677387 z m 74.512739,-0.01839 c -1.63718,-0.648203 -2.28043,-2.660665 -1.31062,-4.10041 0.55004,-0.816565 1.31696,-1.236696 2.27187,-1.244573 1.11371,-0.0092 2.01956,0.538997 2.49859,1.512037 0.24937,0.506562 0.28211,0.652481 0.28099,1.252474 -0.002,0.818046 -0.20582,1.338045 -0.74361,1.892738 -0.55041,0.567699 -1.07322,0.799502 -1.87979,0.833462 -0.53326,0.02245 -0.77095,-0.0085 -1.11743,-0.145728 z m -73.059356,-6.12275 c -0.785628,-0.25722 -1.489615,-0.955118 -1.772647,-1.757315 -0.294835,-0.835647 -0.07032,-1.997032 0.519213,-2.685761 0.55836,-0.652319 1.24084,-0.950845 2.177155,-0.952319 0.992516,-0.0016 1.889875,0.547988 2.387369,1.462049 0.34046,0.625536 0.394361,1.587549 0.128449,2.292556 -0.225657,0.598283 -0.849901,1.267369 -1.418415,1.520306 -0.500771,0.222798 -1.522582,0.28371 -2.021124,0.120484 z m 71.933116,0.03589 c -0.74056,-0.226083 -1.47206,-0.86705 -1.79385,-1.571823 -0.14947,-0.327372 -0.19357,-0.577273 -0.19455,-1.102445 -0.001,-0.599993 0.0316,-0.745912 0.281,-1.252473 0.51038,-1.036713 1.40398,-1.542103 2.62329,-1.483623 0.77613,0.03722 1.27688,0.252497 1.80196,0.774673 0.74372,0.739602 0.98664,1.7403 0.67307,2.772668 -0.15843,0.521604 -0.25887,0.686365 -0.66749,1.094992 -0.59142,0.591411 -1.20452,0.850737 -1.98577,0.839928 -0.2893,-0.004 -0.62124,-0.03636 -0.73766,-0.0719 z M 89.116848,31.582971 c -0.93569,-0.119606 -1.91459,-0.914618 -2.20982,-1.794684 -0.2369,-0.706227 -0.18876,-1.487787 0.13176,-2.138852 0.51855,-1.053322 1.46714,-1.60987 2.62924,-1.542602 1.04843,0.06069 1.85284,0.583939 2.34873,1.527808 0.20277,0.385964 0.23214,0.537774 0.23282,1.203667 8.5e-4,0.620764 -0.0346,0.833804 -0.19012,1.149397 -0.56978,1.156229 -1.67784,1.75694 -2.94261,1.595266 z m -16.974823,-0.14715 c -0.571509,-0.212524 -1.371211,-1.038916 -1.571397,-1.623848 -0.498043,-1.455194 0.225315,-3.026253 1.638995,-3.559729 0.385682,-0.145543 0.610404,-0.174778 1.117735,-0.145411 1.059612,0.06133 1.90621,0.630898 2.36112,1.588477 0.18464,0.388668 0.22122,0.584664 0.22122,1.185332 0,0.659288 -0.0244,0.764656 -0.29075,1.255929 -0.524486,0.967379 -1.367157,1.458515 -2.482996,1.447164 -0.349546,-0.0036 -0.776647,-0.06712 -0.993927,-0.147914 z m -5.418667,-2.037653 c -0.815501,-0.264506 -1.578932,-0.983974 -1.83206,-1.726544 -0.330132,-0.96848 -0.122707,-2.037886 0.537752,-2.772472 0.212895,-0.236796 0.581686,-0.53264 0.819531,-0.657432 0.380077,-0.199421 0.529844,-0.227048 1.236777,-0.22815 0.67106,-0.001 0.87017,0.03117 1.201657,0.194455 0.55278,0.272281 1.060611,0.792373 1.325457,1.357466 0.319896,0.682538 0.320014,1.629526 0,2.31168 -0.471416,1.005815 -1.287695,1.540001 -2.400402,1.570864 -0.372533,0.01033 -0.772583,-0.01211 -0.889,-0.04987 z m 27.59137,-0.03763 c -1.57149,-0.582715 -2.30778,-2.281014 -1.63696,-3.775785 0.78357,-1.746035 3.12681,-2.171959 4.48307,-0.814876 0.56884,0.569176 0.75883,1.057854 0.75883,1.951767 0,0.637837 -0.0339,0.830976 -0.20797,1.185331 -0.26513,0.539713 -0.77768,1.052658 -1.31488,1.315903 -0.50782,0.248853 -1.58937,0.320361 -2.08209,0.13766 z m -45.49837,-0.338833 c -0.768283,-0.255452 -1.38049,-0.78146 -1.740839,-1.49573 -0.284328,-0.563583 -0.321759,-1.501658 -0.08496,-2.129116 0.495234,-1.312233 1.906479,-2.065542 3.236216,-1.727462 1.278756,0.325116 2.107289,1.358722 2.117874,2.642074 0.01252,1.517347 -1.082433,2.700701 -2.579215,2.787459 -0.375811,0.02178 -0.740575,-0.0079 -0.94908,-0.07722 z m 63.485122,-0.0034 c -0.75428,-0.247581 -1.41483,-0.83119 -1.73695,-1.53462 -0.29647,-0.647427 -0.27867,-1.693311 0.0399,-2.341922 0.64773,-1.318979 2.3093,-1.928635 3.61863,-1.327731 0.61929,0.284218 1.21764,0.904209 1.44958,1.502028 0.54161,1.395979 -0.0744,2.928432 -1.43399,3.567529 -0.48921,0.229955 -1.44456,0.296393 -1.93713,0.134716 z M 60.942106,27.777447 c -0.724645,-0.18236 -1.454123,-0.772293 -1.824752,-1.475694 -0.19763,-0.375072 -0.224849,-0.524102 -0.224849,-1.231064 0,-0.708429 0.02686,-0.854806 0.225299,-1.227665 0.292959,-0.550465 0.85188,-1.08647 1.382554,-1.325875 0.625128,-0.282014 1.610479,-0.271511 2.243667,0.02391 0.561501,0.261982 1.10484,0.788378 1.370541,1.327795 0.280027,0.568513 0.283371,1.828465 0.0063,2.390561 -0.259401,0.526329 -0.824077,1.080915 -1.347427,1.323351 -0.493709,0.228706 -1.339063,0.318567 -1.831374,0.194676 z m 39.418134,-0.03029 c -0.842642,-0.275865 -1.388282,-0.734798 -1.772832,-1.491134 -0.20576,-0.40467 -0.23621,-0.55993 -0.23254,-1.185331 0.003,-0.545443 0.0478,-0.816403 0.18425,-1.119266 0.25246,-0.560384 0.77372,-1.093591 1.34898,-1.379899 0.413592,-0.205842 0.596192,-0.244665 1.167602,-0.248249 0.55841,-0.0035 0.75976,0.03441 1.14686,0.215979 0.66957,0.314051 1.053,0.686006 1.36912,1.328138 0.67411,1.369323 0.1289,2.988092 -1.23207,3.658097 -0.62908,0.309692 -1.43485,0.399928 -1.97937,0.221665 z M 54.573691,27.413251 c -0.490222,-0.161634 -0.697955,-0.287058 -1.12046,-0.676511 -0.546264,-0.503527 -0.804204,-1.06113 -0.84902,-1.835378 -0.05227,-0.903063 0.175637,-1.489561 0.828842,-2.132911 0.412199,-0.405981 0.585241,-0.511056 1.098229,-0.666871 1.027026,-0.311949 2.029531,-0.06759 2.767616,0.674605 0.583203,0.586451 0.746127,1.013527 0.746127,1.955844 0,0.935395 -0.176873,1.404537 -0.742946,1.970609 -0.665075,0.665073 -1.894976,0.985403 -2.728388,0.710613 z m 52.023489,0.0025 c -0.76486,-0.216341 -1.45729,-0.820101 -1.8037,-1.572719 -0.2554,-0.554908 -0.25441,-1.669245 0.002,-2.226566 0.6342,-1.378496 2.33751,-2.030436 3.68108,-1.408936 1.72789,0.799273 2.18393,2.975643 0.92416,4.410429 -0.60626,0.690503 -1.89067,1.056001 -2.80354,0.797792 z"
       id="path5752" /></g></svg>
