<?xml version="1.0" encoding="UTF-8" standalone="no"?>
<!-- Created with Inkscape (http://www.inkscape.org/) -->

<svg
   width="50mm"
   height="50mm"
   viewBox="0 0 50 50"
   version="1.1"
   id="svg29814"
   sodipodi:docname="ECHQ-monitored-sticker.svg"
   inkscape:version="1.2.1 (9c6d41e410, 2022-07-14)"
   xmlns:inkscape="http://www.inkscape.org/namespaces/inkscape"
   xmlns:sodipodi="http://sodipodi.sourceforge.net/DTD/sodipodi-0.dtd"
   xmlns:xlink="http://www.w3.org/1999/xlink"
   xmlns="http://www.w3.org/2000/svg"
   xmlns:svg="http://www.w3.org/2000/svg">
  <sodipodi:namedview
     id="namedview29816"
     pagecolor="#ffffff"
     bordercolor="#000000"
     borderopacity="0.25"
     inkscape:showpageshadow="2"
     inkscape:pageopacity="0.0"
     inkscape:pagecheckerboard="0"
     inkscape:deskcolor="#d1d1d1"
     inkscape:document-units="mm"
     showgrid="false"
     inkscape:zoom="4.3540636"
     inkscape:cx="43.063221"
     inkscape:cy="99.791837"
     inkscape:window-width="1920"
     inkscape:window-height="991"
     inkscape:window-x="-9"
     inkscape:window-y="-9"
     inkscape:window-maximized="1"
     inkscape:current-layer="layer2" />
  <defs
     id="defs29811">
    <rect
       x="418.67126"
       y="217.94292"
       width="113.0315"
       height="73.40551"
       id="rect36759" />
    <rect
       x="397.55905"
       y="176.69292"
       width="116.27953"
       height="65.935036"
       id="rect36618" />
    <rect
       x="278.03149"
       y="156.23032"
       width="172.79527"
       height="39.950787"
       id="rect34506" />
  </defs>
  <g
     inkscape:label="Layer 1"
     inkscape:groupmode="layer"
     id="layer1"
     style="display:inline" />
  <g
     inkscape:groupmode="layer"
     id="layer2"
     inkscape:label="Layer 2"
     style="display:inline">
    <path
       id="path31802"
       style="display:inline;fill:#223264;fill-opacity:1;stroke-width:2.12348;stroke-linecap:round"
       d="M 24.651207,5.0029705 A 20,20 0 0 0 5.0029771,25.349307 20,20 0 0 0 25.349306,44.99702 20,20 0 0 0 44.997031,24.651208 20,20 0 0 0 24.651207,5.0029705 Z m 0.01746,1.0003027 A 19,19 0 0 1 43.997243,24.66866 19,19 0 0 1 25.331855,43.997234 19,19 0 0 1 6.0027638,25.331856 19,19 0 0 1 24.668667,6.0032732 Z" />
    <g
       id="g34450"
       transform="rotate(-1,-2997.4385,1126.7983)"
       style="display:inline">
      <circle
         style="fill:#223264;fill-opacity:1;stroke-width:6.64176;stroke-linecap:round"
         id="path32993"
         cx="43.7687"
         cy="77.916634"
         r="14" />
      <path
         style="fill:#ffffff;fill-opacity:1;stroke-width:0.111424"
         d="m 41.629466,88.982113 c -0.302376,-0.03428 -0.629257,-0.167863 -0.973398,-0.397774 -0.15426,-0.103099 -0.434658,-0.320025 -0.434605,-0.336304 4.1e-5,-0.01344 0.429685,-0.135548 0.595478,-0.169691 0.203122,-0.0418 0.298075,-0.05215 0.479972,-0.05215 0.231941,0 0.452187,0.0375 0.683375,0.116407 0.04637,0.01586 0.08643,0.02877 0.08898,0.02877 0.0027,0 -0.03253,-0.02541 -0.0781,-0.05659 -0.222343,-0.151719 -0.404105,-0.341076 -0.545165,-0.567949 -0.08858,-0.142458 -0.332702,-0.67617 -0.316652,-0.692233 0.0121,-0.0121 0.361467,0.07326 0.549628,0.134608 0.708739,0.231282 1.079522,0.627012 1.178347,1.257587 l 0.01075,0.07071 0.05148,0.0054 c 0.100008,0.01075 0.184478,0.07958 0.212087,0.172567 0.01774,0.05955 0.01748,0.08455 -10e-4,0.147929 -0.01075,0.03898 -0.02675,0.06264 -0.06372,0.09866 -0.05525,0.05377 -0.0988,0.0707 -0.181816,0.0703 -0.06842,-2.28e-4 -0.118154,-0.02191 -0.168763,-0.07353 l -0.03777,-0.03858 -0.04543,0.02823 c -0.163494,0.101756 -0.41213,0.200689 -0.592023,0.235557 -0.111972,0.02178 -0.303936,0.02998 -0.411982,0.01774 z m 1.37499,-0.512393 c 0,-0.0121 -0.03858,-0.0531 -0.05068,-0.0531 -0.0054,0 -0.02164,0.01075 -0.03616,0.02541 l -0.02661,0.02541 0.03025,0.03118 0.03024,0.03119 0.02648,-0.02541 c 0.01452,-0.01398 0.02648,-0.02957 0.02648,-0.03468 z m 0.233366,0.510592 c 0.0054,-0.0067 0.07796,-0.100142 0.162002,-0.208189 l 0.152727,-0.1964 -0.146692,-0.183133 c -0.08065,-0.10068 -0.146691,-0.185337 -0.146691,-0.188039 0,-0.0027 0.09503,-0.0054 0.211132,-0.0054 h 0.211119 l 0.03576,0.04476 c 0.01963,0.0246 0.03858,0.04826 0.04207,0.05229 0.004,0.004 0.0242,-0.016 0.04584,-0.04476 l 0.03952,-0.05229 h 0.216913 0.216913 l -0.15098,0.18812 -0.150967,0.18812 0.153521,0.196306 c 0.08441,0.107939 0.156773,0.201616 0.160725,0.208108 0.0054,0.0094 -0.03656,0.0121 -0.199532,0.0121 h -0.206751 l -0.05955,-0.07581 c -0.0328,-0.04167 -0.06237,-0.07245 -0.06587,-0.06842 -0.004,0.004 -0.03078,0.03817 -0.06076,0.07581 l -0.05444,0.06842 h -0.207638 c -0.164771,0 -0.205729,-0.0027 -0.198376,-0.0121 z m 2.346802,-0.04127 c -0.21366,-0.03092 -0.454029,-0.117213 -0.649354,-0.233285 -0.04059,-0.02406 -0.07581,-0.04396 -0.0781,-0.04396 -0.0027,0 -0.01747,0.01519 -0.03374,0.03361 -0.122053,0.13899 -0.366588,0.08347 -0.418461,-0.0949 -0.04369,-0.150281 0.04745,-0.291972 0.206173,-0.320536 0.05498,-0.0094 0.05861,-0.0121 0.0613,-0.03831 0.0013,-0.01532 0.01371,-0.07675 0.02688,-0.136369 0.135078,-0.610358 0.508697,-0.962523 1.261446,-1.189007 0.126891,-0.03818 0.399736,-0.103234 0.433381,-0.103368 0.02137,-9.4e-5 0.02137,-9.4e-5 -0.05699,0.188617 -0.240449,0.578783 -0.433354,0.831183 -0.851963,1.114848 -0.01344,0.0094 0.03428,-0.0027 0.108207,-0.02621 0.381335,-0.121918 0.720918,-0.138626 1.119566,-0.05511 0.139218,0.02917 0.163091,0.03549 0.417614,0.110493 l 0.197019,0.05807 -0.03199,0.02729 c -0.314945,0.269323 -0.735435,0.527731 -1.014154,0.623263 -0.187986,0.06439 -0.299527,0.08401 -0.49418,0.0867 -0.09597,0.0013 -0.187259,6.85e-4 -0.202825,-0.0013 z m -0.96403,-0.482888 0.02541,-0.02648 -0.03119,-0.03024 -0.03118,-0.03024 -0.02715,0.02836 -0.02715,0.02836 0.02715,0.02836 c 0.01492,0.01559 0.02971,0.02823 0.03307,0.02823 0.0027,0 0.01734,-0.0121 0.03132,-0.02648 z m -5.203523,-0.82341 c -0.407036,-0.05955 -0.810429,-0.304742 -1.213082,-0.737196 -0.15383,-0.165229 -0.266473,-0.303197 -0.253354,-0.310308 0.01385,-0.0081 0.260855,-0.0328 0.4595,-0.04705 0.530069,-0.03791 0.940586,0.06398 1.410718,0.350109 0.03616,0.02204 0.06842,0.04154 0.07178,0.04355 0.004,0.0027 -0.04906,-0.05054 -0.116542,-0.116676 -0.333077,-0.32637 -0.494314,-0.626112 -0.605129,-1.124996 -0.03562,-0.160417 -0.07541,-0.377316 -0.07003,-0.382612 0.0067,-0.0067 0.208578,0.08159 0.372019,0.164368 0.28794,0.145778 0.47942,0.279082 0.658883,0.45872 0.213633,0.213808 0.331627,0.423999 0.390462,0.695553 0.0254,0.117214 0.0418,0.299809 0.03696,0.41049 l -0.004,0.08737 0.04288,6.99e-4 c 0.134889,0.0027 0.237465,0.109686 0.237465,0.248743 0,0.0789 -0.0242,0.132134 -0.08374,0.184571 -0.07313,0.06439 -0.172044,0.08038 -0.263153,0.04234 -0.03737,-0.01559 -0.104444,-0.07568 -0.112375,-0.100681 -0.0067,-0.02312 -0.01075,-0.02245 -0.155133,0.02984 -0.127699,0.04624 -0.3027,0.08993 -0.414846,0.103637 -0.09288,0.01075 -0.310683,0.01075 -0.38952,-6.99e-4 z m 1.262117,-0.32957 0.02729,-0.0285 -0.03024,-0.03025 -0.03024,-0.03024 -0.03025,0.03024 -0.03024,0.03025 0.02729,0.0285 c 0.01505,0.01573 0.02998,0.0285 0.0332,0.0285 0.0027,0 0.01815,-0.01344 0.0332,-0.0285 z m 7.073594,0.291758 c -0.152445,-0.01774 -0.337957,-0.066 -0.513267,-0.133479 l -0.0621,-0.02393 -0.03226,0.04342 c -0.110224,0.148211 -0.351037,0.121515 -0.423502,-0.04691 -0.06855,-0.159207 0.02971,-0.329314 0.200217,-0.346722 l 0.05431,-0.0054 0.004,-0.16508 c 0.004,-0.177205 0.0203,-0.295642 0.05767,-0.426674 0.122322,-0.428986 0.460199,-0.775251 1.041791,-1.0676 0.165121,-0.08294 0.347031,-0.162177 0.354787,-0.154421 0.0027,0.0027 -0.0081,0.07702 -0.02393,0.164436 -0.120171,0.644877 -0.273422,0.96583 -0.632,1.324139 l -0.137148,0.137054 0.09907,-0.06009 c 0.277872,-0.168589 0.528242,-0.265935 0.811316,-0.315469 0.103234,-0.01801 0.151571,-0.02057 0.386792,-0.0203 0.251485,3.36e-4 0.327835,0.0054 0.606124,0.03777 0.02984,0.004 0.0543,0.0081 0.0543,0.01075 0,0.01801 -0.279538,0.327459 -0.407076,0.450668 -0.4786,0.462349 -0.944014,0.655819 -1.438906,0.598153 z m -0.830255,-0.336922 0.0254,-0.02648 -0.02836,-0.02715 -0.02836,-0.02715 -0.02836,0.02715 -0.02836,0.02715 0.02541,0.02648 c 0.01398,0.01452 0.02809,0.02648 0.03132,0.02648 0.0027,0 0.01734,-0.0121 0.03132,-0.02648 z m -8.575301,-1.283908 c -0.08482,-0.02164 -0.159851,-0.09651 -0.182971,-0.182353 -0.0067,-0.02339 -0.01505,-0.03562 -0.02567,-0.03562 -0.04154,-2.29e-4 -0.285467,-0.0293 -0.352045,-0.04194 -0.365056,-0.06923 -0.648668,-0.208794 -0.88538,-0.435613 -0.122188,-0.117079 -0.194452,-0.204129 -0.28872,-0.347783 -0.134608,-0.205098 -0.254886,-0.463411 -0.353617,-0.75943 -0.06129,-0.183617 -0.142081,-0.481127 -0.13079,-0.481127 0.004,0 0.0867,0.02756 0.183617,0.06116 0.463854,0.160887 0.739024,0.2961 0.99469,0.488736 0.107804,0.08132 0.311826,0.283276 0.396295,0.392491 0.03361,0.04355 0.06842,0.08818 0.07729,0.09907 0.0121,0.01492 0.0094,-0.0013 -0.01075,-0.06586 -0.106057,-0.332782 -0.10888,-0.682595 -0.0094,-1.205527 0.01559,-0.0824 0.0285,-0.151746 0.0285,-0.154152 0,-0.01344 0.15266,0.13532 0.250356,0.243003 0.286945,0.316275 0.457537,0.582063 0.54339,0.846587 0.02083,0.06398 0.02379,0.06829 0.04584,0.06372 0.01344,-0.0027 0.246485,-0.03925 0.518886,-0.08119 0.272401,-0.04207 0.496626,-0.07769 0.498266,-0.07944 0.0013,-0.0013 -0.08966,-0.0785 -0.202825,-0.170834 -0.113181,-0.09235 -0.234401,-0.191158 -0.269323,-0.219655 -0.03495,-0.0285 -0.06251,-0.05256 -0.0613,-0.05363 10e-4,-0.001 0.372691,0.01075 0.825537,0.02662 0.452845,0.01559 0.825563,0.02621 0.828265,0.02352 0.0027,-0.0027 -0.0328,-0.05202 -0.0789,-0.109552 -0.450493,-0.562276 -0.730556,-1.24182 -0.818991,-1.987203 -0.02097,-0.177245 -0.02393,-0.612316 -0.0054,-0.787726 0.06815,-0.640816 0.268744,-1.210932 0.611635,-1.73846 0.470992,-0.724575 1.175121,-1.270263 1.993736,-1.545088 0.375823,-0.126166 0.717651,-0.187707 1.138895,-0.205035 l 0.162486,-0.0067 -0.459002,-1.009427 c -0.252439,-0.555187 -0.460238,-1.011086 -0.461757,-1.013112 -0.0013,-0.0022 -0.06761,0.02207 -0.14688,0.05354 -0.29653,0.117738 -0.503589,0.168903 -0.719588,0.177817 -0.299607,0.01237 -0.506546,-0.06097 -0.744442,-0.263816 l -0.04234,-0.03615 -0.03495,0.03499 c -0.09181,0.09177 -0.241632,0.09706 -0.33832,0.01196 -0.05794,-0.05093 -0.08441,-0.110009 -0.08388,-0.186829 3.5e-4,-0.07213 0.01707,-0.115869 0.06398,-0.167724 0.05081,-0.05628 0.116004,-0.08091 0.199613,-0.07554 l 0.06748,0.0043 0.01694,-0.04803 c 0.240275,-0.679107 0.746848,-0.976723 1.663239,-0.977164 l 0.210608,-1.01e-4 -0.06385,0.09198 c -0.08267,0.119163 -0.214157,0.292641 -0.280412,0.370047 -0.02877,0.0336 -0.05108,0.06225 -0.04974,0.06367 0.0013,0.0013 0.04678,-0.0042 0.100815,-0.0125 0.12958,-0.0198 0.371858,-0.01317 0.496613,0.01366 0.09597,0.02065 0.209559,0.05562 0.281393,0.08671 l 0.04664,0.02019 -0.06546,0.06111 c -0.169166,0.157918 -0.445371,0.299342 -0.674557,0.345388 l -0.06076,0.01223 0.148802,0.07271 c 0.08186,0.03999 0.189276,0.09654 0.238756,0.125656 l 0.08993,0.05295 -0.04127,0.02354 c -0.02272,0.01291 -0.07487,0.04057 -0.116139,0.06135 -0.0539,0.02721 -0.07097,0.03994 -0.06116,0.04546 0.02971,0.01659 0.728755,0.301722 0.731954,0.298521 0.0027,-0.0028 -0.276152,-1.661053 -0.29497,-1.753933 l -0.0054,-0.02596 h 0.397398 0.397411 l -0.0054,0.03066 c -0.0081,0.04904 -0.02769,0.554011 -0.02218,0.559592 0.0027,0.0028 0.03844,-0.0055 0.07931,-0.01855 0.172635,-0.05492 0.376536,-0.07776 0.554816,-0.06218 0.06251,0.0055 0.130521,0.01379 0.151182,0.01855 0.02057,0.0047 0.03912,0.007 0.041,0.0051 0.0027,-0.0022 -0.02446,-0.03569 -0.05874,-0.07497 -0.117617,-0.1348 -0.333615,-0.435145 -0.321652,-0.447153 0.0121,-0.01169 0.24416,-0.01277 0.400987,-0.0022 0.339772,0.02358 0.585437,0.08044 0.792913,0.183534 0.131462,0.06534 0.213135,0.12415 0.321478,0.23157 0.143398,0.142201 0.239858,0.294417 0.325026,0.51297 l 0.03616,0.09283 0.04987,-0.0063 c 0.07447,-0.0093 0.144649,0.01414 0.201455,0.06729 0.172325,0.161191 0.04557,0.446598 -0.18886,0.425338 -0.06385,-0.0058 -0.115869,-0.03074 -0.160013,-0.07664 l -0.03226,-0.0336 -0.04315,0.04026 c -0.349329,0.325623 -0.81559,0.351137 -1.474675,0.08071 -0.12958,-0.05319 -0.450574,-0.2063 -0.450574,-0.214952 0,-0.0097 0.219413,-0.130884 0.350136,-0.193327 l 0.125682,-0.06001 -0.05632,-0.01143 c -0.204976,-0.0419 -0.456824,-0.1606 -0.614256,-0.289496 l -0.03912,-0.03203 -0.0054,0.06401 c -0.0027,0.0352 -0.02285,0.433343 -0.04396,0.884754 -0.0211,0.451414 -0.04127,0.832239 -0.0449,0.846284 -0.0067,0.02487 -0.01398,0.01925 -0.292591,-0.214623 -0.157338,-0.13208 -0.28794,-0.240155 -0.290225,-0.240155 -0.0027,0 0.0013,0.01379 0.0081,0.03066 0.0067,0.01687 0.143856,0.354103 0.304379,0.74942 l 0.291838,0.718763 0.0613,0.0062 c 0.121649,0.01223 0.387141,0.06122 0.529343,0.09756 1.018335,0.260224 1.882464,0.919774 2.405584,1.836065 0.197314,0.345639 0.357354,0.781584 0.43283,1.179066 0.07487,0.393997 0.0867,0.85767 0.03199,1.254893 -0.09503,0.690943 -0.391496,1.369707 -0.833709,1.908971 -0.05256,0.06412 -0.09423,0.117617 -0.09262,0.118961 0.0027,0.0027 1.41057,-0.0832 1.520713,-0.09248 0.0453,-0.004 0.0531,-0.0027 0.04248,0.0067 -0.0067,0.0067 -0.129446,0.106863 -0.271769,0.222719 -0.14231,0.11587 -0.254806,0.211939 -0.249993,0.213458 0.0081,0.0027 1.203121,0.18773 1.252479,0.194196 0.01425,0.0013 0.02272,-0.01519 0.04812,-0.09678 0.05767,-0.185929 0.116138,-0.305414 0.242008,-0.494153 0.123129,-0.184611 0.271071,-0.360136 0.469017,-0.556321 l 0.09382,-0.09288 0.02541,0.134285 c 0.103368,0.545823 0.103906,0.857367 0.0027,1.212033 -0.02137,0.07433 -0.02715,0.10525 -0.01707,0.08993 0.03804,-0.05726 0.152727,-0.192058 0.235946,-0.277267 0.309756,-0.317162 0.634003,-0.49887 1.2904,-0.723109 l 0.133613,-0.04557 -0.0375,0.14313 c -0.117886,0.449566 -0.278611,0.835685 -0.464164,1.114821 -0.08616,0.12958 -0.150281,0.207543 -0.259994,0.316033 -0.295145,0.291879 -0.679679,0.45173 -1.174745,0.488333 l -0.09396,0.0067 -0.02245,0.05874 c -0.06291,0.164959 -0.264592,0.21788 -0.394508,0.103503 -0.06331,-0.05578 -0.08347,-0.10068 -0.08347,-0.185862 0,-0.05457 0.0054,-0.07971 0.02057,-0.109686 0.02245,-0.04248 0.100545,-0.116676 0.122859,-0.116676 0.0081,0 0.0121,-0.0054 0.0094,-0.0121 -0.03723,-0.09046 -0.07689,-0.200567 -0.09624,-0.267293 -0.01344,-0.04557 -0.02527,-0.08428 -0.02688,-0.08576 -0.0027,-0.0027 -1.644366,-0.504247 -1.840377,-0.562854 -0.0054,-0.0013 0.09288,-0.07393 0.21698,-0.161048 0.124069,-0.0871 0.231269,-0.163736 0.238097,-0.170215 0.0094,-0.0094 -0.104443,-0.01344 -0.57311,-0.01868 l -0.585518,-0.0067 -0.07312,0.06788 c -0.341224,0.316558 -0.815603,0.603194 -1.272912,0.769121 -0.40764,0.147915 -0.787146,0.218203 -1.22987,0.227787 -0.460736,0.0094 -0.792093,-0.03508 -1.235422,-0.168078 -0.527529,-0.158252 -1.085343,-0.4811 -1.488736,-0.861655 l -0.06345,-0.05982 -0.551738,0.01761 c -0.303451,0.0094 -0.589792,0.01774 -0.636314,0.01788 -0.07272,3.36e-4 -0.08267,0.0027 -0.0707,0.01358 0.0081,0.0067 0.115332,0.08455 0.239495,0.171627 0.124069,0.0871 0.221765,0.15965 0.21698,0.161142 -0.0054,0.0013 -0.350445,0.106729 -0.76814,0.233971 -0.417681,0.12716 -0.76822,0.235126 -0.778974,0.239804 -0.01519,0.0067 -0.02218,0.02379 -0.03186,0.07783 -0.01707,0.09544 -0.04987,0.205393 -0.09409,0.315509 -0.02057,0.05108 -0.03656,0.09315 -0.03549,0.09356 10e-4,3.36e-4 0.01989,0.0121 0.04207,0.02648 0.156545,0.100276 0.148856,0.335349 -0.01385,0.423932 -0.05068,0.02769 -0.129581,0.03938 -0.178819,0.02688 z m 0.197543,-0.273274 c 0.0094,-0.0094 -0.0081,-0.07675 -0.01976,-0.07662 -0.004,0 -0.02177,0.004 -0.04073,0.0094 l -0.03428,0.0094 0.0094,0.03858 c 0.0094,0.03764 0.01075,0.03844 0.04288,0.0332 0.01828,-0.0027 0.0371,-0.0094 0.04207,-0.01425 z m 10.529773,-0.05296 c 0.004,-0.01815 0.0067,-0.03602 0.0081,-0.03965 10e-4,-0.004 -0.016,-0.0121 -0.03791,-0.01828 l -0.03979,-0.0121 -0.0094,0.03468 c -0.01344,0.04785 -0.01344,0.04718 0.02097,0.05713 0.04826,0.01398 0.05175,0.0121 0.05834,-0.02245 z m -5.093677,-1.042973 c 0.404038,-0.03455 0.798022,-0.145859 1.162392,-0.328387 0.312579,-0.156585 0.549964,-0.325685 0.802377,-0.571538 0.287738,-0.280238 0.462107,-0.517098 0.639393,-0.868484 0.169328,-0.335605 0.266782,-0.654031 0.321948,-1.051886 0.02057,-0.14809 0.02352,-0.594847 0.0054,-0.745277 -0.04584,-0.372666 -0.13731,-0.696899 -0.288182,-1.021054 -0.258852,-0.55617 -0.71288,-1.061538 -1.24213,-1.382566 -1.275089,-0.773451 -2.905032,-0.578069 -3.957496,0.474385 -0.517542,0.51755 -0.831881,1.167954 -0.925545,1.915086 -0.02016,0.160744 -0.02312,0.534381 -0.0054,0.688668 0.04705,0.409845 0.149448,0.762212 0.322916,1.111097 0.164825,0.331546 0.347084,0.58326 0.616474,0.85144 0.415007,0.413152 0.904347,0.691964 1.472619,0.839046 0.136718,0.03535 0.368255,0.07608 0.504718,0.08858 0.128102,0.0121 0.438033,0.0121 0.570745,0.001 z m -2.042449,-2.619351 c -0.184195,-0.12165 -0.340968,-0.224575 -0.348375,-0.228836 -0.03495,-0.02016 0.221712,-0.471202 0.378714,-0.665532 0.349046,-0.432043 0.769752,-0.578963 1.237828,-0.432287 0.12622,0.03957 0.22237,0.08248 0.543148,0.242554 0.32629,0.162825 0.441716,0.20806 0.57135,0.223917 0.145012,0.01774 0.287308,-0.0205 0.421499,-0.113275 0.111165,-0.07687 0.28052,-0.260389 0.400583,-0.434184 0.004,-0.0067 0.681534,0.446817 0.681789,0.456855 3.5e-4,0.01597 -0.16633,0.304015 -0.24182,0.417748 -0.285333,0.4299 -0.594107,0.667634 -0.946609,0.728876 -0.09705,0.0168 -0.289055,0.01452 -0.382074,-0.004 -0.179597,-0.03696 -0.368322,-0.113988 -0.607468,-0.247681 -0.424053,-0.237089 -0.471893,-0.258354 -0.595814,-0.264914 -0.104578,-0.0054 -0.170659,0.0094 -0.271487,0.05941 -0.13692,0.06855 -0.273664,0.193094 -0.439995,0.400745 -0.03535,0.04409 -0.06466,0.08065 -0.06533,0.08132 -6.85e-4,6.99e-4 -0.151773,-0.09839 -0.335968,-0.219978 z m -0.886792,-6.583526 v -0.043 l -0.04006,0.0028 c -0.03992,0.0028 -0.04006,0.0031 -0.04301,0.043 l -0.0027,0.0401 h 0.04301 0.04301 z m 5.51703,-0.03955 0.0027,-0.0401 h -0.04301 -0.04302 v 0.043 0.043 l 0.04006,-0.0028 c 0.03992,-0.0028 0.04006,-0.0031 0.04301,-0.04299 z m -9.710405,8.044504 c -0.08011,-0.0121 -0.158104,-0.07272 -0.191158,-0.149367 -0.01909,-0.04436 -0.01882,-0.146679 6.99e-4,-0.190607 l 0.01479,-0.03361 -0.08307,-0.05861 c -0.691171,-0.487821 -0.885596,-1.0908 -0.649945,-2.015579 0.0328,-0.128733 0.13442,-0.45491 0.145119,-0.465803 0.004,-0.0044 0.02836,0.02397 0.162567,0.191437 0.311638,0.389034 0.460078,0.658604 0.538874,0.97867 0.03038,0.123532 0.05673,0.286784 0.05861,0.362933 0.0013,0.05175 0.01465,0.117751 0.01667,0.08159 0.0027,-0.05027 0.08038,-0.326316 0.119902,-0.426257 0.119096,-0.300562 0.266971,-0.507868 0.611689,-0.857433 0.177205,-0.179686 0.208431,-0.207607 0.214332,-0.191645 0.01075,0.02882 0.05323,0.292435 0.07084,0.439714 0.01976,0.164411 0.02272,0.54616 0.0054,0.669799 -0.05068,0.356574 -0.154703,0.605909 -0.350015,0.838508 -0.08684,0.103369 -0.210312,0.209802 -0.357004,0.307579 -0.102966,0.06855 -0.122322,0.08509 -0.111165,0.0945 0.0081,0.0067 0.02648,0.0371 0.04221,0.06855 0.09194,0.183993 -0.05498,0.385703 -0.259174,0.355794 z m 0.161249,-0.269673 c 0.02541,-0.0067 0.02742,-0.01573 0.0121,-0.05914 -0.0081,-0.02473 -0.01398,-0.0289 -0.03065,-0.02366 -0.04933,0.01532 -0.06197,0.02285 -0.05807,0.03414 0.02124,0.06022 0.02473,0.0656 0.03885,0.06022 0.0081,-0.0027 0.02514,-0.0081 0.03764,-0.01075 z m 13.522662,0.212585 c -0.150348,-0.06802 -0.198067,-0.250961 -0.0992,-0.380475 l 0.03213,-0.04207 -0.07071,-0.04409 c -0.114525,-0.07138 -0.217854,-0.151827 -0.313076,-0.24373 -0.249079,-0.240382 -0.381671,-0.510834 -0.44228,-0.902115 -0.02312,-0.149045 -0.02285,-0.525279 3.36e-4,-0.712254 0.01788,-0.14401 0.06076,-0.403421 0.07138,-0.432095 0.0054,-0.01506 0.03468,0.0098 0.181386,0.155186 0.461798,0.457569 0.634836,0.745554 0.747573,1.244237 l 0.02231,0.09866 0.0067,-0.066 c 0.02473,-0.256728 0.04597,-0.369062 0.10189,-0.540756 0.06869,-0.210709 0.206334,-0.458146 0.388633,-0.698863 0.08979,-0.118585 0.259027,-0.325535 0.269202,-0.32921 0.01075,-0.0039 0.107536,0.293859 0.151249,0.465969 0.171116,0.67464 0.10888,1.178135 -0.195876,1.584176 -0.10888,0.145092 -0.281111,0.305172 -0.475589,0.442038 l -0.06304,0.04436 0.01492,0.03495 c 0.05269,0.123263 -0.01949,0.283706 -0.147081,0.327191 -0.05847,0.01989 -0.129446,0.01788 -0.180458,-0.0054 z m 0.04328,-0.281797 0.01075,-0.03602 -0.03522,-0.01075 c -0.04678,-0.01411 -0.04409,-0.01519 -0.05673,0.02312 -0.0121,0.03804 -0.01075,0.04234 0.03159,0.05713 0.03576,0.0121 0.03616,0.0121 0.04973,-0.03361 z M 36.743347,80.727441 c -0.05605,-0.01089 -0.08818,-0.02972 -0.132672,-0.078 -0.03898,-0.04229 -0.06855,-0.114189 -0.06855,-0.16671 0,-0.07893 0.06761,-0.190299 0.131731,-0.216837 l 0.02863,-0.01183 -0.03186,-0.04369 c -0.124472,-0.170548 -0.242627,-0.388259 -0.292147,-0.538174 -0.08805,-0.266368 -0.09463,-0.54859 -0.01962,-0.83727 0.07796,-0.300046 0.282657,-0.690294 0.545192,-1.039343 l 0.03791,-0.05037 0.02675,0.06924 c 0.110762,0.286734 0.19964,0.592151 0.230704,0.792475 0.02245,0.144295 0.02258,0.41742 3.5e-4,0.560161 -0.03387,0.217934 -0.102965,0.455428 -0.21085,0.724558 -0.0336,0.08382 -0.06331,0.158774 -0.06613,0.166559 -0.0027,0.0078 0.01815,-0.02854 0.04651,-0.08069 0.297484,-0.547497 0.578246,-0.801158 1.124701,-1.016158 0.157983,-0.06216 0.446945,-0.162176 0.452496,-0.156626 0.0081,0.0075 -0.05269,0.284639 -0.08563,0.393714 -0.06372,0.211269 -0.139474,0.378175 -0.240382,0.530026 -0.0742,0.111622 -0.24053,0.279965 -0.343415,0.347501 -0.205648,0.135006 -0.472565,0.224162 -0.7715,0.257692 -0.08563,0.0095 -0.10068,0.0137 -0.09544,0.02598 0.04127,0.09619 0.0406,0.167524 -0.0027,0.246177 -0.05121,0.09416 -0.156599,0.142575 -0.264618,0.121609 z m 0.196118,-0.24894 c 0.0027,-0.0024 0.0027,-0.02166 6.99e-4,-0.04295 l -0.004,-0.03871 -0.03898,0.0028 c -0.04194,0.0031 -0.05081,0.01641 -0.03979,0.06019 0.0054,0.01917 0.0121,0.02284 0.04167,0.02284 0.01976,0 0.03791,-0.0017 0.04019,-0.0042 z m 13.706413,0.192161 c -0.122322,-0.05531 -0.181224,-0.194134 -0.134419,-0.316649 l 0.01855,-0.04853 -0.09073,-0.01102 c -0.226604,-0.02762 -0.439954,-0.08464 -0.603704,-0.161376 -0.433207,-0.20301 -0.694102,-0.597789 -0.826236,-1.250259 -0.01344,-0.06506 -0.02393,-0.119835 -0.02393,-0.121704 0,-0.0017 0.06681,0.01907 0.148587,0.04655 0.674275,0.226708 0.972659,0.423885 1.25002,0.826034 0.06654,0.09653 0.14067,0.221129 0.192126,0.323108 0.01761,0.03503 0.03374,0.06368 0.03562,0.06368 0.0013,0 -0.02191,-0.06261 -0.05283,-0.139149 -0.111971,-0.276483 -0.186251,-0.528388 -0.22116,-0.749552 -0.02487,-0.157482 -0.02245,-0.445145 0.0054,-0.59714 0.03885,-0.214929 0.09181,-0.398502 0.200003,-0.692476 l 0.05,-0.135875 0.02688,0.0321 c 0.01479,0.01764 0.06654,0.08942 0.114928,0.159458 0.278101,0.402726 0.434968,0.75819 0.482243,1.092838 0.01936,0.136769 0.01532,0.326611 -0.0094,0.45432 -0.03871,0.198934 -0.136436,0.422156 -0.273866,0.625826 -0.0414,0.06142 -0.07958,0.118222 -0.08482,0.126206 -0.0067,0.01062 -0.0054,0.01586 0.0054,0.01938 0.0081,0.0028 0.03602,0.02655 0.06277,0.05303 0.160362,0.159036 0.05135,0.419299 -0.175942,0.420203 -0.0324,1.12e-4 -0.06788,-0.007 -0.09436,-0.01901 z m 0.03186,-0.246899 c 0.01344,-0.04931 0.0081,-0.06138 -0.02944,-0.06613 -0.04234,-0.0054 -0.04557,-0.0028 -0.05229,0.04198 -0.0054,0.03736 -2.15e-4,0.04201 0.05121,0.04428 0.01828,6.99e-4 0.02635,-0.0046 0.03051,-0.02012 z M 37.557579,78.723601 c -0.05417,-0.01932 -0.101755,-0.06214 -0.130924,-0.117954 -0.04866,-0.0929 -0.02796,-0.22539 0.04597,-0.294519 0.03092,-0.02891 0.102428,-0.06372 0.131731,-0.06402 0.01075,-1.12e-4 0.02191,-0.0024 0.0246,-0.0051 0.0027,-0.0028 -0.0027,-0.03775 -0.0121,-0.07783 -0.148224,-0.617302 -0.02756,-1.091462 0.387626,-1.523417 0.120843,-0.125682 0.234911,-0.22631 0.369115,-0.325498 0.09987,-0.07384 0.304313,-0.208576 0.388459,-0.25606 l 0.05431,-0.03059 v 0.06453 c 0,0.09694 -0.01761,0.350805 -0.03361,0.484019 -0.04476,0.37288 -0.143775,0.653795 -0.331196,0.939838 -0.01344,0.01967 -10e-4,0.01453 0.06372,-0.02749 0.273059,-0.177354 0.602602,-0.261428 1.024733,-0.261428 h 0.09813 l -0.04449,0.08255 c -0.143237,0.266113 -0.282913,0.485714 -0.406498,0.639147 -0.0418,0.05189 -0.124338,0.141184 -0.183496,0.198434 -0.184517,0.178651 -0.353214,0.27425 -0.56807,0.321927 -0.125413,0.02784 -0.372906,0.0161 -0.513106,-0.02434 l -0.03065,-0.0089 v 0.05881 c 0,0.137475 -0.103906,0.241635 -0.240571,0.241136 -0.03119,-1.11e-4 -0.07299,-0.006 -0.09315,-0.01317 z m 0.23924,-0.193464 0.01909,-0.0375 -0.03764,-0.01918 -0.03764,-0.01917 -0.01909,0.03756 -0.01922,0.03756 0.03549,0.01873 c 0.01949,0.01022 0.03643,0.0189 0.03764,0.01914 10e-4,2.24e-4 0.01075,-0.01645 0.02137,-0.03709 z m 12.028307,0.161331 c -0.04705,-0.01544 -0.08213,-0.03842 -0.116004,-0.07584 -0.04597,-0.05091 -0.06318,-0.09537 -0.06318,-0.16336 0,-0.04264 -0.0027,-0.0553 -0.0121,-0.05172 -0.108746,0.04172 -0.443974,0.05508 -0.563124,0.02242 -0.201804,-0.0553 -0.365647,-0.150496 -0.533994,-0.310248 -0.19179,-0.181976 -0.398178,-0.473674 -0.575436,-0.813292 l -0.06197,-0.118584 0.03145,9.4e-5 c 0.06761,2.24e-4 0.346964,0.01942 0.422924,0.0291 0.256526,0.03276 0.465616,0.106232 0.658346,0.231385 0.04301,0.02791 0.07984,0.05076 0.08186,0.05076 0.0027,0 -0.01976,-0.03715 -0.04839,-0.08255 -0.155241,-0.245935 -0.249214,-0.527601 -0.290346,-0.870279 -0.02514,-0.208825 -0.04234,-0.547165 -0.02782,-0.547165 0.01075,0 0.169113,0.09784 0.296112,0.183185 0.556712,0.374038 0.859626,0.769914 0.939028,1.227184 0.0328,0.188587 0.01868,0.456027 -0.0367,0.699711 l -0.02178,0.09594 0.03334,0.0063 c 0.05256,0.0098 0.0996,0.03808 0.139944,0.08392 0.08119,0.09223 0.08119,0.230438 0,0.322658 -0.02043,0.02325 -0.05457,0.05116 -0.07595,0.06201 -0.04194,0.02137 -0.136825,0.03129 -0.176076,0.0184 z m -0.01828,-0.185389 c 0.01532,-0.0079 0.02782,-0.01663 0.02782,-0.01936 0,-0.0046 -0.02782,-0.06197 -0.03307,-0.0681 -0.004,-0.0055 -0.07071,0.03004 -0.07071,0.038 0,0.01582 0.0289,0.06382 0.03844,0.06382 0.0054,0 0.02218,-0.0065 0.0375,-0.0144 z m -9.748164,-1.773468 c -0.140831,-0.02668 -0.303962,-0.09544 -0.421109,-0.177453 l -0.06035,-0.04225 -0.02312,0.04625 c -0.08764,0.175833 -0.352193,0.17403 -0.440412,-0.0031 -0.04651,-0.09321 -0.02514,-0.224063 0.04758,-0.292246 0.04275,-0.03999 0.113854,-0.06724 0.175727,-0.06729 h 0.0543 V 76.06959 c 0,-0.493767 0.206119,-0.844541 0.667877,-1.136633 0.171936,-0.108759 0.42619,-0.230184 0.655389,-0.312975 0.09046,-0.03269 0.09208,-0.03291 0.08724,-0.01223 -0.03858,0.166706 -0.09813,0.387743 -0.128371,0.475976 -0.13079,0.381975 -0.329516,0.643534 -0.701992,0.924054 -0.07165,0.054 -0.28966,0.201528 -0.365567,0.24744 -0.07447,0.04503 -0.02984,0.02627 0.108477,-0.04565 0.296005,-0.153881 0.548915,-0.251616 0.762211,-0.294548 0.08805,-0.0177 0.138627,-0.02176 0.273168,-0.02187 0.170269,-1.12e-4 0.224507,0.0065 0.391496,0.04758 0.110224,0.02714 0.410383,0.127121 0.410383,0.136721 0,0.0098 -0.221241,0.184536 -0.342488,0.270551 -0.280923,0.199297 -0.546428,0.32781 -0.775438,0.375342 -0.106057,0.02201 -0.28423,0.02637 -0.375084,0.0091 z m -0.634661,-0.16199 c 0.03831,-0.01827 0.03871,-0.01953 0.01788,-0.06316 l -0.01546,-0.03252 -0.03401,0.01543 c -0.01868,0.0085 -0.03576,0.01656 -0.03791,0.01796 -0.004,0.0028 0.02809,0.07821 0.0332,0.07821 0.0013,0 0.01801,-0.0071 0.03629,-0.01589 z m 7.797469,0.129244 c -0.250961,-0.02515 -0.513468,-0.135967 -0.831626,-0.351075 -0.107401,-0.07264 -0.35683,-0.261907 -0.406941,-0.308853 -0.0094,-0.0091 0.310267,-0.116233 0.436675,-0.146051 0.15922,-0.03756 0.241471,-0.04574 0.412762,-0.04109 0.128236,0.0035 0.179315,0.0093 0.271204,0.03039 0.205218,0.0473 0.405947,0.125911 0.692811,0.271318 0.09047,0.04586 0.16246,0.08132 0.159933,0.0788 -0.0027,-0.0024 -0.07003,-0.04761 -0.149892,-0.100197 -0.646638,-0.42548 -0.862636,-0.719375 -1.032179,-1.404409 -0.02366,-0.09564 -0.04154,-0.17543 -0.03965,-0.177323 0.0054,-0.0052 0.204277,0.06946 0.326464,0.122496 0.484851,0.210466 0.798882,0.462863 0.954607,0.76725 0.0902,0.176192 0.120305,0.304443 0.127429,0.541646 l 0.0054,0.174526 0.06251,6.99e-4 c 0.07649,6.98e-4 0.124607,0.0233 0.177568,0.08339 0.117214,0.133143 0.05444,0.348286 -0.116004,0.397843 -0.06251,0.01816 -0.129042,0.01277 -0.183294,-0.01492 -0.03589,-0.01831 -0.112912,-0.09778 -0.113181,-0.116783 -3.5e-4,-0.03539 -0.01694,-0.0335 -0.08065,0.0091 -0.215165,0.144286 -0.443584,0.206425 -0.673912,0.183341 z m 0.948101,-0.194981 c 0.0081,-0.01897 0.01344,-0.0358 0.0121,-0.03744 -0.0013,-0.0017 -0.01882,-0.0095 -0.03818,-0.0177 l -0.03522,-0.01475 -0.01385,0.03301 c -0.01841,0.04421 -0.01788,0.04722 0.0121,0.05908 0.04167,0.01648 0.04853,0.01414 0.06372,-0.02222 z m -0.17453,-0.252257 c 0,-0.0022 -0.0067,-0.0063 -0.01465,-0.0093 -0.0081,-0.0031 -0.0121,-0.0017 -0.0094,0.0038 0.0054,0.009 0.02352,0.01331 0.02352,0.0056 z m -6.772414,-2.295428 c -0.06062,-0.02989 -0.08267,-0.104417 -0.05659,-0.191564 0.0094,-0.03301 0.004,-0.05367 -0.08079,-0.309619 -0.06707,-0.201165 -0.09584,-0.275672 -0.107938,-0.279529 -0.0094,-0.0028 -0.02904,-0.01823 -0.04422,-0.03405 -0.02352,-0.02463 -0.02742,-0.03593 -0.02675,-0.07772 3.5e-4,-0.0269 0.0027,-0.05741 0.004,-0.06777 0.004,-0.02609 -0.281461,-0.799646 -0.299971,-0.811315 -0.03361,-0.0212 -0.09866,-0.08563 -0.111568,-0.110372 -0.02137,-0.04136 -0.03132,-0.111649 -0.02245,-0.158498 0.0081,-0.04073 0.004,-0.05047 -0.0824,-0.240566 -0.04973,-0.108961 -0.102696,-0.224875 -0.117617,-0.257588 l -0.02715,-0.05947 -0.04288,0.03773 c -0.144999,0.127631 -0.385609,0.07609 -0.4727,-0.101231 -0.02285,-0.04646 -0.02621,-0.06445 -0.02608,-0.13831 6.7e-5,-0.07347 0.004,-0.09124 0.025,-0.132067 0.05336,-0.10107 0.147068,-0.164656 0.253918,-0.172356 0.245181,-0.01768 0.409832,0.233595 0.296852,0.453013 -0.0121,0.02467 -0.02124,0.04482 -0.01895,0.04482 0.0027,0 0.04839,-0.022 0.102562,-0.04892 l 0.09839,-0.04891 -0.05457,-0.109095 c -0.362099,-0.723335 -0.463626,-1.340512 -0.288733,-1.755189 0.193268,-0.458247 0.722585,-0.650621 1.403648,-0.510142 0.304204,0.06275 0.552786,0.144027 1.191292,0.389523 0.202355,0.0778 0.420571,0.160219 0.484904,0.183145 l 0.116945,0.04168 -0.0054,-0.07042 c -0.0027,-0.03874 -0.01506,-0.134443 -0.02635,-0.212683 -0.02406,-0.167894 -0.02661,-0.161254 0.08105,-0.212664 0.05847,-0.02797 0.101353,-0.04154 0.207692,-0.06585 0.02742,-0.0063 0.02661,-0.0073 -0.03777,-0.04073 -0.07541,-0.03929 -0.185096,-0.142376 -0.225663,-0.212095 -0.125279,-0.215499 -0.09678,-0.491311 0.06949,-0.670039 0.05686,-0.06111 0.196427,-0.254759 0.244711,-0.339504 0.03602,-0.06323 0.06197,-0.128478 0.05417,-0.136294 -0.01707,-0.01708 -0.238863,0.07428 -0.342528,0.141093 -0.03522,0.02274 -0.06936,0.04453 -0.07581,0.04846 -0.0094,0.0056 -0.0121,-0.06144 -0.0121,-0.32339 v -0.330531 l 0.09369,0.06143 c 0.130522,0.08556 0.340216,0.181693 0.340216,0.156018 0,-0.0039 -0.01075,-0.03854 -0.02379,-0.07706 -0.03159,-0.09283 -0.09678,-0.224828 -0.149878,-0.303538 l -0.04301,-0.06367 h 0.335309 c 0.265774,0 0.333831,0.0024 0.328172,0.01183 -0.004,0.0065 -0.02487,0.03939 -0.04651,0.07311 -0.06775,0.105653 -0.155013,0.301726 -0.155013,0.348602 0,0.01848 0.0027,0.0182 0.07622,-0.0087 0.08468,-0.03092 0.153332,-0.06746 0.272791,-0.145306 l 0.08025,-0.05225 0.0027,0.326503 c 0.0013,0.179576 6.98e-4,0.328354 -0.0013,0.330618 -0.0027,0.0022 -0.0289,-0.01264 -0.05914,-0.03319 -0.112644,-0.07648 -0.37046,-0.186408 -0.379036,-0.16164 -0.0121,0.03562 0.183859,0.340871 0.302229,0.470226 0.09732,0.106352 0.149192,0.24106 0.149192,0.387406 0,0.132887 -0.03589,0.239033 -0.11708,0.34624 -0.0496,0.06556 -0.137484,0.136413 -0.208457,0.168089 l -0.04718,0.02106 0.05659,0.01169 c 0.08361,0.01733 0.181977,0.05491 0.239159,0.09145 0.04799,0.0307 0.05027,0.03381 0.04463,0.06382 -0.02003,0.107038 -0.05699,0.401405 -0.05027,0.401405 0.0094,0 0.355836,-0.129648 0.667514,-0.249949 0.565422,-0.218241 0.918461,-0.328884 1.207543,-0.378437 0.561497,-0.09626 1.015445,0.04202 1.242197,0.378388 0.118424,0.175774 0.17074,0.390704 0.160524,0.660372 -0.01344,0.348231 -0.121919,0.72356 -0.34285,1.183343 -0.04342,0.09046 -0.07581,0.167638 -0.07178,0.171501 0.01075,0.01102 0.193039,0.09365 0.189061,0.08597 -0.05834,-0.112684 -0.06896,-0.199476 -0.03522,-0.289876 0.0289,-0.07771 0.105922,-0.15462 0.18359,-0.183588 0.112912,-0.04209 0.252426,-0.0097 0.33043,0.07661 0.07917,0.08771 0.104309,0.20833 0.0664,0.319247 -0.02487,0.07256 -0.112375,0.159971 -0.184531,0.184193 -0.10888,0.03656 -0.228863,0.01372 -0.312189,-0.05945 l -0.03307,-0.02902 -0.115064,0.25166 -0.115063,0.25166 0.0054,0.06225 c 0.0094,0.106097 -0.02742,0.180527 -0.129849,0.258498 -0.02016,0.01534 -0.05148,0.09157 -0.167352,0.407724 -0.142337,0.388212 -0.142552,0.388932 -0.132,0.434649 0.01344,0.05812 -0.0054,0.102065 -0.0582,0.138914 -0.03602,0.02493 -0.03804,0.02959 -0.126488,0.295609 l -0.08993,0.270266 0.01479,0.04245 c 0.01694,0.04836 0.01344,0.102414 -0.01075,0.137601 -0.01922,0.02937 -0.06896,0.06042 -0.09665,0.06047 -0.0121,1.8e-5 -0.09208,-0.02144 -0.179235,-0.04775 -0.849356,-0.2562 -1.694746,-0.380206 -2.483856,-0.364346 -0.728781,0.01464 -1.443019,0.131852 -2.227343,0.365478 -0.08616,0.02563 -0.164664,0.04655 -0.17453,0.04643 -0.0094,-1.12e-4 -0.03226,-0.0073 -0.04973,-0.01593 z m 0.403084,-1.474667 c 0.150213,-0.04163 0.299983,-0.141424 0.424456,-0.282818 l 0.05,-0.05674 -0.02823,-0.02819 c -0.0535,-0.0535 -0.06089,-0.124096 -0.01653,-0.15755 l 0.02245,-0.01687 -0.07796,-0.155668 c -0.04288,-0.08561 -0.09719,-0.181606 -0.120574,-0.213306 -0.06882,-0.09335 -0.154489,-0.121636 -0.192516,-0.06359 -0.02258,0.03437 -0.0094,0.09491 0.04517,0.216879 0.02648,0.05846 0.04651,0.111017 0.04449,0.116784 -0.0054,0.01796 -0.149864,-0.08357 -0.23264,-0.164184 -0.198188,-0.192985 -0.259752,-0.393881 -0.15106,-0.492941 0.05753,-0.05245 0.182272,-0.08611 0.280547,-0.07569 0.08952,0.0095 0.139285,0.03217 0.204626,0.09329 l 0.06022,0.05632 -0.0418,-0.08187 c -0.07044,-0.138082 -0.0781,-0.24064 -0.02877,-0.387522 0.0254,-0.0758 0.119633,-0.272564 0.141221,-0.29504 0.0094,-0.01035 0.0285,0.0013 0.106057,0.06814 0.166949,0.143412 0.247695,0.258937 0.268409,0.384008 0.0081,0.05119 0.0067,0.08446 -0.01075,0.201263 -0.02097,0.14423 -0.02178,0.183213 -0.0027,0.09842 0.01532,-0.06636 0.06304,-0.163496 0.100949,-0.205479 0.100814,-0.111528 0.358913,-0.151768 0.449297,-0.07005 0.04396,0.03977 0.05928,0.08741 0.05874,0.1825 -6.99e-4,0.09818 -0.02325,0.181096 -0.08052,0.295218 -0.05726,0.114176 -0.167796,0.259026 -0.180176,0.23626 -0.0027,-0.0043 6.99e-4,-0.05722 0.0067,-0.117523 0.01774,-0.171638 -3.36e-4,-0.234708 -0.06734,-0.234708 -0.04154,0 -0.08993,0.04846 -0.114929,0.114995 -0.01922,0.05155 -0.04006,0.153431 -0.05834,0.285945 -0.0054,0.04151 -0.0121,0.08689 -0.01532,0.100855 -0.004,0.02288 -0.0013,0.02648 0.0324,0.03658 0.0574,0.01718 0.07541,0.08152 0.04382,0.156992 -0.0081,0.01893 -0.01075,0.03682 -0.0067,0.03979 0.004,0.0031 0.02661,0.01864 0.04973,0.03483 0.06761,0.04733 0.171842,0.09602 0.260935,0.121837 0.09987,0.02891 0.238433,0.03291 0.328226,0.0094 0.130521,-0.0342 0.257278,-0.122833 0.350955,-0.245542 0.05054,-0.06621 0.126355,-0.203726 0.161613,-0.293143 l 0.01882,-0.04777 -0.03253,-0.01753 c -0.01788,-0.0097 -0.04947,-0.03594 -0.0703,-0.05845 l -0.03777,-0.04092 -0.05525,0.03752 c -0.07259,0.04931 -0.126219,0.111864 -0.198672,0.232092 -0.03266,0.05423 -0.06425,0.09858 -0.07017,0.09858 -0.0054,0 -0.04449,-0.01425 -0.0859,-0.03164 l -0.07527,-0.03164 -0.0027,-0.439693 -0.0027,-0.439692 0.07044,-0.04752 c 0.03871,-0.02613 0.0738,-0.04752 0.07796,-0.04752 0.004,0 0.01815,0.02015 0.03105,0.04479 0.04073,0.07742 0.12958,0.187198 0.219211,0.270815 0.04758,0.04434 0.091,0.08062 0.09665,0.08062 0.0054,0 0.02581,-0.01868 0.04503,-0.04149 l 0.03468,-0.0415 -0.06533,-0.09893 c -0.03589,-0.05441 -0.102158,-0.136566 -0.14727,-0.182559 l -0.08199,-0.08362 -0.0027,-0.481132 c -0.0013,-0.264621 -0.0067,-0.517207 -0.01075,-0.561303 l -0.0081,-0.08018 -0.103772,-0.03629 c -0.05713,-0.01995 -0.277832,-0.100102 -0.490564,-0.178088 -0.691951,-0.253657 -1.039452,-0.360994 -1.340417,-0.414021 -0.16301,-0.02871 -0.430317,-0.03129 -0.550945,-0.0052 -0.303035,0.06529 -0.491599,0.236773 -0.56807,0.516602 -0.01909,0.07003 -0.02164,0.100411 -0.02151,0.2586 2.69e-4,0.197662 0.0121,0.279026 0.07433,0.50519 0.05511,0.201165 0.171398,0.49246 0.29337,0.735308 l 0.04275,0.08507 0.06694,-0.03367 c 0.03683,-0.01851 0.06775,-0.03234 0.06896,-0.03074 10e-4,0.0017 0.0094,0.02954 0.01801,0.06205 l 0.016,0.05909 -0.02702,0.05412 c -0.05054,0.101164 -0.09732,0.264674 -0.110628,0.386669 l -0.0067,0.05896 h 0.03361 c 0.01855,0 0.04422,0.004 0.05713,0.0089 0.0293,0.01116 0.02984,0.01062 0.08885,-0.107979 0.0539,-0.108033 0.09127,-0.214416 0.107401,-0.305074 0.0067,-0.03459 0.0121,-0.06366 0.0121,-0.06467 0.004,-0.0075 0.17047,0.04336 0.17664,0.0541 0.0067,0.01264 0.278665,0.76849 0.287967,0.801933 0.0027,0.0091 -0.0211,0.03703 -0.06358,0.07476 -0.05646,0.05014 -0.0703,0.05835 -0.08307,0.04928 -0.08522,-0.05999 -0.197139,-0.104283 -0.315213,-0.124782 l -0.05874,-0.01022 -0.05592,0.05425 -0.05592,0.05425 0.06062,0.05508 c 0.123934,0.112522 0.273167,0.199299 0.403016,0.234325 0.09046,0.02438 0.240974,0.02399 0.330752,-0.001 z m 4.681506,10e-4 c 0.138371,-0.03545 0.284485,-0.119889 0.406296,-0.234802 l 0.06439,-0.06076 -0.03602,-0.02613 c -0.01989,-0.0144 -0.04463,-0.03783 -0.05498,-0.0521 l -0.01895,-0.02596 -0.09665,0.01949 c -0.09369,0.0189 -0.20589,0.06372 -0.265398,0.106097 -0.03347,0.02382 -0.04248,0.01971 -0.111971,-0.05112 -0.05108,-0.05207 -0.05108,-0.05222 -0.04019,-0.08796 0.0067,-0.01969 0.07192,-0.20544 0.146356,-0.412777 l 0.135347,-0.376981 0.08374,-0.02106 c 0.0461,-0.01156 0.08522,-0.01967 0.08697,-0.01796 0.0013,0.0017 0.01075,0.0412 0.02043,0.08775 0.01989,0.09717 0.07124,0.231618 0.125816,0.329195 0.03723,0.06655 0.03804,0.06726 0.06694,0.05896 0.01613,-0.0046 0.04342,-0.0085 0.06049,-0.0085 0.02984,0 0.03092,-0.0013 0.02621,-0.03066 -0.03199,-0.198078 -0.05431,-0.281275 -0.106864,-0.396503 -0.0328,-0.07198 -0.0332,-0.07438 -0.02124,-0.124217 0.01842,-0.0767 0.01761,-0.07638 0.08899,-0.04121 0.06022,0.02965 0.06412,0.03039 0.07595,0.01422 0.0067,-0.0094 0.04678,-0.09077 0.08872,-0.180879 0.220959,-0.475288 0.316155,-0.817043 0.315389,-1.132244 -3.23e-4,-0.145357 -0.01627,-0.241412 -0.05713,-0.344337 -0.141395,-0.356799 -0.537892,-0.508884 -1.082654,-0.415274 -0.329287,0.05658 -0.580127,0.134151 -1.382074,0.427364 -0.204949,0.07494 -0.413501,0.14974 -0.463451,0.166236 l -0.09087,0.03 -0.0054,0.05386 c -0.01788,0.168728 -0.02648,0.486558 -0.02043,0.764452 l 0.0067,0.304939 -0.08845,0.09128 c -0.08011,0.08264 -0.205473,0.253319 -0.205473,0.279707 0,0.0058 0.0168,0.02696 0.03723,0.04698 l 0.03723,0.0364 0.03549,-0.0271 c 0.09597,-0.07322 0.22202,-0.22319 0.301449,-0.35873 0.0094,-0.017 0.01465,-0.01534 0.08025,0.0291 l 0.06963,0.04717 0.0027,0.438111 c 0.0013,0.240961 -6.99e-4,0.441285 -0.004,0.445166 -0.004,0.0039 -0.04127,0.02161 -0.08294,0.03944 l -0.07581,0.03238 -0.06103,-0.09938 c -0.06909,-0.112509 -0.142417,-0.197117 -0.210917,-0.243245 l -0.04664,-0.03144 -0.03844,0.04085 c -0.02124,0.02246 -0.05229,0.04787 -0.06909,0.05643 -0.01694,0.0086 -0.03065,0.0182 -0.03065,0.02141 0,0.01722 0.07581,0.179122 0.116407,0.248411 0.06291,0.107442 0.192973,0.237798 0.284539,0.285062 0.211146,0.108974 0.462511,0.08331 0.70214,-0.0717 0.0367,-0.02375 0.06667,-0.04698 0.06667,-0.05164 0,-0.0047 -0.0067,-0.02371 -0.01411,-0.04234 -0.0285,-0.06803 -0.0094,-0.12915 0.04705,-0.147625 0.01828,-0.006 0.0332,-0.01676 0.0332,-0.02386 0,-0.0307 -0.03939,-0.278387 -0.05242,-0.329972 -0.03011,-0.118948 -0.08011,-0.183964 -0.14149,-0.183964 -0.06345,0 -0.08065,0.06932 -0.06116,0.246083 0.0067,0.0574 0.0081,0.107227 0.0054,0.110749 -0.01505,0.01471 -0.12259,-0.130737 -0.176587,-0.238899 -0.05538,-0.110775 -0.07528,-0.180229 -0.08052,-0.279532 -0.004,-0.08325 -0.0027,-0.09533 0.01976,-0.144226 0.02191,-0.04792 0.02984,-0.05586 0.07756,-0.07771 0.04758,-0.02179 0.0617,-0.02389 0.134796,-0.01987 0.138546,0.0075 0.249899,0.0637 0.306825,0.154711 0.01774,0.02847 0.04409,0.08765 0.05834,0.131516 0.01425,0.04386 0.02688,0.07862 0.02809,0.07725 10e-4,-0.0013 -0.0067,-0.05132 -0.016,-0.11099 -0.0121,-0.07023 -0.01707,-0.138876 -0.01506,-0.194669 0.0027,-0.07683 0.0067,-0.09372 0.03777,-0.155659 0.01936,-0.03899 0.06062,-0.09819 0.09396,-0.134925 0.05888,-0.06494 0.222357,-0.212856 0.23518,-0.212856 0.0121,0 0.121112,0.224291 0.149529,0.309298 0.04852,0.144869 0.03656,0.271359 -0.03831,0.405178 -0.01519,0.02717 -0.02769,0.05148 -0.02769,0.05404 0,0.0024 0.01747,-0.01436 0.03898,-0.0376 0.02231,-0.02414 0.0656,-0.05539 0.101218,-0.07291 0.05888,-0.02895 0.06775,-0.03059 0.161532,-0.0298 0.10646,10e-4 0.154475,0.01331 0.220273,0.05673 0.130118,0.08588 0.07662,0.303011 -0.123935,0.502741 -0.07178,0.07148 -0.207758,0.170792 -0.233889,0.170792 -0.01492,0 -0.01922,0.0125 0.04866,-0.141494 0.05484,-0.124311 0.05632,-0.197387 0.004,-0.21541 -0.04248,-0.01477 -0.0871,0.0022 -0.130656,0.04937 -0.05189,0.05635 -0.07863,0.100452 -0.160214,0.264678 l -0.07003,0.141115 0.0246,0.01963 c 0.04154,0.03311 0.03293,0.100492 -0.02016,0.157386 l -0.02352,0.02528 0.01976,0.02784 c 0.03307,0.04652 0.167191,0.167572 0.236941,0.213935 0.06923,0.04601 0.148453,0.08177 0.22975,0.103678 0.07285,0.01967 0.225341,0.01792 0.30903,-0.0035 z m -6.648022,-1.664707 c -0.08751,-0.02867 -0.165981,-0.10642 -0.197516,-0.195808 -0.0328,-0.09311 -0.0081,-0.22252 0.0578,-0.299259 0.06251,-0.07298 0.13821,-0.105949 0.243783,-0.106111 0.05417,-8.3e-5 0.07554,0.005 0.124473,0.02899 0.231416,0.11392 0.23108,0.444666 -6.99e-4,0.556441 -0.05659,0.02735 -0.168979,0.03508 -0.22807,0.01575 z m 8.109443,0.004 c -0.08253,-0.02519 -0.164664,-0.09807 -0.200849,-0.178202 -0.03051,-0.06768 -0.02877,-0.178238 0.004,-0.248334 0.03038,-0.06491 0.08361,-0.119754 0.145563,-0.150273 0.03925,-0.01932 0.06022,-0.02284 0.136059,-0.02284 0.0746,0 0.09705,0.0036 0.133882,0.02179 0.0617,0.03042 0.118289,0.08841 0.147431,0.151255 0.03576,0.0771 0.03508,0.182115 -0.0013,0.258089 -0.03253,0.06732 -0.1031,0.132188 -0.17207,0.15796 -0.05296,0.01984 -0.145577,0.02491 -0.192583,0.01049 z M 39.544434,70.13518 c -0.06493,-0.02316 -0.129849,-0.07904 -0.16578,-0.142737 -0.0246,-0.04354 -0.02944,-0.0632 -0.0328,-0.133317 -0.004,-0.0738 -0.0013,-0.08791 0.02124,-0.137409 0.115332,-0.252565 0.474676,-0.243638 0.571982,0.01422 0.04033,0.106944 0.0121,0.244049 -0.06828,0.323778 -0.08321,0.08321 -0.217612,0.114284 -0.32637,0.07548 z m 8.302537,-0.0022 c -0.182421,-0.07222 -0.254093,-0.296461 -0.146033,-0.456884 0.0613,-0.09099 0.146745,-0.1378 0.253138,-0.138676 0.124069,-10e-4 0.225032,0.06006 0.27841,0.168477 0.02782,0.05644 0.03145,0.07271 0.03132,0.139556 -2.28e-4,0.09115 -0.02298,0.149092 -0.0828,0.210896 -0.0613,0.06326 -0.119633,0.08908 -0.209452,0.09287 -0.05941,0.0024 -0.08589,-0.001 -0.124473,-0.01624 z m -8.140589,-0.682222 c -0.08751,-0.02867 -0.165981,-0.10642 -0.197515,-0.195807 -0.03293,-0.09311 -0.0081,-0.222521 0.0578,-0.29926 0.06224,-0.07268 0.13825,-0.105949 0.242587,-0.10611 0.110627,-1.79e-4 0.210581,0.06107 0.266016,0.162908 0.03791,0.0697 0.04395,0.176891 0.01425,0.255447 -0.02514,0.06666 -0.09463,0.141215 -0.15805,0.169398 -0.05578,0.02484 -0.169651,0.03162 -0.225193,0.01344 z m 8.015095,0.004 c -0.08253,-0.02518 -0.164019,-0.09661 -0.199868,-0.175141 -0.01667,-0.03648 -0.02151,-0.06432 -0.02164,-0.122846 -1.07e-4,-0.06685 0.004,-0.08311 0.03132,-0.139553 0.05686,-0.11552 0.156437,-0.171829 0.292295,-0.165313 0.08643,0.0042 0.142269,0.02815 0.200782,0.08632 0.08294,0.08241 0.109955,0.19391 0.07501,0.30894 -0.01761,0.05812 -0.0289,0.07647 -0.07433,0.122012 -0.06586,0.06589 -0.13415,0.09479 -0.221254,0.09358 -0.03226,-3.49e-4 -0.06923,-0.004 -0.08226,-0.0079 z m -3.051966,-0.208941 c -0.10431,-0.01331 -0.213337,-0.101903 -0.24623,-0.19997 -0.02635,-0.07869 -0.02097,-0.165777 0.01465,-0.238322 0.0578,-0.117361 0.163481,-0.179377 0.292967,-0.171882 0.11681,0.0067 0.206455,0.06507 0.261701,0.170237 0.02258,0.043 0.02594,0.05992 0.02594,0.13411 9.4e-5,0.06917 -0.004,0.09291 -0.02124,0.128075 -0.06345,0.128828 -0.186951,0.195765 -0.327876,0.17775 z m -1.891403,-0.01639 c -0.06371,-0.02368 -0.152794,-0.115762 -0.175094,-0.180936 -0.05552,-0.162143 0.02514,-0.337196 0.182622,-0.39664 0.04301,-0.01621 0.06802,-0.01949 0.124472,-0.01621 0.11802,0.0069 0.212396,0.0703 0.263086,0.176995 0.02057,0.04331 0.0246,0.06514 0.0246,0.132081 0,0.07346 -0.0027,0.08521 -0.0324,0.13994 -0.05847,0.107791 -0.152338,0.162514 -0.276676,0.161251 -0.03898,-3.5e-4 -0.08657,-0.0075 -0.110762,-0.01648 z m -0.603771,-0.227043 c -0.09087,-0.02948 -0.175942,-0.109646 -0.204143,-0.192381 -0.03683,-0.107912 -0.01371,-0.227068 0.05995,-0.30892 0.02366,-0.02637 0.06479,-0.05935 0.09127,-0.07326 0.04234,-0.02222 0.05901,-0.02529 0.137806,-0.02543 0.07474,-1.11e-4 0.09692,0.0035 0.133882,0.02165 0.06156,0.03035 0.118155,0.08829 0.147687,0.151255 0.03562,0.07605 0.03562,0.181571 0,0.257579 -0.05256,0.112079 -0.143479,0.171594 -0.267468,0.175033 -0.04154,0.001 -0.08603,-0.0013 -0.09907,-0.0055 z m 3.074347,-0.0042 c -0.175109,-0.06492 -0.257145,-0.254161 -0.182394,-0.420712 0.08724,-0.194551 0.348402,-0.24201 0.499516,-0.0908 0.06331,0.06342 0.08455,0.117873 0.08455,0.217472 0,0.07107 -0.004,0.09259 -0.02312,0.132081 -0.02957,0.06014 -0.0867,0.117294 -0.146504,0.146626 -0.05659,0.02773 -0.177098,0.0357 -0.231995,0.01534 z m -5.069629,-0.03776 c -0.08563,-0.02847 -0.153816,-0.08708 -0.193967,-0.166661 -0.03172,-0.0628 -0.03589,-0.16732 -0.0094,-0.237235 0.05525,-0.146214 0.212437,-0.230151 0.360594,-0.192483 0.142485,0.03623 0.234804,0.151394 0.235987,0.294391 0.0013,0.169071 -0.120575,0.300926 -0.287389,0.310593 -0.04181,0.0024 -0.08253,-0.001 -0.105788,-0.0086 z m 7.073782,-3.5e-4 c -0.08401,-0.0276 -0.157634,-0.09261 -0.193537,-0.170995 -0.03307,-0.07214 -0.03105,-0.188675 0.004,-0.260947 0.07218,-0.146968 0.25732,-0.214899 0.403205,-0.147943 0.06896,0.03168 0.135683,0.100747 0.161518,0.167363 0.06036,0.155546 -0.0081,0.3263 -0.159771,0.39751 -0.05457,0.02563 -0.160967,0.03304 -0.21585,0.01502 z m -5.72268,-0.138058 c -0.08079,-0.02032 -0.162029,-0.08606 -0.203322,-0.164429 -0.02204,-0.04179 -0.025,-0.05839 -0.025,-0.137171 0,-0.07893 0.0027,-0.09525 0.02514,-0.136791 0.03266,-0.06133 0.0949,-0.121058 0.154058,-0.147733 0.06963,-0.03143 0.17945,-0.03025 0.249993,0.0028 0.0625,0.0292 0.123129,0.08784 0.152714,0.14795 0.03119,0.06335 0.03159,0.203735 6.99e-4,0.266368 -0.0289,0.05865 -0.09181,0.12044 -0.150133,0.147453 -0.05498,0.0255 -0.149205,0.03549 -0.204062,0.02169 z m 4.392142,-0.0035 c -0.09396,-0.03074 -0.15469,-0.08187 -0.197543,-0.166151 -0.02285,-0.04508 -0.02635,-0.06238 -0.02594,-0.132067 3.36e-4,-0.06077 0.0054,-0.09097 0.02057,-0.124714 0.02809,-0.06244 0.08616,-0.121851 0.150308,-0.153755 0.04611,-0.02295 0.0664,-0.02725 0.130118,-0.02766 0.06224,-3.5e-4 0.08468,0.0039 0.127833,0.02406 0.0746,0.03499 0.117348,0.07644 0.152552,0.147988 0.07514,0.152574 0.01438,0.332943 -0.137282,0.407598 -0.07003,0.03451 -0.159879,0.04456 -0.220542,0.02469 z m -5.101742,-0.03721 c -0.05457,-0.01803 -0.07783,-0.03199 -0.124875,-0.07538 -0.06089,-0.05611 -0.08966,-0.118235 -0.09463,-0.204504 -0.0054,-0.100627 0.01949,-0.165976 0.09235,-0.237658 0.04597,-0.04523 0.06519,-0.05694 0.122322,-0.07431 0.114391,-0.03475 0.226134,-0.0075 0.308372,0.07517 0.06492,0.06534 0.08321,0.112926 0.08321,0.217932 0,0.104229 -0.01976,0.156499 -0.0828,0.219571 -0.07407,0.07411 -0.211146,0.109794 -0.304016,0.07919 z m 5.79669,2.8e-4 c -0.08522,-0.0241 -0.162379,-0.09138 -0.200984,-0.175243 -0.0285,-0.06183 -0.02836,-0.185992 2.29e-4,-0.24809 0.0707,-0.153601 0.260451,-0.226244 0.410154,-0.156992 0.192542,0.08905 0.243353,0.33156 0.102965,0.491431 -0.06761,0.07694 -0.210662,0.117657 -0.312377,0.08889 z"
         id="path5752" />
    </g>
    <text
       xml:space="preserve"
       id="text34504"
       style="font-weight:bold;font-size:4.93889px;font-family:Helvetica;-inkscape-font-specification:'Helvetica Bold';text-align:justify;white-space:pre;display:inline;fill:#223264;fill-opacity:1;stroke-width:18.8976;stroke-linecap:round"><textPath
         xlink:href="#path36016"
         id="textPath36383"
         style="font-style:normal;font-variant:normal;font-weight:bold;font-stretch:normal;font-size:4.93889px;font-family:'Acherus Feral';-inkscape-font-specification:'Acherus Feral Bold';fill:#223264;fill-opacity:1">ECHQ</textPath></text>
    <path
       id="path36016"
       style="display:inline;fill:none;stroke:none;stroke-width:0.115928;stroke-linecap:round"
       d="M 18.418584,11.799717 A 14.750001,14.750002 0.5 0 1 38.200281,18.418581 14.750001,14.750002 0.5 0 1 31.581416,38.200283 14.750001,14.750002 0.5 0 1 11.799717,31.581418 14.750001,14.750002 0.5 0 1 18.418584,11.799717 Z" />
    <text
       xml:space="preserve"
       id="text36616"
       style="font-style:normal;font-variant:normal;font-weight:bold;font-stretch:normal;font-size:4.9389px;font-family:'Acherus Feral';-inkscape-font-specification:'Acherus Feral Bold';text-align:justify;white-space:pre;display:inline;fill:none;fill-opacity:1;stroke:#00d90e;stroke-width:0.377953;stroke-linecap:round;stroke-dasharray:none;stroke-opacity:1"><textPath
         xlink:href="#path36016-0"
         id="textPath36624"><tspan
           style="fill:#223264;fill-opacity:1;stroke:none"
           id="tspan36622">Monitored Device</tspan></textPath></text>
    <path
       id="path36016-0"
       style="display:inline;fill:none;stroke:none;stroke-width:0.143437;stroke-linecap:round;stroke-opacity:1"
       d="M 8.393204,32.568147 A 18.249997,18.250004 74.213513 0 0 32.568155,41.606793 18.249997,18.250004 74.213513 0 0 41.606791,17.431843 18.249997,18.250004 74.213513 0 0 17.431845,8.393206 18.249997,18.250004 74.213513 0 0 8.393204,32.568147 Z" />
  </g>
</svg>
